<?xml version="1.0" encoding="utf-8"?>
<!-- Generator: Adobe Illustrator 24.0.1, SVG Export Plug-In . SVG Version: 6.00 Build 0)  -->
<svg version="1.1" id="Layer_1" xmlns="http://www.w3.org/2000/svg" xmlns:xlink="http://www.w3.org/1999/xlink" x="0px" y="0px"
	 viewBox="0 0 24 24" style="enable-background:new 0 0 24 24;" xml:space="preserve">
<style type="text/css">
	.st0{fill:none;stroke:#72368D;stroke-miterlimit:10;}
</style>
<title>Transmission_Primary_24px_SVG</title>
<desc>Created with Sketch.</desc>
<g id="Transmission_Primary_24px">
	<g id="Icon" transform="translate(1.000000, 1.000000)">
		<path id="Stroke-1" class="st0" d="M1.8,0c1,0,1.8,0.8,1.8,1.8S2.8,3.7,1.8,3.7S0,2.8,0,1.8S0.8,0,1.8,0"/>
		<path id="Stroke-3" class="st0" d="M3.7,20.2c0,1-0.8,1.8-1.8,1.8S0,21.2,0,20.2s0.8-1.8,1.8-1.8S3.7,19.2,3.7,20.2z"/>
		<path id="Stroke-5" class="st0" d="M22,20.2c0,1-0.8,1.8-1.8,1.8s-1.8-0.8-1.8-1.8s0.8-1.8,1.8-1.8C21.2,18.3,22,19.2,22,20.2z"/>
		<path id="Stroke-7" class="st0" d="M12.8,20.2c0,1-0.8,1.8-1.8,1.8s-1.8-0.8-1.8-1.8s0.8-1.8,1.8-1.8S12.8,19.2,12.8,20.2z"/>
		<path id="Stroke-9" class="st0" d="M11,0c1,0,1.8,0.8,1.8,1.8S12,3.7,11,3.7S9.2,2.8,9.2,1.8S10,0,11,0"/>
		<path id="Stroke-11" class="st0" d="M1.8,3.7v14.7"/>
		<path id="Stroke-13" class="st0" d="M11,3.7v14.7"/>
		<path id="Stroke-15" class="st0" d="M1.8,11h16.5c1,0,1.8,0.8,1.8,1.8v5.5"/>
	</g>
</g>
</svg>
