<?xml version="1.0" encoding="utf-8"?>
<!-- Generator: Adobe Illustrator 25.0.0, SVG Export Plug-In . SVG Version: 6.00 Build 0)  -->
<svg version="1.1" id="Layer_1" xmlns="http://www.w3.org/2000/svg" xmlns:xlink="http://www.w3.org/1999/xlink" x="0px" y="0px"
	 viewBox="0 0 100 100" style="enable-background:new 0 0 100 100;" xml:space="preserve">
<style type="text/css">
	.st0{opacity:0.3;}
	.st1{fill:#82BE42;}
	.st2{clip-path:url(#SVGID_7_);fill:#82BE42;}
	.st3{fill:rgb(0, 102, 180);}
	.st4{clip-path:url(#SVGID_9_);fill:rgb(0, 102, 180);}
</style>
<g class="st0">
	<g>
		<path id="SVGID_3_" class="st1" d="M88.7,66.8c-2.5,0.4-1.9,9.5-6.1,9.4c-0.8-0.2-1.4-0.9-1-1.9c-0.6-2.4,1.8-2.9,1-5.8
			c0.6-2.3,4.5-2.2,5.4-5.4c0.2,0.3,0.5,0.6,0.6,0.9C88.7,64.9,89.1,65.9,88.7,66.8z M79.6,61.2c1,6.8-2.4,5.8-6,9.6
			c0.2,1.9,1.1,4.8-1.9,5.3c-1.6,3.8-4.3,8.2-8.9,8.3c-1.6,0.2-4.9,1.3-5.2-1c0.4-2.2-1.3-3.3-2.1-4.9c-1.1-2.6-1.4-5.8-3.1-8.1
			C49,62.7,58,64,48.5,52.2c0.1-1.9,1.9-7.2-2.1-5.9c-2.6,0.1-0.6-2.7-4.5-1.7c-1.9,0.4-3.6,1.6-5.7,1.2c-6.2,2.3-9.1-3.2-12.4-7.1
			c-1-2.4,0.4-4.9,0.9-7.2c-0.9-5.9,5.9-7.4,8.3-11.4c1-1.6,3.6-5.2,5.8-4.1c4.1-0.4,8.2-2.3,12.3-1.8c0.2,0.2,1.8,1.2-0.6,3.1
			c-1.1,0.9,3.2,0.6,4.1,1.6c1.3,0.9,2.9,1.7,4.3,1.8c0.9-1-0.1-1.6,0.9-2.1c2.4-0.5,4.8,1.6,7.4,1.6c1.5-0.6,3.3-0.4,4.8-0.1
			C84,32.5,77.9,43.5,90,39C90.7,48.7,74.6,51.4,79.6,61.2z"/>
	</g>
	<g>
		<g>
			<g>
				<path id="SVGID_1_" class="st1" d="M88.7,66.8c-2.5,0.4-1.9,9.5-6.1,9.4c-0.8-0.2-1.4-0.9-1-1.9c-0.6-2.4,1.8-2.9,1-5.8
					c0.6-2.3,4.5-2.2,5.4-5.4c0.2,0.3,0.5,0.6,0.6,0.9C88.7,64.9,89.1,65.9,88.7,66.8z M79.6,61.2c1,6.8-2.4,5.8-6,9.6
					c0.2,1.9,1.1,4.8-1.9,5.3c-1.6,3.8-4.3,8.2-8.9,8.3c-1.6,0.2-4.9,1.3-5.2-1c0.4-2.2-1.3-3.3-2.1-4.9c-1.1-2.6-1.4-5.8-3.1-8.1
					C49,62.7,58,64,48.5,52.2c0.1-1.9,1.9-7.2-2.1-5.9c-2.6,0.1-0.6-2.7-4.5-1.7c-1.9,0.4-3.6,1.6-5.7,1.2
					c-6.2,2.3-9.1-3.2-12.4-7.1c-1-2.4,0.4-4.9,0.9-7.2c-0.9-5.9,5.9-7.4,8.3-11.4c1-1.6,3.6-5.2,5.8-4.1c4.1-0.4,8.2-2.3,12.3-1.8
					c0.2,0.2,1.8,1.2-0.6,3.1c-1.1,0.9,3.2,0.6,4.1,1.6c1.3,0.9,2.9,1.7,4.3,1.8c0.9-1-0.1-1.6,0.9-2.1c2.4-0.5,4.8,1.6,7.4,1.6
					c1.5-0.6,3.3-0.4,4.8-0.1C84,32.5,77.9,43.5,90,39C90.7,48.7,74.6,51.4,79.6,61.2z"/>
			</g>
			<g>
				<g>
					<g>
						<path id="SVGID_2_" class="st1" d="M88.7,66.8c-2.5,0.4-1.9,9.5-6.1,9.4c-0.8-0.2-1.4-0.9-1-1.9c-0.6-2.4,1.8-2.9,1-5.8
							c0.6-2.3,4.5-2.2,5.4-5.4c0.2,0.3,0.5,0.6,0.6,0.9C88.7,64.9,89.1,65.9,88.7,66.8z M79.6,61.2c1,6.8-2.4,5.8-6,9.6
							c0.2,1.9,1.1,4.8-1.9,5.3c-1.6,3.8-4.3,8.2-8.9,8.3c-1.6,0.2-4.9,1.3-5.2-1c0.4-2.2-1.3-3.3-2.1-4.9c-1.1-2.6-1.4-5.8-3.1-8.1
							C49,62.7,58,64,48.5,52.2c0.1-1.9,1.9-7.2-2.1-5.9c-2.6,0.1-0.6-2.7-4.5-1.7c-1.9,0.4-3.6,1.6-5.7,1.2
							c-6.2,2.3-9.1-3.2-12.4-7.1c-1-2.4,0.4-4.9,0.9-7.2c-0.9-5.9,5.9-7.4,8.3-11.4c1-1.6,3.6-5.2,5.8-4.1
							c4.1-0.4,8.2-2.3,12.3-1.8c0.2,0.2,1.8,1.2-0.6,3.1c-1.1,0.9,3.2,0.6,4.1,1.6c1.3,0.9,2.9,1.7,4.3,1.8c0.9-1-0.1-1.6,0.9-2.1
							c2.4-0.5,4.8,1.6,7.4,1.6c1.5-0.6,3.3-0.4,4.8-0.1C84,32.5,77.9,43.5,90,39C90.7,48.7,74.6,51.4,79.6,61.2z"/>
					</g>
					<g>
						<defs>
							<path id="SVGID_5_" d="M88.7,66.8c-2.5,0.4-1.9,9.5-6.1,9.4c-0.8-0.2-1.4-0.9-1-1.9c-0.6-2.4,1.8-2.9,1-5.8
								c0.6-2.3,4.5-2.2,5.4-5.4c0.2,0.3,0.5,0.6,0.6,0.9C88.7,64.9,89.1,65.9,88.7,66.8z M79.6,61.2c1,6.8-2.4,5.8-6,9.6
								c0.2,1.9,1.1,4.8-1.9,5.3c-1.6,3.8-4.3,8.2-8.9,8.3c-1.6,0.2-4.9,1.3-5.2-1c0.4-2.2-1.3-3.3-2.1-4.9
								c-1.1-2.6-1.4-5.8-3.1-8.1C49,62.7,58,64,48.5,52.2c0.1-1.9,1.9-7.2-2.1-5.9c-2.6,0.1-0.6-2.7-4.5-1.7
								c-1.9,0.4-3.6,1.6-5.7,1.2c-6.2,2.3-9.1-3.2-12.4-7.1c-1-2.4,0.4-4.9,0.9-7.2c-0.9-5.9,5.9-7.4,8.3-11.4
								c1-1.6,3.6-5.2,5.8-4.1c4.1-0.4,8.2-2.3,12.3-1.8c0.2,0.2,1.8,1.2-0.6,3.1c-1.1,0.9,3.2,0.6,4.1,1.6c1.3,0.9,2.9,1.7,4.3,1.8
								c0.9-1-0.1-1.6,0.9-2.1c2.4-0.5,4.8,1.6,7.4,1.6c1.5-0.6,3.3-0.4,4.8-0.1C84,32.5,77.9,43.5,90,39
								C90.7,48.7,74.6,51.4,79.6,61.2z"/>
						</defs>
						<clipPath id="SVGID_7_">
							<use xlink:href="#SVGID_5_"  style="overflow:visible;"/>
						</clipPath>
						<rect x="-16" y="-25.9" class="st2" width="153.7" height="153.7"/>
					</g>
				</g>
			</g>
		</g>
	</g>
	<g>
		<g>
			<g>
				<path id="SVGID_4_" class="st1" d="M88.7,66.8c-2.5,0.4-1.9,9.5-6.1,9.4c-0.8-0.2-1.4-0.9-1-1.9c-0.6-2.4,1.8-2.9,1-5.8
					c0.6-2.3,4.5-2.2,5.4-5.4c0.2,0.3,0.5,0.6,0.6,0.9C88.7,64.9,89.1,65.9,88.7,66.8z M79.6,61.2c1,6.8-2.4,5.8-6,9.6
					c0.2,1.9,1.1,4.8-1.9,5.3c-1.6,3.8-4.3,8.2-8.9,8.3c-1.6,0.2-4.9,1.3-5.2-1c0.4-2.2-1.3-3.3-2.1-4.9c-1.1-2.6-1.4-5.8-3.1-8.1
					C49,62.7,58,64,48.5,52.2c0.1-1.9,1.9-7.2-2.1-5.9c-2.6,0.1-0.6-2.7-4.5-1.7c-1.9,0.4-3.6,1.6-5.7,1.2
					c-6.2,2.3-9.1-3.2-12.4-7.1c-1-2.4,0.4-4.9,0.9-7.2c-0.9-5.9,5.9-7.4,8.3-11.4c1-1.6,3.6-5.2,5.8-4.1c4.1-0.4,8.2-2.3,12.3-1.8
					c0.2,0.2,1.8,1.2-0.6,3.1c-1.1,0.9,3.2,0.6,4.1,1.6c1.3,0.9,2.9,1.7,4.3,1.8c0.9-1-0.1-1.6,0.9-2.1c2.4-0.5,4.8,1.6,7.4,1.6
					c1.5-0.6,3.3-0.4,4.8-0.1C84,32.5,77.9,43.5,90,39C90.7,48.7,74.6,51.4,79.6,61.2z"/>
			</g>
			<g>
				<g>
					<g>
						<path id="SVGID_6_" class="st3" d="M88.7,66.8c-2.5,0.4-1.9,9.5-6.1,9.4c-0.8-0.2-1.4-0.9-1-1.9c-0.6-2.4,1.8-2.9,1-5.8
							c0.6-2.3,4.5-2.2,5.4-5.4c0.2,0.3,0.5,0.6,0.6,0.9C88.7,64.9,89.1,65.9,88.7,66.8z M79.6,61.2c1,6.8-2.4,5.8-6,9.6
							c0.2,1.9,1.1,4.8-1.9,5.3c-1.6,3.8-4.3,8.2-8.9,8.3c-1.6,0.2-4.9,1.3-5.2-1c0.4-2.2-1.3-3.3-2.1-4.9c-1.1-2.6-1.4-5.8-3.1-8.1
							C49,62.7,58,64,48.5,52.2c0.1-1.9,1.9-7.2-2.1-5.9c-2.6,0.1-0.6-2.7-4.5-1.7c-1.9,0.4-3.6,1.6-5.7,1.2
							c-6.2,2.3-9.1-3.2-12.4-7.1c-1-2.4,0.4-4.9,0.9-7.2c-0.9-5.9,5.9-7.4,8.3-11.4c1-1.6,3.6-5.2,5.8-4.1
							c4.1-0.4,8.2-2.3,12.3-1.8c0.2,0.2,1.8,1.2-0.6,3.1c-1.1,0.9,3.2,0.6,4.1,1.6c1.3,0.9,2.9,1.7,4.3,1.8c0.9-1-0.1-1.6,0.9-2.1
							c2.4-0.5,4.8,1.6,7.4,1.6c1.5-0.6,3.3-0.4,4.8-0.1C84,32.5,77.9,43.5,90,39C90.7,48.7,74.6,51.4,79.6,61.2z"/>
					</g>
					<g>
						<defs>
							<path id="SVGID_8_" d="M88.7,66.8c-2.5,0.4-1.9,9.5-6.1,9.4c-0.8-0.2-1.4-0.9-1-1.9c-0.6-2.4,1.8-2.9,1-5.8
								c0.6-2.3,4.5-2.2,5.4-5.4c0.2,0.3,0.5,0.6,0.6,0.9C88.7,64.9,89.1,65.9,88.7,66.8z M79.6,61.2c1,6.8-2.4,5.8-6,9.6
								c0.2,1.9,1.1,4.8-1.9,5.3c-1.6,3.8-4.3,8.2-8.9,8.3c-1.6,0.2-4.9,1.3-5.2-1c0.4-2.2-1.3-3.3-2.1-4.9
								c-1.1-2.6-1.4-5.8-3.1-8.1C49,62.7,58,64,48.5,52.2c0.1-1.9,1.9-7.2-2.1-5.9c-2.6,0.1-0.6-2.7-4.5-1.7
								c-1.9,0.4-3.6,1.6-5.7,1.2c-6.2,2.3-9.1-3.2-12.4-7.1c-1-2.4,0.4-4.9,0.9-7.2c-0.9-5.9,5.9-7.4,8.3-11.4
								c1-1.6,3.6-5.2,5.8-4.1c4.1-0.4,8.2-2.3,12.3-1.8c0.2,0.2,1.8,1.2-0.6,3.1c-1.1,0.9,3.2,0.6,4.1,1.6c1.3,0.9,2.9,1.7,4.3,1.8
								c0.9-1-0.1-1.6,0.9-2.1c2.4-0.5,4.8,1.6,7.4,1.6c1.5-0.6,3.3-0.4,4.8-0.1C84,32.5,77.9,43.5,90,39
								C90.7,48.7,74.6,51.4,79.6,61.2z"/>
						</defs>
						<use xlink:href="#SVGID_8_"  style="overflow:visible;fill:rgb(0, 102, 180);"/>
						<clipPath id="SVGID_9_">
							<use xlink:href="#SVGID_8_"  style="overflow:visible;"/>
						</clipPath>
						<path class="st4" d="M28.5,61.3c0,0.1,0,0.1,0,0.2C28.5,61.5,28.5,61.5,28.5,61.3z"/>
					</g>
				</g>
			</g>
		</g>
	</g>
</g>
</svg>
