<?xml version="1.0" encoding="utf-8"?>
<!-- Generator: Adobe Illustrator 25.0.0, SVG Export Plug-In . SVG Version: 6.00 Build 0)  -->
<svg version="1.1" id="Layer_1" xmlns="http://www.w3.org/2000/svg" xmlns:xlink="http://www.w3.org/1999/xlink" x="0px" y="0px"
	 viewBox="0 0 100 100" style="enable-background:new 0 0 100 100;" xml:space="preserve">
<style type="text/css">
	.st0{opacity:0.3;}
	.st1{fill:rgb(0, 102, 180);}
</style>
<g class="st0">
	<path class="st1" d="M56.1,63c0-0.1,0-0.2-0.1-0.3c0,0,0,0-0.1,0c-0.2,0-0.4,0.1-0.4,0.3c0,0.1,0.1,0.2,0.1,0.3
		c0.1,0.2-0.1,0.4-0.3,0.7l0,0c-0.1-0.2-0.1-0.4-0.1-0.7l0,0c0-0.1,0-0.2-0.1-0.3c0-0.1-0.1-0.2-0.2-0.2c0.1-0.2,0-0.4-0.1-0.7
		c0-0.1-0.1-0.1-0.1-0.2c0-0.1-0.1-0.1-0.1-0.2c0-0.1-0.1-0.2-0.1-0.4v-0.1c0,0,0-0.1,0.1-0.1c0-0.1,0-0.2,0-0.3
		c0-0.2,0-0.4-0.1-0.7c0-0.1-0.1-0.1-0.2-0.2c0,0,0-0.1-0.1-0.1c-0.2-0.2-0.3-0.5-0.4-0.9l0.3-0.1c0,0,0.1,0,0.1-0.1v-0.1v-0.5
		c0.2,0,0.4,0,0.5,0h0.1V58c0-0.1,0.1-0.2,0.2-0.3c0,0,0,0,0.1,0h0.1c0.1,0,0.2-0.1,0.2-0.1l0.1,0.1l0,0c0,0,0,0,0.1,0h0.1
		c0,0.1,0,0.3,0,0.4V58c0.1,0.1,0.3,0.1,0.5,0.1c0,0,0,0,0.1,0c0,0.2,0,0.4-0.1,0.7c0,0,0,0.1-0.1,0.1C56,59,56,59.1,56,59.3v0.1
		c0,0,0.1,0,0.2,0s0.2-0.1,0.3-0.2c0.1-0.1,0.2-0.2,0.3-0.2H57c0.1,0.1,0.3,0.2,0.4,0.3c0,0,0,0.1,0.1,0.1h0.1
		c0.1,0,0.1-0.1,0.2-0.2c0.1-0.2,0.4-0.3,0.7-0.2c0.2,0.1,0.4,0.3,0.5,0.5c0,0.1,0.1,0.3,0,0.4l0,0c0,0,0,0.1-0.1,0.1
		c-0.1,0.1,0.1,0.3,0.2,0.3c0,0,0,0,0.1,0.1s0.2,0.3,0.2,0.7c0,0.1,0,0.2,0,0.3s-0.1,0.2-0.2,0.3c-0.1,0.1-0.3,0.1-0.4,0h-0.1l0,0
		h-0.1c-0.2,0-0.4-0.1-0.7,0c-0.2,0.1-0.3,0.2-0.4,0.3l-0.3,0.3c0,0,0,0-0.1,0.1c0,0.1,0,0.1,0,0.1c0.1,0.1,0.1,0.2,0.1,0.3l0,0v0.1
		c0,0,0,0.1,0.1,0.1l0,0c0.1,0.1,0.1,0.1,0.1,0.2c-0.2-0.2-0.3-0.4-0.7-0.4c-0.2,0-0.5,0.1-0.8,0.1C56,63.2,56,63.1,56.1,63z"/>
	<path class="st1" d="M57.3,56.4c-0.1-0.1-0.5-0.7-0.7-0.9l0,0c0.1-0.1,0.5-0.3,0.5-0.3c0.1,0.1,0.1,0.7,0.2,0.7
		c0.1,0,0.2,0,0.3-0.1c0,0,0,0.1,0.1,0.1l0,0c0,0,0,0,0.1,0l0.1-0.1L58,56h0.1c0.3-0.2,0.7-0.3,0.9-0.5c0,0,0.1-0.1,0.1,0
		c0,0,0,0,0.1,0c0.2,0.1,0.2-0.5,0.5-0.4c-0.1,0.1,0.4,0.4,0.5,0.5c0,0.1,0.1,0.1,0.1,0.2l0.3,0.3c0,0,0.1,0.1,0.2,0.1
		c0.1,0,0.2,0,0.3,0H61c0.1,0,0.1,0.5,0.1,0.7c-0.4,0.2-1,0.4-1.3,0.8c-0.3,0.3-0.5,0.9-0.3,1.3c0.1,0.1,0.1,0.3,0.2,0.4
		c0.4,0.5,0.8,1.3,1.4,1.6c0.3,0.1,0.5,0.5,0.7,0.9c0.2,0.8,0.2,1.5,0.1,2.3c0,0.1,0,0.2-0.1,0.2c-0.1,0.1-0.1,0.1-0.2,0.2
		c-0.2,0.1-0.2,0.2-0.4,0.3c-0.1,0.1-0.3,0.2-0.4,0.3c-0.1,0-0.1,0.1-0.2,0.1c-0.1,0-0.2,0-0.2,0c-0.3,0-0.3,0.4-0.5,0.7
		c-0.2,0.2-0.8,0.3-0.9,0.7c0-0.1,0-0.3,0-0.4s0.1-0.3,0-0.4c-0.1-0.3-0.4-0.5-0.8-0.5c-0.2,0-0.4,0-0.4-0.2c0-0.1,0-0.1,0-0.2
		c0-0.2-0.1-0.3-0.3-0.5l0,0c0-0.1-0.1-0.2-0.2-0.3l0.1-0.1c0,0,0,0,0-0.1v-0.1h-0.1c0-0.1,0-0.2,0-0.4c0,0,0.3,1.2,0.3,1.1
		l-1.3-1.8l1.2,0.2c0.1-0.1,0.2-0.2,0.4-0.3s0.3,0,0.5,0c0.1,0,0.1,0,0.2,0h0.1l0,0c0.1,0,0.2,0,0.3,0l0,0c0.2,0,0.4,0.1,0.5,0.3
		l0,0h0.2l0,0l0,0c0,0,0.1-0.1,0-0.1c0-0.1-0.1-0.2-0.2-0.3h0.1c0,0,0,0,0.1,0H60l0.1,0.2l0,0l0,0l0.4-0.2c0,0.2,0,0.3,0,0.5l0.1,1
		c-0.1,0-0.3,0.1-0.4,0.2c-0.1,0-0.2-0.1-0.3-0.1l0,0c0,0,0,0,0,0.1s0.1,0.2,0.1,0.3h-0.3l0,0c0,0,0,0,0,0.1
		c0.1,0.2,0.1,0.3,0.2,0.5L59.5,65c0,0-0.1,0-0.2,0l-0.1,0.1L58,63.9c-0.4-0.4-1.1-0.5-1.6-0.1l-1.3,1l-1.3-4.3l-1.4-1.8l8-4.1
		L59.7,58l-0.1,1.5l1.6,1.6L61,64.6l-1.8,1l-0.1-0.5h0.1l0.5,0.1c0,0,0,0,0.1,0c0,0,0,0,0-0.1c-0.1-0.2-0.2-0.3-0.3-0.5h0.3l0,0l0,0
		c0-0.1,0-0.2-0.1-0.3c0.1,0,0.1,0,0.2,0.1H60c0.1-0.1,0.2-0.2,0.4-0.2l0,0l0,0l0,0l0.1-1.2c0-0.2,0-0.3,0-0.5l0,0l0,0
		c0-0.2,0.1-0.3,0.3-0.4V62c-0.1-0.2-0.2-0.3-0.4-0.3c0-0.1,0.1-0.2,0.1-0.2l0,0l0,0c-0.3-0.1-0.4-0.4-0.7-0.7
		c-0.1-0.1-0.2-0.2-0.2-0.3c-0.2-0.2-0.4-0.4-0.8-0.5v-0.2v-0.1c-0.1-0.1-0.3-0.2-0.4-0.3c-0.1-0.1-0.2-0.2-0.4-0.3l0.1-0.2
		c0.1,0.1,0.2,0.1,0.3,0.2c0,0,0,0,0.1,0l0.2-0.3v-0.1c0-0.1,0-0.1-0.1-0.1l-0.3-0.3c0.1-0.1,0.1-0.1,0.1-0.2c0,0,0,0,0-0.1
		c-0.1-0.1-0.2-0.2-0.3-0.2s-0.3,0-0.3,0.1l0,0l0,0l0,0c-0.2-0.1-0.3-0.2-0.3-0.3c-0.1-0.1-0.1-0.3,0-0.4v-0.1
		c-0.1,0-0.2-0.1-0.2-0.1s0,0-0.1,0C57.3,56.4,57.3,56.4,57.3,56.4z"/>
	<path class="st1" d="M63.4,57.9C63.4,58,63.4,58,63.4,57.9c-0.1,0.2-0.1,0.4-0.2,0.5c-0.1,0.1-0.1,0.3-0.3,0.3h-0.1
		c-0.1,0-0.1,0.1-0.1,0.1c-0.1,0.1-0.4,0.1-0.7,0s-0.3-0.2-0.2-0.4c0-0.2,0.1-0.3,0.2-0.5c0.1-0.1,0.2-0.1,0.3-0.2
		c0.1,0,0.3-0.1,0.4-0.1c0.2,0,0.3,0.1,0.5,0h0.1C63.4,57.8,63.4,57.8,63.4,57.9z"/>
	<path class="st1" d="M8.5,43.9c-0.1,0.1-0.3-0.1-0.4-0.1c-0.2-0.1-0.5,0-0.8,0.2c-0.2,0.2-0.4,0.4-0.8,0.4c-0.1,0-0.1,0-0.2,0
		c-0.3,0-0.3-0.2-0.4-0.5c-0.2-0.3-0.8-0.3-1.2-0.2c0.1,0.1,0.1,0.3,0,0.4c-0.2,0-0.4,0-0.7,0c-0.1,0-0.2,0-0.3-0.1l-0.1-0.1
		c-0.2-0.2-0.5-0.2-0.9-0.1c0.1-0.1,0.1-0.2,0.1-0.2c-0.2,0.1-0.4,0.1-0.5,0c0-0.1,0.1-0.1,0.1-0.2c0-0.2-0.1-0.3-0.1-0.4
		c0.1,0,0.1-0.2,0-0.3S2.1,42.6,2,42.6c-0.1,0-0.2-0.2-0.2-0.3c0.1,0,0.2,0,0.3,0c-0.1-0.1,0-0.3,0-0.5S2,41.1,1.7,41l-0.1-0.1
		c-0.1-0.1,0-0.3,0.1-0.4c0.1-0.1,0.3-0.1,0.4-0.1c-0.1-0.2-0.4-0.1-0.5-0.2c-0.1-0.1-0.1-0.3,0-0.5C1.7,39.4,2,39.2,2,39
		c0-0.1,0-0.1,0-0.2c0-0.1,0.2-0.2,0.3-0.2c0.2,0,0.5-0.1,0.8,0.1c0.1,0.1,0.2,0.3,0.3,0.4c0.3,0.3,0.9,0.3,1.3,0.3
		c0.2,0,0.3-0.1,0.5-0.1c0.5-0.2,1-0.8,1.5-0.7c0.3-0.2,0.5-0.1,1,0.1c0.3,0.1,0.7,0.3,1,0.5c0.8,0.3,1.8,0.4,2.6,0.4
		c0.3,0,0.7,0,0.9-0.1c0.1,0,0.2-0.1,0.2-0.2l0,0c0.3,0,0.7-0.1,0.9-0.2c0.2-0.1,0.3,0,0.4,0.1c0.1,0.1,0.2,0.3,0.3,0.5
		c0,0.1,0,0.1,0,0.2V40c0,0,0,0,0,0.1s0,0.2,0,0.3l0,0l0,0c0.2,0,0.4,0,0.5,0.1c0,0,0.1,0.1,0.1,0.2h-0.1h-0.1v0.1
		c0,0.1,0,0.1,0,0.2c-0.1,0-0.1,0-0.2,0l0,0l0,0c0.1,0.3,0.1,0.7,0.2,1.1l-0.1,0.3l0,0c0.1,0.1,0.1,0.2,0.2,0.3l0.1,0.3l-0.2,0.1
		v-0.2c0,0,0-0.1-0.1-0.1h-0.1h-0.8c-0.1,0-0.2,0-0.3,0c0,0,0,0-0.1,0h0.1l0,0c-0.2,0-0.3,0.1-0.4,0.1S12.5,43,12.5,43
		c-0.1,0-0.2,0-0.3,0s-0.1,0-0.2,0c-0.2,0-0.4,0.1-0.5,0.2c-0.1,0-0.1,0-0.2,0.1c-0.3,0.1-0.5,0.1-0.7,0.1c0,0-0.1,0-0.1-0.1
		c-0.1-0.1-0.3-0.1-0.4-0.1L10,43.7c0,0,0,0-0.1,0.1s-0.4,0-0.5-0.1l-0.1-0.1v0.1c0,0.3-0.1,0.7-0.3,0.9l0,0c0-0.1,0-0.2,0-0.3
		c0-0.2,0.1-0.3,0.1-0.5c0-0.1-0.1-0.1-0.2,0C8.6,43.8,8.6,43.8,8.5,43.9z"/>
	<path class="st1" d="M11,46.6c-0.7,0.3-1.3,0.7-1.9,1.1c-0.2-0.1-0.3-0.1-0.5-0.2c-0.1-0.3,0-0.7,0.2-0.9l0,0
		c0.1-0.2,0.1-0.2,0.1-0.3C9,46,9,45.8,8.8,45.6l0,0H8.6c0-0.2,0-0.5,0-0.8v-0.2l0,0c0.2-0.2,0.3-0.4,0.3-0.8
		c0.2,0.1,0.5,0.2,0.8,0.1c0,0,0.1,0,0.1-0.1l0.1-0.1c0.1,0,0.2,0,0.3,0.1c0.1,0,0.1,0.1,0.2,0.1c0.2,0.1,0.4,0.1,0.8-0.1
		c0.1,0,0.1,0,0.2-0.1c0.2-0.1,0.3-0.1,0.5-0.2c0.1,0,0.1,0,0.2,0s0.2,0,0.3,0s0.2-0.1,0.3-0.1c0.1-0.1,0.2-0.1,0.3-0.1v0.1
		c-0.1,0-0.1,0.1-0.2,0.1l-0.5,0.4L12.2,44c0,0.1,0,0.2,0,0.3c0,0,0,0,0,0.1c0.1,0.2,0,0.4-0.1,0.7L12,45.6c0,0.1,0,0.1-0.1,0.2
		l-0.1,0.1C11.6,46.1,11.3,46.4,11,46.6z"/>
	<path class="st1" d="M22.9,57.4c0,0.1-0.1,0.2-0.1,0.2S22.8,57.5,22.9,57.4c0-0.1,0-0.2,0.1-0.3l0,0C23,57.1,22.9,57.4,22.9,57.4z
		 M23,57c0.1-0.2,0.1-0.4,0.2-0.7c0,0,0,0,0,0.1S23.1,56.8,23,57z"/>
	<path class="st1" d="M25.6,56.6c-0.4,0.4-0.8,1-0.8,1.6c0,0.1,0,0.3-0.1,0.3c-0.1,0.1-0.2,0-0.3,0c-0.4,0.1-0.4,0.8-0.9,0.9
		c-0.2,0-0.3-0.1-0.5,0s-0.2,0.3-0.2,0.5c-0.4-0.2-0.9,0.2-1.4,0.3c-0.2-0.7-0.5-1.3-1-1.9c0.5-0.2,1.2-0.3,1.8-0.7
		c-0.5,0.2-1.2,0.4-1.8,0.5c0,0,0,0,0,0.1c-0.7,0.2-1.4,0.3-2.1,0.4c-0.1,0-0.2,0-0.3,0.1c-0.1,0-0.2,0.1-0.2,0.2
		c-0.1,0.1-0.1,0.1-0.2,0.2c-0.2,0.2-0.7,0.7-0.8,1c-0.2-0.3-0.7-0.2-1-0.2c-0.5-0.1-0.9-0.3-1.3-0.1c0.1,0.5,0.1,1.1-0.2,0.3v-0.3
		l-0.1,0.3L14,60.7l-0.1,0.1l-0.3-0.1c-0.2-0.3-0.4-0.9-0.7-1.2c-0.2-0.3-0.4-0.8-0.7-1.1c-0.4-0.4-1-0.8-1.2-1.2s-0.2-0.9-0.2-1.4
		c0.1,0,0.1,0,0.1-0.1s0-0.1-0.1-0.2c-0.2-0.3-0.4-0.8-0.9-1c-0.1,0-0.2-0.1-0.2-0.1c-0.1-0.1-0.1-0.3-0.1-0.4
		c-0.1-0.4-0.4-0.7-0.7-1c-0.3-0.4-0.4-1.2-1-1.4c-0.1,0-0.2-0.1-0.2-0.2c0-0.1,0-0.2,0-0.3c0.1-0.2,0-0.8,0-1C8,50,8.2,50,8.6,50.1
		h0.1V50c0.1-0.3,0.3-0.5,0.7-0.7c0,0,0,0,0.1,0s0.1,0,0.2,0s-0.3,0-0.2,0c0-0.1,0.1-0.1,0.2-0.1h0.1v-0.1c-0.2-0.2-0.2-0.5-0.4-0.8
		c0.4-0.2,1-0.5,1.5-0.8l0,0h-0.1c-0.4-0.3,0.1,0,0.1,0c0.4,0,1.3,0.4,1.9,0.8c0.2,0.2,0.5,0.3,0.8,0.5c0.2,0.2,0.4,0.3,0.8,0.5
		c0.1,0.1,0.2,0.1,0.2,0.1c0.3,0.2,0.7,0.4,0.9,0.8l0,0l0,0c0.4-0.1,0.9-0.1,1.3,0h0.1l0,0c0.2,0,0.3,0.1,0.5,0.2
		c0,0.1,0,0.2,0.1,0.3l0,0l0.3-0.3H18l0,0l0.1,0.1c0.1,0.1,0.2,0.3,0.2,0.4c0,0,0,0.1,0,0.2c0.1,0.1,0.2,0.1,0.3,0.1
		c0,0.3,0.3,0.5,0.7,0.5c-0.1,0.5,0.2,1.1,0.4,1.5c-0.1-0.3,0.1-0.8,0.3-1c0.2,0.1,0.3,0.4,0.3,0.7c0,0.2,0,0.5,0.1,0.8
		c0.1,0.2,0.4,0.3,0.7,0.2c0.1-0.1,0.1-0.1,0.2-0.2c0.2-0.1,0.5,0.2,0.8,0.1c0.1,0,0.2-0.1,0.2-0.2c0.4-0.4,0.9-0.9,1.3-1.3
		c-0.1,0.5,0.1,1.1,0.4,1.4c0.3,0.3,1,0.5,1.4,0.4c0,0.4,0.2,0.9,0.5,1.1C26.2,56.2,25.8,56.4,25.6,56.6z"/>
	<path class="st1" d="M22.2,57.9c-0.5,0.2-1.2,0.4-1.8,0.7c0,0,0,0,0-0.1C21,58.4,21.5,58.1,22.2,57.9z"/>
	<path class="st1" d="M23,57c0,0.1-0.1,0.2-0.1,0.3s-0.1,0.2-0.1,0.2c0.1-0.1,0.1-0.2,0.1-0.3C22.9,57.3,22.9,57.1,23,57L23,57z"/>
	<path class="st1" d="M20.3,58.5c0.3,0.7,0.7,1.3,1,2c-0.2,0-0.4,0-0.7,0.1c-0.1,0.1-0.1,0.2-0.2,0.3c-0.4,0.8-1.6,0.4-2.1,1.1
		c-0.1,0.1-0.2,0.3-0.3,0.4c-0.2,0.2-0.7,0-1,0c-0.2,0-0.3,0.1-0.4,0.2c-0.5,0.4-1.3,0.5-2.1,0.7c-0.1,0-0.2,0-0.2,0
		c-0.1,0-0.1-0.1-0.1-0.2c-0.1-0.3-0.1-0.8-0.2-1.1c-0.1-0.5-0.2-1-0.4-1.4l0.3-0.1c0,0,0.1,0,0.1-0.1c0,0,0.1-0.1,0.1-0.2l0.1-0.5
		c0,0,0,0.1,0.1,0.1v0.1h0.1c0.4-0.2,0.9-0.2,1.4-0.1c0.3,0,0.8,0.1,1,0.4l0.1,0.1v-0.1c0.1-0.3,0.4-0.5,0.7-0.9
		c0.1-0.1,0.1-0.1,0.2-0.2c0.1-0.1,0.1-0.1,0.2-0.2c0.1,0,0.2,0,0.2-0.1C18.9,58.8,19.7,58.7,20.3,58.5z"/>
	<path class="st1" d="M11,47.7c0-0.3-0.1-0.7-0.2-1c0,0,0.1,0,0.1-0.1c0.3-0.2,0.1-0.5,0.4-0.8c0.1,0,0.1-0.1,0.2-0.1
		c0-0.1,0.7,0,0.8-0.1l0.2-0.5c0.1-0.2,0.2-0.5,0.1-0.8c0,0,0,0,0-0.1s-0.1-0.1,0-0.2c0,0,0-0.1,0.1-0.1l0.5-0.4
		c0.1-0.1,0.2-0.2,0.3-0.2s0.2,0,0.3,0h0.8l0,0l0,0l0.1,0.3l0.4-0.1l0.1,0.3c0,0.1,0,0.1,0.1,0.2c0,0,0,0,0.1,0.1l0,0
		c0.1,0.1,0.1,0.1,0,0.2v0.1h0.1h0.1v0.1v0.1h0.1c0.1,0,0.2,0,0.2,0l0.1,0.1l0.1,0.2l0,0l0,0C16,45,16,45.2,15.9,45.4v0.1v0.1l0,0
		l0,0c-0.1,0-0.2,0.1-0.2,0.2c0,0.1,0,0.2,0,0.3s0.1,0.1,0.2,0.2l0.1,0.1c0.1,0.1,0.1,0.3,0.1,0.4V47h0.1c0.2,0.1,0.5,0.2,0.8,0.3
		c0.1,0,0.1,0.1,0.2,0.1l0.1,0.1l0.2,0.3c0,0,0,0.1,0.1,0.1V48l-0.1,0.3l-0.3,0.1l0.7,0.3l0,0c0,0,0,0,0,0.1l-10-6.4l6-3.8
		c6.3-2.1,4.3,10.7,4.3,10.7L18,49.6c0,0-0.1,0-0.1-0.1c-0.1,0-0.1-0.1-0.2-0.1s-0.2,0-0.3,0c0,0,0,0-0.1,0c0,0,0,0,0,0.1
		s-0.1,0.2-0.2,0.3S16.9,50,16.8,50c-0.4-0.1-0.9-0.1-1.3,0c-0.2-0.3-0.5-0.5-0.9-0.8c-0.1,0-0.2-0.1-0.2-0.1
		c-0.2-0.1-0.4-0.3-0.7-0.5S13.3,48.2,13,48C12.1,47.9,11.5,47.7,11,47.7z"/>
	<path class="st1" d="M80.7,32.5c0,0.1,0,0.1,0,0.2c0,0.1-0.1,0.2-0.1,0.3c-0.7,0.8-0.4,2-1.1,2.7c-0.2-0.2-0.4-0.5-0.8-0.4
		c0,0-0.1,0-0.1,0.1c-0.2,0.1-0.4,0.3-0.5,0.7c0,0.2,0.1,0.5,0.1,0.8c0.1,0.2,0.1,0.5,0,0.8c-0.2,0.2-0.3,0.4-0.5,0.5
		c-0.1-0.1-0.3-0.2-0.3-0.3v-0.1l-0.1,0.1c-0.1,0.2-0.2,0.3-0.3,0.5c-0.3,0.2-0.7,0.3-1,0.3h-0.1l0.1,0.7c-0.2,0-0.4,0-0.7-0.2V39
		l0,0c-0.1-0.1-0.3,0-0.4,0.1c0,0.1-0.1,0.1-0.1,0.2c0,0,0,0.1-0.1,0.1c0,0.1-0.1,0.1-0.1,0.2c-0.1,0.1-0.1,0.1-0.2,0.2l0,0
		c-0.1,0-0.2,0.1-0.3,0.1c-0.3,0.3-0.8,0.8-1.1,1.1c-0.3,0-0.7,0-0.9,0.2c-0.3,0.2-0.7,0.8-1.1,0.7c0.2-0.1,0.2-0.4,0.2-0.8
		c0-0.2,0.2-0.3,0.3-0.5c0.1-0.2,0-0.5-0.2-0.5c-0.3-0.1-0.4,0.3-0.7,0.5c-0.2,0.1-0.4,0.1-0.7,0.2c-0.4,0.2-0.4,1-0.9,1
		c-0.1,0-0.2,0-0.3,0s-0.2,0.2-0.1,0.3c0,0.2,0.1,0.4,0.3,0.4c0.1,0,0.3,0,0.3,0.1v0.1c0,0.1,0,0.3,0.1,0.3c0.1,0.1,0.1,0.1,0.2,0.1
		c0.2,0.1,0.5,0.1,0.8,0c0.1-0.1,0.2-0.3,0.4-0.4c0.1,0,0.2,0,0.3,0.1c0.3,0.1,0.7,0.3,1,0.4c-0.1,0.3-0.5,0.3-0.9,0.4
		c-0.3,0.1-0.5,0.3-0.5,0.7c-0.2-0.1-0.4,0.1-0.5,0.3s-0.2,0.3-0.3,0.5c0,0.1-0.1,0.1-0.1,0.2c0,0.1,0.1,0.1,0.2,0.2
		c0.4,0.2,0.8,0.5,0.9,1c0,0.2,0.1,0.3,0.1,0.5c0.1,0.2,0.3,0.4,0.5,0.5c0.2,0.2,0.2,0.5,0.1,0.9l0.1,0.1c-0.1,0.1-0.1,0.2-0.2,0.3
		c0,0,0,0,0,0.1c0,0,0,0.1,0.1,0.1h0.1c0.1,0,0.2,0.2,0.1,0.3c0,0.1-0.1,0.1-0.2,0.1c0,0.1-0.1,0.1,0,0.2c0,0,0,0,0.1,0.1
		c0,0,0,0,0,0.1s0,0.1-0.1,0.1s-0.1,0.1-0.1,0.2c0,0.1,0,0.2,0,0.3c-0.1,0.2-0.2,0.3-0.4,0.4c-0.2,0.1-0.3,0.2-0.3,0.4V52
		c0,0.1-0.1,0.2-0.2,0.2c0.1,0.1,0,0.3-0.2,0.3c0.1,0.1-0.1,0.3-0.2,0.4c-0.1,0.2,0,0.4-0.1,0.5c0,0.1-0.1,0.2-0.2,0.2
		c0,0-0.1,0-0.1-0.1c-0.1,0-0.1,0-0.2,0.1c0,0.1,0,0.1,0,0.2c-0.2,0.1-0.3,0.2-0.5,0.3c-0.3,0.3-0.7,0.7-1,1c0,0.2-0.1,0.3-0.1,0.5
		c-0.3,0-0.8,0-1.1,0.1c-0.1,0-0.3,0-0.4,0.1c-0.2,0.1-0.3,0.2-0.4,0.3c-0.1,0-0.1,0-0.2,0c-0.8,0.1-1.4,0.3-2.1,0.5
		c-0.1,0-0.1,0-0.2,0.1c0,0.1-0.1,0.1-0.1,0.2c0,0.2-0.1,0.4-0.1,0.7c-0.1,0-0.3,0-0.4,0c0-0.2,0-0.4,0-0.7c0-0.2-0.2-0.4-0.3-0.4
		c-0.2-0.1-0.5,0-0.8,0.1l0,0c-0.1-0.1-0.3-0.2-0.5-0.2l0,0h-0.1c0,0-0.1,0-0.1-0.1L60.8,56l-0.1-0.1c0-0.1,0-0.1,0.2-0.2
		c0,0,0,0,0-0.1l0,0c-0.3-0.1-0.7-0.2-0.9-0.3h-0.1c-0.1,0-0.2,0-0.2,0.1c-0.2,0.2-0.5,0.3-0.9,0.5l-0.1-0.2l0,0l0,0L58.1,56
		L58,55.9v0.2c0,0.1-0.3,0-0.4,0c-0.1,0-0.1-0.2-0.1-0.3c0,0,0,0-0.1,0c0,0,0,0-0.1,0c-0.1,0.1-0.1,0.2-0.2,0.3l0,0l0,0
		c0,0,0,0,0,0.1c0,0-0.1,0-0.1,0.1c0.1,0.2,0.2,0.4,0.4,0.5l0,0l0,0c0,0,0.1-0.1,0.1-0.2h0.1c-0.1,0.1,0,0.3,0,0.5
		c0.1,0.2,0.3,0.3,0.4,0.3h0.1c0.1,0,0.1,0,0.1-0.1l0,0c0.1-0.1,0.1-0.1,0.2-0.1c0.1,0,0.2,0,0.2,0.1s-0.1,0.1-0.1,0.2l0,0l0,0
		l0.3,0.3l0,0l0,0L58.6,58c-0.1,0-0.2-0.1-0.3-0.2l0,0l0,0l-0.2,0.3v0.1c0.1,0.1,0.3,0.2,0.4,0.3c0.1,0.1,0.2,0.2,0.4,0.3L58.8,59
		v0.1c0.3,0.1,0.5,0.3,0.8,0.5c0.1,0.1,0.2,0.2,0.2,0.3c0.2,0.2,0.3,0.5,0.7,0.7c-0.1,0.1-0.1,0.2-0.1,0.3c0,0,0,0,0,0.1l0,0
		c0.1,0,0.3,0.1,0.4,0.2c-0.1,0.1-0.2,0.2-0.3,0.4c0,0,0,0-0.1,0L60,62.3l-0.1-0.2c0,0,0,0-0.1,0h-0.1c0,0,0,0-0.1,0s-0.2,0-0.2,0.1
		v0.1c0.1,0.1,0.2,0.2,0.2,0.3h-0.1c-0.1-0.1-0.3-0.2-0.5-0.3c0.1-0.1,0.2-0.2,0.2-0.3s0-0.2,0-0.3c0-0.2-0.1-0.5-0.2-0.7
		c0,0,0,0-0.1-0.1s-0.2-0.1-0.1-0.2c0,0,0,0,0-0.1l0,0c0.1-0.2,0.1-0.4,0-0.5c-0.1-0.3-0.3-0.5-0.7-0.7c-0.3-0.1-0.7,0.1-0.8,0.3
		c-0.1,0.1-0.1,0.1-0.1,0.1l0,0c-0.1-0.2-0.2-0.3-0.4-0.4c0,0-0.1-0.1-0.2-0.1c-0.2,0-0.3,0.1-0.4,0.2c-0.1,0.1-0.1,0.2-0.2,0.2l0,0
		l0,0c0-0.1,0.1-0.2,0.1-0.3c0,0,0-0.1,0.1-0.1c0-0.1,0.2-0.4,0.1-0.8c0,0,0,0-0.1,0H56c-0.1,0-0.3,0.1-0.3,0l0,0c0-0.2,0-0.3,0-0.5
		c0,0,0,0,0-0.1h-0.1v-0.1c0,0,0,0,0-0.1c0,0,0,0,0.1,0h0.1c0.1,0,0.2-0.2,0.2-0.5h-0.1c0,0.3-0.1,0.4-0.1,0.4s0,0-0.1,0
		c0,0-0.1,0-0.2,0.1v0.1v0.1l-0.1-0.1l0,0c0,0.1-0.1,0.1-0.2,0.1c0,0,0,0-0.1,0H55c-0.2,0-0.3,0.2-0.3,0.3c-0.2,0-0.3,0-0.5,0h-0.1
		v0.7V59c0,0,0,0-0.1,0h-0.7v0.1c0.1,0.3,0.2,0.7,0.4,1c0,0,0,0.1,0.1,0.1c0.1,0.1,0.1,0.1,0.1,0.2c0.1,0.2,0.1,0.4,0.1,0.7
		c0,0.1,0,0.2,0,0.2v0.1c0,0,0,0.1-0.1,0.1c-0.1,0.1,0,0.3,0.1,0.5c0,0.1,0.1,0.1,0.1,0.2c0.1,0.1,0.1,0.1,0.1,0.2
		c0.1,0.2,0.1,0.4,0,0.7v0.1h0.1c0.1,0,0.2,0.1,0.2,0.1c0,0.1,0,0.2,0.1,0.3v0.1c0,0.2,0.1,0.4,0.1,0.7H55c-0.1,0.2-0.1,0.4-0.2,0.5
		c-0.1,0.4,0,0.8,0.2,1.1c0.1,0.1,0.2,0.2,0.2,0.3c0.2,0.2,0.3,0.5,0.4,0.9c0,0.1,0,0.2,0.1,0.3c0.1,0.1,0.3,0.1,0.4,0.2
		c0.4,0.1,0.8,0.4,1.1,0.8c0.3,0.3,0.5,0.7,0.5,1.1c0,0.2-0.1,0.4-0.1,0.7s0.1,0.4,0.2,0.7c0.1,0.2,0.3,0.4,0.3,0.7
		c0.1,0.2,0,0.5-0.2,0.7c-0.3-0.3-0.7-0.8-1.1-1c-0.1-0.1-0.3-0.1-0.4-0.2c-0.1-0.1-0.2-0.2-0.2-0.4c0-0.1,0-0.3-0.1-0.3
		s-0.2,0.1-0.3,0v-0.1c-0.1-0.7-0.4-1.3-0.7-1.9c-0.2-0.4-0.4-1.1-0.9-1.2c0-0.2-0.1-0.3-0.1-0.5C54,66.6,54,66.5,54,66.3
		c0-0.4,0-0.8,0.1-1.2c0-0.2,0.1-0.4,0-0.7c0-0.1-0.1-0.2-0.1-0.3c0-0.1,0.1-0.2,0.1-0.3c0.1-0.4-0.3-0.8-0.4-1.1
		c-0.1-0.4-0.2-0.8-0.2-1.2c0-0.1,0-0.2-0.1-0.3c-0.1-0.2-0.3-0.3-0.3-0.5c0-0.1,0-0.1,0-0.2c0-0.1-0.1-0.1-0.2,0v0.1
		c0,0.1,0,0.3-0.1,0.4c-0.1,0.1-0.1,0.1-0.2,0.1c-0.3,0.1-0.5,0.4-0.9,0.5c-0.2,0.1-0.3,0-0.5-0.2L51,61.1c0,0,0-0.1,0-0.2
		c0-0.2,0.1-0.3,0.1-0.5c0.1-0.4,0-0.9-0.3-1.2c-0.2-0.2-0.4-0.3-0.5-0.7c-0.1-0.2-0.1-0.4-0.2-0.5c-0.1-0.1-0.1-0.1-0.2-0.2
		c-0.2-0.1-0.3-0.3-0.4-0.5c0,0,0-0.1,0.1-0.1c0.1,0.1,0.1,0.1,0.2,0.1l0.2,0.1l-0.1-0.1c0-0.1-0.1-0.2,0-0.3c0-0.1,0.1-0.2,0.2-0.2
		l0,0c0.1,0,0.1,0,0.1-0.1s0-0.1,0-0.2c0-0.1,0-0.1,0-0.2c0-0.2,0-0.3,0-0.5c0-0.1,0.1-0.2,0.1-0.3c0.1-0.2,0.3-0.2,0.5-0.2
		l-0.7-0.8l0.8,0.7c0-0.2,0.1-0.3,0.2-0.4c0,0,0-0.1,0.1-0.1c0.1-0.2,0.2-0.5,0-0.7c0.1-0.1,0.2-0.3,0.3-0.4v-0.1c0-0.1,0-0.1,0-0.1
		c0-0.1,0.1-0.1,0.2-0.2c0.1-0.1,0.3-0.2,0.4-0.2c0.2,0,0.3,0,0.5,0.1l0.1,0.1L52.6,53c0-0.1,0-0.3,0.1-0.4c0.3,0.7,0.9,0.9,0.9,0.9
		c0,0.1-0.5,0.7-0.5,0.8c0.1,0.3,1.2,1.8-1-1.3c-0.1-0.1,0.5,0.3,0.3,0.4c-0.1,0.1-0.1,0.1-0.2,0.2c0,0.1,0.1,0.1,0.1,0.1l-0.2,0.1
		c0,0.2-0.2,0.2-0.3,0.4l0.1,0.1l0.4,0.1c0.1,0.1-1.3,0.2-1.4,0.4c0,0,0,0.1-0.1,0.1c-0.1,0.1-0.2,0.3-0.2,0.4c-0.2,0-0.4,0-0.7,0.2
		c-0.1,0.1-0.1,0.2-0.1,0.3c0,0.2,0,0.4,0,0.5s0,0.1,0,0.2v0.1l0,0L49.7,56c0-0.1-0.1-0.1-0.1-0.2c-0.1-0.1-0.1-0.2-0.1-0.4
		c0-0.1,0-0.2,0-0.3l0,0l0,0c-0.1-0.1-0.2,0-0.3,0.1C49,55.3,49,55.4,49,55.5v0.1l-0.1-0.1c-0.1-0.1-0.1-0.2-0.1-0.3
		c0-0.2,0.2-0.3,0.3-0.3l0.5-0.2l0.1-0.5h-0.1c-0.5,0-1.2,0-1.9,0c-0.1-0.2-0.1-0.5-0.1-0.9l0,0l0,0c-0.1,0-0.2,0-0.2,0l0,0l0,0
		h-0.1c-0.2-0.1-0.4-0.1-0.7-0.1l0,0l0.1,0.4v0.1c0.1,0,0,0.1,0.1,0.2h-0.2l0.1,0.2l1.2,1.5l-1.6-1l0.5,0.1c0,0.3,0,0.5,0,0.9v0.1
		h0.3c0,0.3,0,0.7,0,1h0.1v-0.4l-1.3-0.5l1-0.8c0-0.2-2.7,0-2.6-0.2l2.9-0.4l-0.7-0.2l0.1-0.4l0.3,0.1v-0.3h0.4l-0.1-0.1
		c-0.1-0.1-0.3-0.3-0.5-0.3l0.2-0.3c0.2,0,0.4,0,0.5,0.1c0,0,0.1,0.1,0.2,0l0,0l0,0c0,0,0,0,0.1,0c0,0.3,0,0.5,0.1,0.9l0,0l0,0
		c0.5,0,1.2,0,1.8,0v0.4l-0.4,0.2c-0.2,0.1-0.4,0.2-0.4,0.4c0,0.1,0.1,0.3,0.1,0.4c0.1,0.1,0.1,0.2,0.1,0.3l0,0h0.1l0,0l0.1-0.4
		c0-0.1,0.1-0.2,0.1-0.2s-0.2,0.7-0.1,0.7c0,0.1-1.9-1-1.9-1c0,0.1-1.5-3-1.4-2.7c0,0.1,3.3,1.1,3.3,1.2l2.7-0.9l0,0
		c-0.1,0.1-1.1,4.4-1.2,4.6c0,0.1-0.5,0.2-0.5,0.2L50.1,57h-0.3l-0.2-0.2h-0.1c-0.1-0.1-0.2-0.4-0.2-0.5s0-0.2-0.1-0.3
		c-0.1-0.2-0.4-0.3-0.7-0.3c0.1,0.2,0,0.7-0.3,0.8c-0.2,0-0.4-0.1-0.5,0c-0.1,0-0.3,0.1-0.4,0.1c-0.1,0-0.3,0-0.4-0.1
		c0-0.1,0-0.2-0.1-0.2c0,0,0,0-0.1,0c-0.1,0.1-0.1,0.2-0.2,0.2c-0.1,0-0.3,0-0.4,0c-0.1,0-0.2,0.2-0.2,0.4s0,0.3,0,0.5
		c-0.1,0.3-0.4,0.4-0.7,0.5s-0.5,0.2-0.8,0.5c-0.1,0.1-0.1,0.2-0.1,0.3c-0.1,0.2-0.4,0.4-0.7,0.5c-0.2,0.2-0.5,0.4-0.8,0.5
		c-0.1,0-0.1,0.1-0.2,0.2c0,0.1,0,0.2-0.1,0.2c0,0.1-0.2,0.3-0.3,0.3s-0.1,0-0.1,0c-0.2,0-0.2,0.2-0.3,0.4c-0.1,0-0.2,0-0.3-0.1
		c-0.3,0.1-0.4,0.4-0.4,0.8c0,0.3,0.1,0.7,0.1,1s0,0.7-0.2,0.9c-0.1,0.1-0.1,0.1-0.2,0.2c-0.1,0.2,0,0.4,0,0.7s0,0.5-0.1,0.7
		s-0.2,0.1-0.3,0.1c-0.1,0.1-0.1,0.4-0.2,0.7c0,0.3-0.2,0.3-0.2,0.4s0,0.1,0,0.2s-0.2,0.2-0.3,0.2s-0.2,0.1-0.3,0.1s-0.2,0-0.2,0
		l-0.1-0.1c-0.2-0.7-0.5-1.4-0.8-2.1c-0.1-0.2-0.1-0.4-0.3-0.5c-0.1-0.1-0.2-0.2-0.3-0.3c-0.1-0.2-0.2-0.4-0.2-0.7
		c-0.1-0.2,0-0.7-0.1-0.9c-0.2-0.3-0.3-0.7-0.5-1s-0.3-0.7-0.3-1.1c0-0.1,0-0.2,0-0.3S36,59.5,36,59.5c-0.2-0.3-0.2-0.9-0.3-1.2
		c0-0.1-0.1-0.3-0.1-0.4c0-0.1,0-0.1,0-0.2c0-0.1,0-0.1,0-0.2c0-0.1,0.1-0.3,0.1-0.4c0-0.4-0.1-0.9-0.2-1.2c-0.1,0-0.2,0.2-0.2,0.3
		c0,0.3-0.1,0.7-0.3,0.9s-0.7,0.3-0.9,0.1c-0.3-0.2-0.4-0.8-0.8-1c-0.1-0.1-0.4-0.2-0.3-0.3c0.2,0,0.4,0,0.8,0
		c0.1,0,0.2-0.1,0.2-0.2c-0.5,0-1-0.4-1.5-0.7c-0.2-0.1-0.4-0.1-0.5-0.3c-0.1-0.1-0.1-0.2-0.1-0.3c-0.1-0.2-0.3-0.4-0.5-0.4
		c0.2,0,0.2-0.3,0-0.4c-0.1-0.1-0.3-0.1-0.5-0.1c-0.9,0.1-1.6,0-2.4,0.3c-0.1,0.1-0.3,0.1-0.4,0H28l0,0c-0.2,0-0.4-0.1-0.7-0.2
		c-0.2,0-0.4,0-0.5-0.1c-0.5,0-1.2-0.2-1.8-0.3c-0.1,0-0.2-0.1-0.3-0.2c-0.2-0.2,0-0.7-0.2-0.8c-0.1-0.1-0.2,0-0.3,0
		c-0.3,0.1-0.7,0.2-0.9,0.4c-0.1,0.1-0.2,0.1-0.3,0.1c-0.1,0-0.2-0.1-0.4-0.2c-0.2-0.1-0.4-0.1-0.5-0.2c-0.2-0.1-0.4-0.4-0.7-0.5
		c-0.2-0.1-0.4-0.2-0.7-0.3c-0.3-0.2-0.4-0.7-0.7-1.1c-0.1-0.4-0.4-0.9-0.8-0.9c-0.2,0-0.5,0.1-0.7,0.3c0,0,0,0.1-0.1,0.1
		c-0.1-0.1-0.1-0.1-0.2-0.2v-0.2V49l-0.1-0.1l-0.3-0.1h0.1l0.1-0.4v-0.1c0-0.1,0-0.1-0.1-0.2l-0.2-0.3c0-0.1-0.1-0.1-0.1-0.2
		c-0.1-0.1-0.1-0.1-0.2-0.1c-0.2-0.1-0.5-0.2-0.8-0.3c0-0.2,0-0.3-0.1-0.5l-0.1-0.1c-0.1-0.1-0.1-0.1-0.2-0.2c0-0.1,0-0.1,0-0.2
		c0-0.1,0.1-0.1,0.1-0.2l0,0h0.1l0.1-0.1v-0.1c0-0.1,0-0.2,0.1-0.3c0,0,0.1,0,0.1-0.1v-0.1l-0.1-0.1l0.3-0.2h-0.2
		c-0.1,0-0.2,0-0.4,0c0,0,0-0.1-0.1-0.1l-0.1-0.1c0-0.1,0-0.2-0.1-0.3c0,0,0,0-0.1-0.1l0,0l-0.1-0.1l-0.2-0.8c0-0.1-0.1-0.2-0.2-0.3
		l0.1-0.2l0,0c-0.1-0.3-0.1-0.7-0.2-1h0.1h0.1v-0.1c0-0.1,0-0.2,0-0.2h0.1l0,0c0.1,0.3,0.3,0.7,0.7,0.8c0.1,0,0.2,0,0.3,0
		c0.1,0,0.1,0,0.2,0l0,0h0.1c0.1,0,0.1-0.1,0.2-0.1l0.8-0.5l0.1,0.2l0,0c0,0.1,0,0.1,0,0.2l0,0v0.1c0,0,0,0-0.1,0.1l-0.1,0.1v0.1
		c0.1,0.2,0.3,0.4,0.5,0.4l0,0V43c-0.2,0-0.3-0.1-0.4-0.3l0,0c0,0,0,0,0.1,0l0.1-0.1c0-0.1,0-0.1,0-0.2l0,0v-0.1h0.1L18,41.9
		l-0.9,0.3L17,42.3l-0.1-0.4c0,0,0-0.1,0-0.2c0-0.1-0.1-0.1-0.1-0.2c0,0,0,0-0.1,0l0,0c-0.1,0-0.2-0.1-0.2-0.1H16c0,0,0.1,0,0.1-0.1
		s0-0.1,0-0.2c0-0.1-0.1-0.1-0.2-0.1h-0.1c-0.1,0-0.1,0-0.1-0.1l-0.1-0.1l0.1-0.1l0,0l0,0v-0.1c0,0,0-0.1-0.1-0.1h-0.1
		c0-0.1-0.1-0.2-0.1-0.3c0.1,0,0.1,0,0.1-0.1c0,0,0,0,0.1,0l0,0l0.8,0.4l0.1-0.9c0.3,0.2,0.8,0.4,1.1,0.2c0.1,0,0.1-0.1,0.2-0.1
		c0.4-0.1,0.5,0.8,1,0.9c0.1,0,0.2,0,0.2,0.1c0.2,0.1,0,0.3-0.2,0.5c-0.5,0.4-1,1.2-0.9,2c0,0.1,0,0.2,0.1,0.3c0.2,0.2,0.8,0,1,0.3
		c0.1,0.1,0.1,0.2,0.1,0.3c0.2,0.4,0.9,0.3,1.3,0.2s1-0.3,1.4,0c0-0.1,0-0.2,0-0.3h-0.1l0.1-0.1l0,0c-0.1-0.9-0.3-1.8-0.4-2.6
		c-0.2,0.1-0.5-0.1-0.5-0.4c0.1-0.3,0.4-0.4,0.7-0.3c0.1,0,0.2,0.1,0.3,0.1c0.2,0,0.2-0.2,0.1-0.4c-0.1-0.1-0.2-0.2-0.3-0.3
		c-0.1-0.1-0.2-0.3-0.1-0.4l-0.4-0.7l1.4-0.2c0.3,0.3,0.5,0.7,0.8,1.1c0,0.1,0.1,0.1,0.1,0.1c0.1,0-0.4,0.5-0.3,0.4
		c-0.1,0-0.1,0-0.2,0l0,0l0,0c-0.1-0.4-0.2-0.9-0.5-1.2l0,0L20.8,39c0-0.2,0-0.5,0.1-0.8c0-0.1,0.1-0.1,0-0.2
		c-0.1-0.3-0.7-0.2-0.7-0.5c-0.1,0-0.2,0.1-0.3,0.1c0.1-0.3,0-0.7-0.2-0.9c-0.1-0.2-0.3-0.3-0.5-0.5c0.1-0.1,0.2-0.1,0.2-0.2
		c0.2,0.1,0.4,0.2,0.7,0.2c-0.1-0.1-0.2-0.2-0.2-0.4s0.2-0.4,0.5-0.4c0.2,0,0.4,0.1,0.7,0.2c0.2,0.1,0.5,0.1,0.7-0.1
		c-0.2,0.3-0.3,0.5-0.4,0.9c0.3-0.2,0.7-0.5,0.9-0.8c0.1-0.1,0.1-0.1,0.1-0.2c0-0.2-0.2-0.3-0.4-0.3c-0.2,0-0.4,0.1-0.5,0
		s-0.2-0.3-0.1-0.5c0-0.2,0-0.5-0.2-0.8c-0.2-0.2-0.7,0-0.5,0.2c-0.2-0.1-0.4-0.1-0.7-0.1c0-0.1-0.1-0.2-0.1-0.3
		c-0.4,0.1-0.8,0.4-0.9,0.9c0,0.1,0,0.2-0.1,0.3c0,0.1-0.1,0.2-0.2,0.1c0.1-0.1,0-0.4-0.2-0.4c-0.2-0.1-0.4-0.2-0.4-0.3
		c0-0.2,0.1-0.3,0.2-0.4c-0.2-0.4-0.5-0.9-1-0.9c0,0.1,0,0.1,0,0.2c-0.1,0.1-0.2,0-0.2-0.1s0-0.2,0-0.3c0.1-0.2-0.1-0.3-0.1-0.4
		c0-0.1,0.1-0.2,0.1-0.4c0.2-0.3,0.1-0.7,0-1c0.1,0,0.2-0.1,0.3-0.1c-0.1-0.2,0-0.4,0.1-0.5c0.3,0.2,0.5,0.4,1,0.5
		C18,30.2,18,30,18,29.6c0.2-0.1,0.4-0.2,0.7-0.3c-0.1-0.1,0-0.3,0.2-0.3s0.3-0.1,0.4-0.2s0.1-0.2,0.1-0.2c0.1-0.1,0.2-0.1,0.2-0.1
		c0-0.1,0-0.1,0-0.2c0.2,0.1,0.3,0.2,0.5,0.3c0.1,0.1,0.2,0,0.3,0c0.1-0.1,0.1-0.2,0.2-0.2c0.2,0,0.3,0.2,0.3,0.4
		c0.1-0.2,0.4-0.1,0.7,0.1c0.2,0.2,0.4,0.4,0.7,0.5l0.1-0.1c0.3,0.1,0.7,0.3,1,0.4c0.2-0.2,0.4-0.4,0.5-0.7c0.1,0.1,0.3,0.1,0.4,0
		c0.1,0.1,0.1,0.2,0.2,0.3c0.1-0.1,0.3-0.2,0.5-0.3h0.1l0.1,0.1c0,0.1,0.1,0.2,0.1,0.2s0,0,0,0.1c0,0,0,0,0.1,0s0.3,0.1,0.4,0.1v0.1
		c0.1-0.1,0.2-0.2,0.3-0.3c0.1-0.1,0.3-0.1,0.4,0s0.3,0.2,0.4,0.1c0.2,0,0.3-0.2,0.4-0.3c0.1-0.1,0.1-0.2,0.1-0.4
		c0-0.1-0.1-0.1-0.2-0.2c-0.2-0.1-0.5-0.2-0.8-0.2c0-0.1-0.1-0.3-0.2-0.3c0.3-0.1,0.5-0.3,0.8-0.5c-0.2-0.2-0.2-0.5-0.1-0.7
		c0.2,0,0.5-0.1,0.8-0.1c-0.1-0.2-0.4-0.3-0.7-0.2v-0.2c0.2,0,0.3-0.1,0.4-0.2c-0.2,0-0.4,0-0.7,0c0-0.1,0.1-0.2,0.2-0.2
		c-0.1,0-0.1-0.1,0-0.2s0.1-0.1,0.2-0.1c0,0,0,0.1,0.1,0.1c0.2,0,0.3,0,0.5-0.1c0.1,0.1,0.1,0.1,0.2,0.2c0-0.1,0-0.1,0-0.2
		c0.5,0,1.1-0.1,1.6-0.2c0.2-0.1,0.5-0.2,0.4-0.4c0.5-0.1,1.4-0.2,2-0.4l0,0l0,0c0-0.1,0-0.2,0-0.3c0.1,0,0.2,0,0.2,0
		c0.1,0,0.2,0,0.2-0.1v-0.1l0,0c0.1,0,0.2,0,0.3,0s0.3,0,0.4,0.1c0.1,0,0.1,0.1,0.2,0.2c0.1,0,0.2,0,0.2-0.1c0.1,0,0.1,0,0.2,0
		c0.1,0.1,0.1,0.1,0.1,0.2c0.1,0.2,0.3,0.4,0.2,0.7c0,0.1-0.1,0.3,0,0.4c0.1,0,0.3,0,0.4,0.1c0-0.1,0-0.2,0-0.2
		c0.1,0,0.2,0.1,0.3,0.1c0-0.1,0-0.2,0-0.3c0.2,0.1,0.2,0.3,0.2,0.5c0.1,0,0.1,0,0.2,0c0-0.1,0-0.1,0-0.2c0.2,0.2,0.4,0.3,0.8,0.2
		c-0.2,0.1-0.3,0.4-0.2,0.7c0.2-0.2,0.5-0.2,0.8-0.1c0-0.1,0-0.2,0.1-0.3c0.1-0.1,0.2-0.1,0.3-0.2c0.3-0.1,0.9-0.3,1.2-0.5
		c0,0.1-0.1,0.3-0.1,0.4l-0.1-0.1c0.1,0.2,0.3,0.5,0.5,0.8c0.1,0,0.1,0.1,0.2,0.1c0.1,0.1,0.1,0.1,0.1,0.2c0.4,1,1.1,2,1.8,3
		c0.2-0.2,0.3-0.4,0.3-0.7c0.2,0,0.4,0.2,0.3,0.4c0.1,0,0.3,0,0.3,0.1v0.1c0,0.1,0.2,0.1,0.3,0.1c0.2,0,0.4,0,0.4-0.1v-0.1h0.1
		c0.2,0,0.4-0.1,0.7,0c0.3,0.2,0.3,0.7,0.5,0.8c0.1,0,0.2,0.1,0.2,0.1c0.1,0.1,0.1,0.2,0.1,0.3C43.7,31,44,31,44.3,31
		c0.1,0,0.3-0.1,0.3-0.2c0.1,0.2,0.2,0.4,0.3,0.5l0,0l0.1,0.1l0,0l0,0h0.1c0,0,0.1,0,0.2-0.1l0,0h0.1c0.1,0,0.1-0.1,0.2-0.1
		c0.1-0.1,0.2-0.2,0.4-0.2c0.1,0,0.3,0,0.4,0v-0.1h-0.1c0.2-0.1,0.4-0.1,0.7-0.1c0-0.1,0-0.2,0-0.3c0.1,0,0.2,0,0.3,0
		c0-0.1,0.1-0.1,0.1-0.1c0.5-0.1,1-0.4,1.4-0.8c0.1-0.1,0.1-0.1,0.2-0.1c0.1,0,0.1,0.1,0.1,0.2s0.2,0.1,0.2,0v0.1
		c0.2,0,0.7-0.1,0.9,0.1c0.1,0.2,0.1,0.4,0.3,0.7c0.1,0.1,0.3,0.1,0.4,0.1c0.1,0,0.3,0,0.4-0.2c0.1,0.1,0.3,0.1,0.4,0.1
		c0.2,0,0.4-0.1,0.5,0.1c0.1,0.1,0.1,0.1,0.2,0.2c0-0.1,0-0.3,0-0.4c0.2,0.1,0.4,0,0.5-0.1c0.2-0.3-0.1-0.8-0.1-1.1
		c0-0.1,0-0.1,0-0.2s0.1-0.1,0.1-0.2c0.2-0.2,0.3-0.4,0.4-0.7c0.1,0,0.7-0.1,0.7-0.1c0,0.2,0,0.3,0.1,0.5c0.7-0.3,1.4,0,1.8,0.7
		c0.1,0.2,0.1,0.4,0.2,0.5c0.1,0.1,0.3,0.2,0.4,0.3c0.3,0.2,0.9,0.4,1.2,0.2c0.2-0.1,0.3-0.3,0.5-0.4c0.4-0.1,0.8,0.3,1.2,0.5
		c0.1,0,0.2,0.1,0.3,0.1c0.1,0.1,0.1,0.2,0.2,0.3c0.2,0.3,0.5,0.4,0.9,0.5c0.3,0,0.7,0,1-0.1c1-0.2,2-0.4,2.5-1.2
		c0.2,0.2,0.3,0.4,0.7,0.5c0.2,0.1,0.7,0,0.8-0.2c0.1,0.1,0.3,0.2,0.4,0.3l0,0l0,0c0.3,0.2,0.7,0.3,1,0.2c0.4-0.1,0.7-0.4,0.9-0.8
		c-0.1,0-0.1-0.1-0.2-0.1c0.3-0.8,0.7-1.5,1.1-2.2c0-0.2,0-0.3,0-0.5c-0.2,0-0.3,0.1-0.5,0.2c0-0.5,0.5-0.8,1.1-0.9
		c0.4-0.1,0.8-0.2,1.2-0.3c0.1,0,0.3-0.1,0.4,0c0.2,0.1,0.2,0.2,0.4,0.3c0.1,0.1,0.4,0.1,0.4-0.1c0.3,0.1,0.7,0.3,0.9,0.7
		c0,0.9,0.8,1.6,1,2.4c0.1,0.4,0.2,0.9,0.3,1.3c0.4-0.1,0.9,0,1.1,0.2c0.1-0.2,0.3-0.1,0.4,0.1s0.2,0.4,0.3,0.4s0.1,0,0.2,0
		s0.1,0.1,0.1,0.2c0,0.3,0.1,0.8,0.4,1s0.8,0.1,1.1,0c0.4-0.2,0.9-0.4,1.3-0.7C80.7,32.2,80.6,32.4,80.7,32.5z"/>
	<path class="st1" d="M57.3,63.6v0.2V64l0,0h0.1c0,0,0-0.1-0.1-0.1C57.4,63.6,57.3,63.6,57.3,63.6z"/>
	<path class="st1" d="M77.1,44.5c0.2-0.7-0.3-1.3-0.8-1.8c-0.2-0.3-0.5-0.5-0.8-0.9c-0.1-0.2-0.3-0.4-0.2-0.7
		c0.1-0.3,0.5-0.3,0.8-0.4c0.4-0.2,0.5-0.7,0.7-1.1c0.2-0.4,0.5-1,0.9-1.3c-0.1-0.1-0.3-0.5-0.3-0.5c-0.1,0.1-0.4,0.5-0.5,0.7l0,0
		l0,0c-0.3,0.2-0.7,0.3-1,0.4l0.1,0.7h-0.1c-0.3,0-0.2-0.1-0.4-0.2l0,0v-0.2c-0.1,0-0.4-0.1-0.5,0l-0.1,0.1c0,0.1,0,0.1-0.1,0.2
		c0,0.1-0.1,0.1-0.2,0.2c-0.1,0.1-0.3,0.1-0.3,0.2V40l-0.1-0.1l0,0c0,0-0.1,0-0.2,0.1c-0.3,0.2-0.8,1-1,1.3c0.3,0.1,1,0.3,1.1,0.7
		c0.1,0.2,0.2,0.5,0,0.8C74,42.9,73.9,43,74,43.1c0.3-0.2,0.9,0,1,0.4c0,0.1,0,0.2,0,0.2c0,0.1-0.2,0.1-0.2,0c0,0.2,0.2,0.4,0.2,0.8
		c0.1,0.3-0.1,0.7-0.2,1s-0.1,0.7,0.1,0.9c0.3-0.1,0.7-0.3,1.1-0.4C76.3,45.3,76.9,45,77.1,44.5z"/>
	<path class="st1" d="M79.4,45c-0.1,0-0.2,0.1-0.3,0.2c-0.3,0.2-0.7,0.4-0.9,0.7C78.1,46,78,46,78,46.1s0,0.1,0,0.2
		c0,0.1-0.1,0.1-0.2,0.1c-0.4,0.1-0.7,0.7-0.5,1.1c0.2-0.1,0.2-0.2,0.2-0.4c0.1,0,0.3,0.1,0.3,0.2s0,0.3-0.1,0.3
		c-0.1-0.1-0.1-0.2,0-0.2c-0.1,0-0.2,0.2-0.1,0.3c0.1,0.2,0.1,0.4,0.2,0.7c0.1,0,0.1,0.1,0.2,0.1c0-0.1,0-0.2,0-0.4
		c0.1,0.1,0.1,0.3,0,0.4c0,0,0.1,0.1,0.2,0c0.1-0.2,0.2-0.4,0.3-0.7c0.1-0.3,0.2-0.5,0.4-0.9v-0.1c0-0.1-0.1-0.1-0.2-0.2
		c-0.1-0.1-0.1-0.2,0-0.2c-0.2,0.1-0.4-0.1-0.4-0.3c0.2,0.1,0.4,0.1,0.7,0.1h0.1v-0.1c0-0.1,0.1-0.2,0.2-0.2s0.2,0,0.3,0
		c0.2-0.1,0.3-0.3,0.5-0.3c0.1,0,0.1,0,0.2,0c0.2,0,0.4-0.3,0.7-0.2c0.1,0,0.2,0.2,0.4,0.2c-0.2,0.3-0.2,0.9,0.1,1
		c0.1,0,0.2,0,0.2,0c0.1-0.1,0.1-0.2,0.1-0.3c0.1-0.1,0.2-0.2,0.4-0.2c0-0.2-0.1-0.4-0.2-0.5c0.1-0.1,0.4,0.1,0.3,0.2
		c0.1,0.1,0.3,0,0.4-0.1c0.2,0.2,0.4,0.2,0.7,0.1c-0.1-0.2,0.1-0.5,0.3-0.4c0,0.1,0,0.2,0,0.4c0.1,0,0.2-0.2,0.3-0.3
		c0.1-0.1,0.3-0.2,0.3-0.1c0-0.1,0.1-0.2,0.2-0.2c0,0.1-0.1,0.3-0.1,0.4c0.1,0.1,0.2,0,0.2-0.1s0.1-0.2,0.1-0.3
		c0.1-0.1,0.1-0.1,0.2-0.1c0.1-0.1,0-0.4-0.1-0.7s0.2-0.7,0.2-1s-0.1-0.7,0.2-0.8c0.1,0,0.1,0,0.2-0.1s0.1-0.3,0.2-0.4
		c0-0.1,0.1-0.2,0.2-0.3c0.3-0.7-0.4-1.4-0.3-2.1c-0.2,0-0.3,0-0.5-0.1c0,0.1,0.1,0.2,0.2,0.3s0.1,0.3,0,0.2s-0.3-0.3-0.4-0.4
		c-0.1,0.2-0.2,0.4-0.2,0.7c0,0.1,0,0.3,0,0.4c0,1.1-0.9,2-1.5,2.7c-0.1,0.1-0.2,0.2-0.3,0.2c-0.1,0-0.3,0-0.3-0.1
		c-0.1-0.1,0.1-0.3,0.2-0.2c0-0.1-0.1-0.2-0.2-0.2s-0.2,0.2-0.2,0.3s0,0.2-0.1,0.3S82,44,82,44.1s0,0.1,0,0.2c0,0.4-0.4,0.4-0.8,0.4
		s-0.9,0.1-1.4,0.2C79.6,44.9,79.5,44.9,79.4,45z"/>
	<path class="st1" d="M80.3,46c-0.2,0.1-0.5,0.4-0.8,0.3c0,0,0,0-0.1,0l0,0c0,0.1,0,0.2-0.1,0.2l-0.1,0.1c-0.1,0.1-0.1,0.2,0,0.3
		c0,0.1,0.1,0.2,0.2,0.2c0,0,0,0,0.1,0l0.1-0.1c0-0.1,0.1-0.3,0.2-0.4c0.1-0.1,0.2-0.1,0.4-0.1c0,0,0.1,0,0.1,0.1c0,0,0,0,0,0.1
		c0,0,0.1,0,0.2,0s0.2-0.2,0.2-0.4c0-0.1,0.1-0.2,0-0.3C80.6,45.9,80.4,45.9,80.3,46z"/>
	<path class="st1" d="M84.7,39.3c0.1,0,0.1-0.1,0.2-0.2c0.1-0.1,0.2-0.1,0.2,0c0.1-0.1,0-0.2-0.1-0.3s-0.2-0.2-0.2-0.3
		s0.1-0.2,0.2-0.1c0,0,0,0.1,0.1,0.1s0.2-0.2,0.3-0.3c0.2-0.1,0.4,0,0.7,0.2c0.1,0.1,0.3,0.2,0.4,0.4c0.1,0.1,0.2,0.1,0.3,0.2
		c0.1,0,0.2-0.1,0.2-0.2c0-0.1-0.1-0.1-0.1-0.2c-0.1-0.2,0.2-0.5,0.4-0.7c0.1,0,0.1-0.1,0.2-0.1s0.1,0,0.2,0c0.2,0,0.4,0,0.7-0.2
		c0-0.3,0-0.5-0.1-0.9v-0.1c-0.1-0.1-0.2,0-0.3,0c-0.1,0.1-0.3,0-0.4-0.1c-0.2-0.1-0.4-0.2-0.7-0.3c-0.3-0.1-0.3-0.3-0.4-0.5
		c-0.1,0.1-0.7-0.2-0.7-0.2c0.1,0.4,0.1,0.8,0,1.2c-0.1,0.1-0.2,0.3-0.2,0.4c0,0.1,0,0.2,0,0.3s-0.1,0.2-0.2,0.2s-0.1-0.1-0.2-0.2
		c-0.1,0-0.2,0.1-0.2,0.2c0,0.1,0.1,0.2,0.1,0.3c-0.2,0-0.5,0.1-0.5,0.4C84.6,38.6,84.8,39,84.7,39.3C84.5,39.3,84.6,39.3,84.7,39.3
		z"/>
	<path class="st1" d="M50,63c-0.1,0.3-0.1,0.8-0.2,1.1v0.1l0.1,0.1l0.1-0.1c0.1-0.2,0.1-0.4,0.2-0.7c0.1-0.1,0.1-0.3,0.1-0.5
		C50.4,62.6,50.1,62.6,50,63z"/>
	<path class="st1" d="M71.4,54.2c0-0.2-0.1-0.3-0.2-0.4c-0.2-0.1-0.3,0.1-0.4,0.2c-0.3,0.3-0.4,0.8-0.5,1.1c0,0.1,0,0.1,0,0.2
		c0,0.1,0,0.2,0.1,0.2c0.2,0.2,0.4,0.4,0.3,0.8c0,0,0,0,0,0.1s0.1,0.1,0.2,0c0,0,0.1-0.1,0.1-0.2c0-0.2,0-0.3,0-0.5
		c0.1-0.2,0.2-0.3,0.3-0.4c0.1-0.2,0-0.5,0.1-0.8C71.3,54.4,71.4,54.3,71.4,54.2z"/>
	<path class="st1" d="M69.8,60.8c0,0.2,0.2,0.2,0.3,0.4c0.1,0.1,0,0.3,0.1,0.4c0.1,0.1,0.2,0.1,0.2,0.1c0.1,0.1,0,0.2,0,0.4
		c-0.2,0.5,0.1,1.2,0.5,1.3c0.2,0,0.3-0.3,0.4-0.5s0.4-0.2,0.8-0.1c0.3,0.1,0.4,0.3,0.5,0.5c0.2,0.3,0.4,0.7,0.7,1
		c-0.1,0-0.2,0-0.3,0.1c0.4,0.1,0.2,1,0.8,1.1c0.1-0.1,0.1-0.3,0-0.4c0-0.1-0.1-0.3-0.1-0.4c0-0.2,0.2-0.3,0.3-0.2
		c-0.3-0.4-0.5-1-0.9-1.4c0-0.1-0.1-0.1-0.1-0.2c0-0.1,0-0.2,0.1-0.3c-0.3,0.2-0.8,0.1-1.1-0.1c-0.3-0.1-0.8-0.2-1.1,0
		c-0.2-0.1-0.2-0.3-0.1-0.5c0-0.2,0.1-0.3,0-0.5c0-0.1-0.1-0.1-0.1-0.2c0-0.1,0-0.1,0-0.2c0.1-0.3,0.4-0.4,0.8-0.3
		c0.2-0.2,0.3-0.4,0.2-0.7c-0.1-0.1-0.4-0.1-0.4-0.2c-0.1-0.2,0.1-0.3,0.1-0.5c-0.1-0.3-1-0.2-1.1,0c-0.3,0.3,0.1,1-0.2,1.4
		C70,60.6,69.8,60.7,69.8,60.8z"/>
	<path class="st1" d="M69.3,64.8c-0.2,0.2-0.3,0.4-0.4,0.7c-0.2,0.3-0.5,0.7-0.9,0.9c0.3-0.1,0.5-0.2,0.8-0.4c0.1,0,0.1-0.1,0.2-0.1
		c0.2-0.2,0.3-0.7,0.5-0.8c0,0,0.1,0,0.1-0.1c0.1-0.1,0-0.3,0-0.4s0.1-0.2,0.1-0.3c-0.1,0-0.1,0-0.1,0.1s0,0.1,0,0.2
		C69.6,64.6,69.4,64.7,69.3,64.8z"/>
	<path class="st1" d="M59.7,76.9c0.2-0.2,0.1-0.5,0.1-0.9c0-0.3,0-0.5,0.1-0.9c0.1-0.2,0.2-0.4,0.3-0.8c0.1-0.3,0-0.5-0.2-0.7
		c-0.2-0.1-0.4,0-0.7,0.1c0,0.2,0.2,0.3,0.4,0.2c0,0.1,0,0.3,0,0.4c-0.1-0.2-0.3-0.2-0.5-0.3c-0.2-0.1-0.4-0.2-0.4-0.4
		c0-0.1,0-0.2,0-0.3c-0.1-0.1-0.2-0.2-0.4-0.2c-0.1,0-0.3-0.2-0.2-0.3c0.1,0,0.1,0,0.2,0c-0.1,0-0.2-0.1-0.2-0.2s0-0.2,0.1-0.2
		c-0.1-0.1-0.3-0.2-0.4-0.2c-0.1-0.1,0-0.3-0.1-0.4c0-0.1-0.1-0.1-0.2-0.1c-0.3-0.1-0.5-0.2-0.9-0.2c0.1-0.1,0.1-0.2,0-0.2
		c-0.1-0.1-0.2-0.1-0.2,0c0.1-0.1-0.1-0.2-0.2-0.2c-0.1,0-0.2,0.1-0.3,0s-0.1-0.3-0.2-0.4c-0.1-0.1-0.2-0.1-0.2-0.1
		c-0.1-0.1-0.1-0.1-0.1-0.2s-0.1-0.1-0.2-0.2c-0.5-0.3-0.9-0.5-1.3-1c-0.1-0.1-0.1-0.1-0.2-0.1c-0.1,0-0.1,0-0.2,0
		c-0.4,0.1-0.9-0.4-1.3-0.3c0,0.2,0.1,0.3,0.1,0.4c0.3,0.5,1.1,0.7,1.4,1.1c0.2,0.2,0.3,0.5,0.3,0.9c0.3,0,0.5,0.3,0.7,0.7
		c0.1,0.3,0.1,0.7,0.4,0.8c0.1,0,0.2,0.1,0.2,0.1c0.2,0.1,0.3,0.3,0.4,0.4c0.3,0.4,0.5,0.9,0.8,1.4c0.1,0.2,0.2,0.5,0.3,0.7
		c0.2,0.2,0.4,0.2,0.5,0.4c0,0.1,0,0.2,0.1,0.2c0.2,0.3,0.7,0.3,1,0.5c0.2,0.1,0.3,0.3,0.3,0.7C59,77,59,76.8,59,76.7
		c0.2,0,0.4,0.1,0.5,0.2l0.1,0.1C59.5,77,59.6,77,59.7,76.9z"/>
	<path class="st1" d="M67.4,73.7c0.1-0.2,0.4-0.3,0.5-0.7c0.1-0.2,0-0.4,0.1-0.8s0.7-0.4,1.1-0.4c-0.2-0.3-0.5-0.5-0.7-1
		c0-0.1-0.1-0.1-0.1-0.2c-0.2-0.3-0.4-0.9-0.2-1.2c0.2,0,0.4,0,0.5,0c0-0.1-0.1-0.2-0.2-0.3c0.3-0.1,0.5-0.2,0.8-0.4
		c-0.5,0-1.1-0.5-1.1-1.1c-0.2,0-0.4-0.1-0.5-0.2c0,0.1-0.1,0.3-0.3,0.3c-0.1,0.3-0.4,0.7-0.8,0.8c0.1,0.1,0,0.3-0.2,0.4
		C66.2,69,66,69,65.9,69c-0.7,0.2-0.7,0.8-1.1,1.2c-0.3,0.3-1.1,0.4-1.5,0.5c0,0.2,0.1,0.4,0.1,0.7c-0.3-0.1-0.8-0.3-1.1-0.4
		c-0.2,0.2-0.4,0.3-0.5,0.7c-0.1,0.2,0,0.7,0.3,0.7c-0.2,0.4,0.1,1,0.5,1.1c0,0.3-0.1,0.7,0.1,1c0.1,0.3,0.7,0.4,0.8,0.1l0.1-0.1
		c0.1-0.1,0.2,0.1,0.2,0.3c0,0.1-0.1,0.3,0,0.4c0.3,0.2,0.8,0,0.9-0.3c0.2,0,0.3,0.2,0.3,0.4c0.1,0.1,0.2,0,0.2,0
		c0.1-0.1,0.1-0.2,0.2-0.2c0.1-0.1,0.2,0,0.3,0.1c0,0.1,0,0.2,0,0.4c0.2,0.1,0.3-0.1,0.5-0.1c0.1-0.1,0.4-0.1,0.4,0.1
		c0.1-0.4,0.2-0.9,0.3-1.3C67.3,74,67.4,73.9,67.4,73.7z"/>
	<path class="st1" d="M65.9,78.4c-0.2-0.1-0.4,0-0.7,0s-0.5-0.1-0.4-0.3c0.3,0,0.5-0.1,0.9-0.2c-0.3,0-0.5-0.1-0.9-0.1
		c0,0.1-0.1,0.1-0.1,0.1c-0.3-0.2-0.8-0.3-1.2-0.3v-0.1c-0.1-0.1-0.2,0-0.2,0.1c-0.1,0.1-0.1,0.2-0.2,0.2c-0.1,0.1-0.2,0-0.3,0
		c-0.2,0-0.4,0-0.7-0.1c-0.8-0.1-1.3-0.7-2-0.7c-0.1,0-0.2,0-0.2,0.1s0,0.1,0,0.2c-0.1,0.1-0.4,0.1-0.4,0.2s0.3,0.1,0.4,0.2l0,0
		c0,0,0,0,0.1,0s0.3-0.1,0.4-0.1c0.1,0,0.1,0.1,0.2,0.1c0.1,0,0.3,0,0.4,0c0.1,0,0.1,0,0.2,0c0.1,0.1,0,0.2,0.2,0.3
		c0.1,0,0.2,0.1,0.3,0.1c0.2,0.1,0.4-0.1,0.7,0c0.1,0,0.1,0.1,0.2,0.1c0.1,0,0.2,0,0.3,0.1c0,0,0,0.1,0.1,0.1h0.1c0.1,0,0.1,0,0.2,0
		c0,0,0,0,0.1,0c0,0,0,0,0.1,0c0.1,0.1,0.3,0,0.5,0c0.2,0,0.4,0,0.5,0c0.2,0,0.4-0.1,0.7,0c0.2,0.1,0.4,0.2,0.7,0.3
		c0.1,0,0.2,0,0.2,0c0.1-0.1,0-0.2,0-0.2s-0.2-0.1-0.3-0.1c0.1-0.1,0.4,0,0.5,0.1s0.4,0.2,0.5,0c0-0.1,0-0.2,0-0.3
		C66.5,78.7,66.1,78.6,65.9,78.4z"/>
	<path class="st1" d="M67.4,78.7c-0.1,0-0.2,0.1-0.3,0.2c0,0.1-0.1,0.2-0.1,0.3h0.1c0.1,0,0.1,0,0.2,0c0.1-0.1,0.1-0.2,0.2-0.2
		c0,0,0,0,0.1,0c0,0,0,0,0-0.1C67.6,78.7,67.5,78.7,67.4,78.7z"/>
	<path class="st1" d="M69.4,79C69.4,78.9,69.4,78.9,69.4,79c0-0.1,0-0.2,0-0.3h-0.1h-0.1h-0.1c-0.1,0-0.1,0-0.2,0v-0.1
		c-0.1-0.1-0.2,0-0.2,0l0,0c0,0,0,0.1,0.1,0.1s0.2,0.1,0.2,0.2c-0.1,0.1-0.2-0.1-0.4-0.1c0,0,0,0,0-0.1c-0.1,0-0.2,0-0.3,0
		c-0.1,0-0.2,0.1-0.2,0.1C68,78.8,68,78.9,68,79c0,0,0.1,0,0.2,0h0.1c0.1,0,0.1-0.1,0.2-0.1s0.2,0,0.3-0.1c0.1,0,0.1-0.1,0.2-0.1
		s0.1,0,0.2,0.1C69.2,79.1,69.3,79,69.4,79L69.4,79z"/>
	<path class="st1" d="M70.5,79.7c-0.1,0-0.2-0.1-0.3-0.1H70c0,0,0,0,0-0.1c-0.1,0-0.1-0.1-0.2-0.1l0,0c-0.1,0-0.3,0-0.4,0
		s-0.2,0.2-0.2,0.3c0.1,0.1,0.2,0,0.3,0s0.2,0.1,0.4,0.2c0,0,0,0,0.1,0s0.1,0,0.2,0c0,0,0,0,0.1,0c0.1,0.1,0.2,0.1,0.3,0.1
		s0.2-0.1,0.2-0.2h-0.1C70.6,79.8,70.6,79.8,70.5,79.7z"/>
	<path class="st1" d="M74.7,78.8L74.7,78.8c-0.1,0-0.1,0-0.2,0s-0.2,0-0.2,0.1v-0.1c-0.1,0-0.2,0-0.3,0.1c-0.1,0.1-0.2,0.1-0.2,0.2
		c-0.1,0.1-0.3,0.1-0.5,0.2c-0.1,0.1-0.2,0.3-0.2,0.4C73,79.9,73,80,72.8,80.1c0.2,0.1,0.4,0,0.7-0.1l0.1-0.1c0.1,0,0.1,0,0.2-0.1
		c0.1,0,0.2-0.2,0.3-0.3s0.2-0.2,0.3-0.2h0.1c0.1,0,0.2-0.2,0.3-0.2c0.1-0.1,0.2,0,0.3-0.1c0.1,0,0.1-0.1,0.2-0.1s0.1,0,0.2,0
		s0.1-0.1,0.2-0.2C75.2,78.7,74.9,78.7,74.7,78.8z"/>
	<path class="st1" d="M72.9,78.6c-0.1,0.1-0.3,0.1-0.4,0h-0.1h-0.1h-0.1c-0.1,0-0.1,0.2-0.2,0.2c0,0-0.1,0-0.2,0c-0.2,0-0.4,0-0.7,0
		H71l-0.1-0.1c-0.1,0-0.2,0-0.3,0s-0.2,0-0.3,0c-0.1,0-0.3,0.1-0.3,0.2c0.1,0.1,0.4,0.1,0.5,0.1s0.2-0.1,0.3-0.1S70.9,79,71,79
		s0.3-0.2,0.4-0.1l0.1,0.1c0.1,0,0.1,0,0.2,0c0.2-0.1,0.4-0.2,0.8-0.2c0,0.1,0.2,0.1,0.3,0.1C72.8,78.8,72.8,78.7,72.9,78.6z"/>
	<path class="st1" d="M73.2,78.9L73.2,78.9l0.2-0.1h0.1c0.1,0,0.1,0,0.2,0c0,0,0,0,0-0.1l0,0l0,0c-0.1,0-0.2,0-0.3-0.1
		c0,0,0,0-0.1,0h-0.1c-0.1,0.1-0.1,0.1-0.2,0.1s-0.2,0-0.2,0.1c0,0,0.1,0,0.1,0.1C73.1,78.9,73.2,78.9,73.2,78.9z"/>
	<path class="st1" d="M70.5,72.2c0.2-0.1,0.4,0.1,0.8,0.1c0.1,0,0.2,0,0.4,0c0.2,0,0.3,0.2,0.4,0.3c0-0.2,0.3-0.2,0.5-0.2
		s0.4,0.1,0.5,0l0.1-0.1c0.1-0.3,0.3-0.5,0.7-0.8c-0.1,0-0.2-0.1-0.3-0.1c-0.2,0.2-0.4,0.4-0.7,0.4s-0.3,0-0.5,0
		c-0.4,0-0.9-0.1-1.2-0.3c-0.1-0.1-0.2-0.1-0.3-0.1c0,0.2-0.1,0.4-0.3,0.5c-0.1,0-0.2,0-0.3,0.1c-0.1,0.1-0.1,0.2-0.1,0.3
		c0,0.3,0,0.7-0.2,0.9c-0.1,0.1-0.1,0.2-0.2,0.4c0,0.1,0,0.2-0.1,0.3L69.6,74c-0.2,0.1,0,0.4-0.1,0.7V75c0,0.1,0.1,0.1,0.2,0.1
		c0.2,0,0.5,0.2,0.4,0.4c0,0,0,0.1-0.1,0.1c0,0.1,0.1,0.1,0.1,0.2S70,76,69.9,76.1l0,0l0,0c0,0.2,0,0.3,0.2,0.4h0.5
		c0-0.3,0-0.8,0-1.1c0-0.2,0-0.5,0.2-0.7c-0.1,0-0.1-0.1-0.2-0.1c0-0.1,0.1-0.1,0.1-0.1c0.1-0.1,0.4-0.1,0.3,0.1
		c0,0.2-0.2,0.2,0.1,0.3c0.1,0.1,0.2,0.2,0.3,0.4c0,0.2,0.1,0.3,0.1,0.4l0,0h0.1c0.1-0.1,0.2-0.2,0.3-0.2c0.1-0.1,0.2-0.2,0.3-0.1
		c0,0,0.1,0.1,0.1,0c0.1,0,0-0.1,0-0.1s-0.1-0.1-0.2-0.1c-0.2-0.1-0.4-0.4-0.3-0.7c0-0.1,0.1-0.1,0.1-0.2s0-0.1-0.1-0.2
		c-0.1-0.2-0.3-0.3-0.5-0.4c-0.1,0-0.2-0.1-0.1-0.2c0-0.1,0.1,0,0.2,0s0.2,0,0.3-0.1c0.2-0.2,0.4-0.4,0.8-0.4l0.1,0.1
		c0-0.1,0.1-0.1,0.1-0.2c-0.1-0.1-0.2-0.2-0.3-0.2c-0.2,0-0.4,0.1-0.5,0.2c-0.1,0-0.1,0.1-0.2,0l-0.1-0.1c0,0-0.1,0-0.1,0.1
		s0,0.1-0.1,0.1l-0.1,0.1h-0.1c-0.1,0-0.2,0-0.2,0c-0.1,0-0.1,0-0.2,0c0,0,0-0.1-0.1-0.1c0-0.1-0.1-0.1-0.1-0.1c-0.1,0-0.1,0-0.2,0
		l0,0l0,0C70,73,70,72.3,70.5,72.2z"/>
	<path class="st1" d="M92.5,80.1C92.5,80.1,92.4,80.1,92.5,80.1c-0.3-0.2-0.5-0.2-0.8-0.4c-0.2-0.1-0.3-0.4-0.3-0.7
		c-0.2,0.1-0.4,0-0.7-0.2c-0.1-0.1-0.1-0.2-0.1-0.4v-0.1h-0.1c-0.3,0-0.4-0.3-0.7-0.5c-0.1-0.1-0.1-0.2-0.1-0.3c0.1,0,0.1,0,0.2,0
		s0.2,0,0.2,0h0.1v-0.1l0,0c-0.2-0.2-0.5-0.3-0.8-0.4c-0.1,0-0.3-0.1-0.4-0.2s-0.2-0.3-0.1-0.4c-0.2,0-0.2-0.4-0.4-0.3
		c-0.3-0.2-0.5-0.3-0.8-0.5c-0.1-0.1-0.2-0.1-0.3-0.1h-0.1l-0.1-0.1C87.1,75,86.9,75,86.8,75c-0.7,0-1.2-0.5-1.9-0.5
		c-0.1,0-0.1,0-0.2,0s-0.2,0-0.2-0.1c-0.2-0.1-0.5-0.2-0.8-0.3c-0.1,0-0.2-0.1-0.3-0.1c-0.2,0-0.3,0-0.5,0.1c0,0.1,0.2,0.2,0.2,0.3
		L83,74.5c-0.2,0-0.4,0-0.8-0.1c0,0.1,0.1,0.2,0.1,0.2c-0.2,0.1-0.3,0.2-0.4,0.3c-0.1,0.1-0.3,0.3-0.4,0.3c0,0,0,0-0.1,0
		c0,0,0,0,0-0.1c-0.1-0.2-0.2-0.4-0.3-0.7c-0.1,0-0.2-0.1-0.3-0.2c0,0,0-0.1,0.1-0.1c0.1-0.1-0.1-0.2-0.1-0.4c0,0,0-0.1,0.1-0.1
		c0-0.1,0-0.2-0.1-0.3l-0.1-0.1h-0.1c-0.2,0-0.4-0.1-0.7-0.2c-0.2-0.1-0.4-0.2-0.7-0.1c0,0,0,0-0.1,0V73c0,0.1-0.3,0-0.4,0.2
		c0,0.1-0.1,0.2-0.1,0.2c0-0.1-0.1-0.2-0.1-0.3c-0.1,0.1-0.2,0.3,0,0.4l0.1,0.1c0.2,0,0.3-0.1,0.5-0.1h0.1c0,0,0,0,0.1,0.1
		s0.1,0.3,0.1,0.4c0.2,0,0.4,0,0.7-0.1h0.1l0,0c0.1,0.1,0.3-0.1,0.4,0s0,0.2,0,0.2c-0.1,0-0.2,0.1-0.2,0.1c0-0.1-0.1-0.2-0.2-0.1
		c0,0,0,0,0,0.1s-0.2,0.1-0.3,0.1c-0.1,0-0.2,0-0.3,0v0.1c0.2-0.1,0.3,0,0.4,0.2c0.1,0.1,0.1,0.3,0.1,0.5c0,0.1,0,0.1,0,0.2
		c0.1,0.1,0.2,0.1,0.3,0c0.1-0.1,0.1-0.1,0.1-0.2s0-0.2,0.1-0.2c0.1-0.1,0.2-0.1,0.2,0s0,0.1,0,0.2s0.1,0.2,0.2,0.2s0.2-0.1,0.2-0.1
		c0.1,0,0.2-0.1,0.2,0c0.1,0.1,0,0.2,0.1,0.3c0.1,0,0.1,0,0.2,0c0.5,0,0.9,0.1,1.3,0.4c0.4,0.2,0.9,0.7,1,1.2c0,0.1,0,0.2,0.1,0.3
		c0,0.2,0.1,0.3,0.3,0.4c-0.1,0-0.3,0-0.4,0c-0.1,0.1-0.2,0.2-0.2,0.4c0,0.1,0,0.1,0.1,0.1c0.1,0.1,0.2,0,0.3,0s0.1,0,0.2,0.1
		c0.1,0,0.1,0,0.2,0c0,0,0,0,0-0.1c0.1-0.2,0.3-0.3,0.5-0.2c0.1,0,0.2,0.1,0.2,0.2c0.1,0.1,0.2,0.2,0.3,0.4c0,0.1,0.1,0.2,0.2,0.3
		c0.1,0.1,0.3,0,0.4-0.1s0.2-0.2,0.4-0.2c0.2,0,0.3,0.1,0.5,0.1s0.3-0.1,0.4-0.2c0.1,0,0.1-0.1,0.1-0.2s0-0.1,0-0.2
		c0.1,0,0.2,0,0.2-0.1s0-0.3,0.1-0.3c0,0,0.1,0,0.1-0.1c0,0,0,0,0-0.1s0-0.1,0.1-0.1s0.1,0,0.2,0c0.2,0.1,0.5,0.1,0.7,0.3
		c0,0.1,0.1,0.1,0.1,0.2c0.1,0.2,0.4,0.1,0.5,0.3c0,0.1,0.1,0.2,0.1,0.2c0.1,0.1,0.2,0.1,0.3,0.2c0.1,0.1,0.1,0.2,0.1,0.3
		c0,0.1,0.1,0.1,0.1,0.1c0.2,0.1,0.5,0.1,0.9,0.1c0.1,0,0.3,0.1,0.4,0.1c0.3,0.1,0.8,0,1,0.2c0.1,0,0.2-0.1,0.2-0.1l0,0
		C92.5,80.2,92.5,80.1,92.5,80.1z"/>
	<path class="st1" d="M81.7,73.5c0.1,0,0.1,0,0.2,0C81.9,73.4,81.8,73.4,81.7,73.5C81.8,73.4,81.8,73.4,81.7,73.5c0-0.1,0-0.1,0-0.2
		l-0.1-0.1l0,0h-0.1h-0.1h-0.1c0.1,0.1,0.1,0.2,0.2,0.3l0.1,0.1v0.1C81.6,73.6,81.6,73.5,81.7,73.5z"/>
	<path class="st1" d="M81.6,74L81.6,74L81.6,74c0.1,0.1,0.2,0.1,0.2,0.1h0.1c0.1,0,0.1,0,0.2,0s0.1,0,0.2,0h-0.1c-0.1,0-0.1,0-0.2,0
		C81.8,74,81.7,74,81.6,74c0-0.1-0.1-0.1-0.2-0.1C81.2,73.9,81.5,74,81.6,74z"/>
	<path class="st1" d="M71.9,76.7L71.9,76.7C72,76.7,72,76.7,71.9,76.7c0.1,0.2,0.2,0.3,0.3,0.3l-0.1-0.5c0-0.1,0-0.3-0.1-0.4
		c0,0.1,0,0.1-0.1,0.2c0,0,0,0,0-0.1c0,0,0-0.1-0.1-0.1c0,0-0.1,0-0.1,0.1v0.1c0,0.1-0.1,0.1-0.1,0.1c-0.1,0-0.1,0-0.2,0
		c0,0.1,0,0.2,0,0.2C71.7,76.6,71.8,76.6,71.9,76.7z"/>
	<path class="st1" d="M75.3,75.3c-0.1-0.1-0.1-0.2-0.2-0.2C75,75,74.9,74.8,74.9,75c-0.1,0-0.1,0.1-0.3,0.1c-0.1,0-0.2,0-0.3,0.1
		l0,0v0.1v0.1c0,0.1,0.2,0.1,0.2,0.1c0.1,0,0.2,0.1,0.2,0.1l0,0h0.1C75.1,75.5,75.2,75.4,75.3,75.3z"/>
	<path class="st1" d="M80.3,77.2C80.3,77.2,80.3,77.3,80.3,77.2c-0.1,0.2,0,0.3,0,0.4s0,0.1,0,0.1c0,0.1,0,0.1,0.1,0.1
		c0,0,0,0,0.1,0c0.1-0.1,0.1-0.3,0.2-0.4c0-0.1,0.1-0.2,0.1-0.2c0-0.1,0,0,0-0.2C80.6,76.5,80.5,76.8,80.3,77.2z"/>
	<path class="st1" d="M74.4,78.5C74.4,78.4,74.6,78.4,74.4,78.5c0.1,0,0.2,0,0.2,0s0,0.1,0.1,0.1l0,0c0.1,0,0.2-0.1,0.2-0.2
		s-0.1-0.1-0.1-0.1s0,0-0.1,0c0,0-0.1,0-0.1,0.1c-0.1,0-0.2,0.1-0.3,0h-0.1v0.1C74.2,78.5,74.3,78.5,74.4,78.5z"/>
	<path class="st1" d="M77.3,74.8c-0.1,0-0.2-0.1-0.3-0.1s-0.2,0-0.4,0c-0.1,0-0.3,0-0.4,0H76c-0.1,0-0.1,0-0.2,0c0,0-0.1,0.1,0,0.2
		c0,0,0,0,0.1,0s0.2,0,0.3,0c0.1,0,0.2,0.1,0.2,0.2c0,0,0.1-0.1,0.1-0.2c0.1,0,0.1,0,0.2,0s0.1,0.1,0.2,0.1s0.2,0,0.3,0s0.2,0,0.2,0
		s0,0.1,0.1,0.1c0,0,0,0,0.1,0s0.1,0,0.2,0.1c0.1,0,0.1,0,0.2-0.1c0-0.1,0-0.1,0-0.2C77.7,75.1,77.5,74.8,77.3,74.8z"/>
	<path class="st1" d="M76,72.3C76,72.3,76,72.4,76,72.3c0.1,0.1,0.1,0.1,0.2,0.1s0.1,0,0.2,0.1v-0.1C76.3,72.3,76.2,72.2,76,72.3
		v-0.2h0.1l0.1-0.1h0.1c0-0.1,0-0.2,0-0.4c-0.2,0-0.4,0.2-0.5,0.4c0,0.1,0,0.1-0.1,0.1c0,0,0,0-0.1,0c0-0.1-0.1-0.1,0-0.2
		c0,0,0.1,0,0.2,0l0,0v-0.1c0-0.1,0-0.1,0-0.2c0,0-0.1,0-0.1-0.1v-0.3c-0.1,0-0.1,0.1-0.1,0.1c0,0.1,0,0.1-0.1,0.2s-0.2,0.1-0.2,0.2
		v0.1c0.1,0.2,0.1,0.5,0.2,0.8c0,0.1,0.1,0.2,0,0.3c0.1,0,0.1,0,0.2,0.1s0,0.1,0.1,0.2c0,0.1,0.1,0.1,0.1,0.1H76
		c0-0.1,0-0.1-0.1-0.1c-0.1-0.1-0.2-0.2-0.2-0.4c0-0.1,0-0.2,0-0.2c0-0.1,0-0.1,0-0.2C75.8,72.2,75.9,72.2,76,72.3z"/>
	<path class="st1" d="M76.3,70.8C76.2,70.8,76.2,70.9,76.3,70.8L76.3,70.8C76.1,71,76,71,76,71.1h0.1c0,0,0,0,0,0.1
		c0,0,0.1,0,0.1-0.1s0.1,0,0.1,0s0-0.1-0.1-0.1l0,0l0,0C76.2,70.9,76.3,70.9,76.3,70.8z"/>
	<path class="st1" d="M74.7,74c-0.1,0-0.3,0-0.4,0c-0.2,0-0.4,0-0.7-0.1c-0.1,0-0.2-0.1-0.3,0l-0.1,0.3h0.1l0.1-0.1
		c0.1,0,0.2,0,0.3,0C74,74.1,74.3,74.1,74.7,74z"/>
	<path class="st1" d="M75.9,73.9C75.9,73.9,75.8,73.7,75.9,73.9C75.8,73.8,75.8,73.8,75.9,73.9l-0.2-0.1c0,0-0.1,0-0.2,0l0,0
		c0,0-0.1,0-0.1,0.1V74c0.1,0,0.2-0.1,0.2,0c0,0,0.1,0,0.1,0.1C75.9,74,75.9,73.9,75.9,73.9z"/>
	<path class="st1" d="M77.3,74.2C77.4,74.2,77.4,74.2,77.3,74.2C77.4,74.2,77.4,74.2,77.3,74.2C77.4,74.2,77.4,74.2,77.3,74.2
		c0.1-0.1,0.1-0.2,0.1-0.2C77.3,74,77.3,74.1,77.3,74.2L77.3,74.2c-0.2-0.1-0.2-0.1-0.3,0l0,0l0,0C77.2,74.2,77.3,74.1,77.3,74.2z"
		/>
	<path class="st1" d="M77.7,73c0.1-0.1,0.3-0.1,0.4-0.1l0,0l0,0c0-0.1,0-0.1-0.1-0.1s-0.1,0-0.2-0.1c0,0,0,0-0.1,0h-0.1
		c-0.1,0-0.2,0.1-0.2,0.2C77.5,72.8,77.7,73,77.7,73z"/>
	<path class="st1" d="M13.5,60.7L13.5,60.7L13.5,60.7L13.5,60.7L13.5,60.7z"/>
	<path class="st1" d="M41.7,66.6c-0.1-0.1-0.1-0.3-0.1-0.5s-0.3-0.8-0.7-0.7c-0.2,0.1,0,0.2,0,0.4c0,0.2-0.1,0.3-0.2,0.5
		c-0.1,0.3,0,0.7,0,1c0,0.2-0.1,0.5,0,0.8c0,0,0,0.1,0.1,0.1h0.1c0.2,0,0.3,0,0.5,0.1c0.3-0.2,0.5-0.5,0.7-0.9c0-0.1,0-0.2,0-0.3
		C42.1,66.9,41.9,66.8,41.7,66.6z"/>
	<path class="st1" d="M17.3,50.9l0.5-0.1c-0.1-0.2-0.2-0.3-0.3-0.5c0-0.1-0.1-0.2-0.1-0.2c0-0.1,0.2-0.2,0.2-0.2l-0.1-0.1l-0.3-0.1
		c-0.1,0-0.1,0-0.2,0.1h-0.1c-0.2-0.2-0.1,0-0.1,0c0,0.1-0.2,0.2-0.3,0.3c-0.1,0.1,0.1,0.2,0,0.3c0.2,0,0.5,0.2,0.8,0.2l0,0l0,0
		C17.3,50.7,17.3,50.8,17.3,50.9z"/>
	<path class="st1" d="M21.1,39.4c0-0.2-0.1-0.4,0-0.5l-0.4,0.2C20.7,39.2,20.9,39.4,21.1,39.4z"/>
	<path class="st1" d="M21.1,38.9L21.1,38.9l0.4-0.2C21.4,38.6,21.2,38.7,21.1,38.9z"/>
	<path class="st1" d="M16.2,38.7c-0.2-0.3-0.5-0.7-0.9-0.8c-0.3-0.1-0.7,0.1-0.9,0.2c0-0.3-0.3-0.4-0.7-0.5
		c-0.5-0.1-1.1-0.2-1.6-0.3c-0.2,0-0.4,0.1-0.4,0.2c0.4,0,0.9,0.2,1.1,0.5c0.2,0.3,0.1,1.1-0.2,1.4c0.2,0.1,0.7-0.2,0.9-0.3
		s0.4,0,0.7,0.2c0.1,0.1,0.1,0.1,0.2,0.2c0.4-0.1,0.8-0.2,1.2-0.3h0.1h0.1l0.7,0.3l0.4-0.4l-0.3-0.2C16.3,38.9,16.2,38.8,16.2,38.7z
		"/>
	<path class="st1" d="M16.2,41.2L16.2,41.2c0-0.1,0-0.1,0-0.2l0,0l0,0c-0.2,0-0.3-0.1-0.3-0.3v-0.1h0.3l0,0v-0.1L16,40.3l0,0
		c-0.1,0-0.1,0-0.2-0.1c-0.1-0.1-0.1-0.2-0.1-0.3s0.1-0.1,0.2-0.1l0,0l0,0h-0.1h-0.1v-0.1c-0.1-0.1-0.1-0.2-0.2-0.3
		c-0.3,0.1-0.5,0.2-0.9,0.2c0,0.1,0.1,0.1,0.1,0.2c0,0.1,0.1,0.1,0,0.2v0.1l0,0c0,0.1,0,0.1,0,0.2c0.2,0,0.4,0,0.7,0.1
		c0.1,0.1,0.1,0.2,0.2,0.3c0.1,0.3,0.3,0.7,0.5,0.8c0.1,0,0.2,0,0.2,0c0.1,0,0.2,0,0.2,0s0,0,0.1,0l0,0L16.2,41.2L16.2,41.2z"/>
	<path class="st1" d="M16.4,39L16.4,39L16,39.3L16.4,39z"/>
	<path class="st1" d="M16.3,41.7L16.3,41.7h0.1l0,0l0,0H16.3z"/>
	<path class="st1" d="M14.9,41L14.9,41C14.9,41.1,14.9,41.1,14.9,41L14.9,41L14.9,41z"/>
	<path class="st1" d="M8.7,50.3c0.1-0.3,0.4-0.7,0.8-0.7c0,0,0,0,0.1,0s0.1,0,0.1,0c0.1,0,0.1-0.1,0.2-0.2l0.1-0.1
		c-0.2-0.2-0.4-0.4-0.8-0.7l-0.1-0.1h0.1c0.4-0.2,1-0.4,1.5-0.5H11c4.5,4.8,6.4,3.1,6.4,3.1c-0.7-1.5-6.4-4.3-6.5-4.6
		c-0.5,0.3-1.5,0.8-2,1.2l0,0l0,0c-0.2-0.1-0.1,0-0.3-0.1l0,0c-0.2-0.3,0,0,0.2-0.2L9.1,47c0-0.1-0.2-0.4-0.2-0.4
		C9,46.5,9.1,46.1,9,45.9l-0.3-0.2L8.5,46c0,0,0,0,0-0.1l0,0l0,0l0,0c-0.1,0.9-0.7,1.6-1,2.5c-0.1,0.3-0.2,0.5-0.2,0.9
		c0,0.3,0.2,0.8,0.3,1.1v-0.1C8.1,50.1,8.5,50.2,8.7,50.3z"/>
	<path class="st1" d="M7.8,50.2L7.8,50.2L7.8,50.2L7.8,50.2z"/>
	<path class="st1" d="M74.4,65.9c-0.2-0.4-0.7-0.2-0.8,0.1c0,0,0,0.1-0.1,0.1c-0.1,0.1-0.2,0-0.3-0.1c-0.1,0.2-0.1,0.3-0.2,0.5
		c-0.1,0-0.3,0-0.4,0c0-0.1,0-0.2,0-0.3c-0.1-0.1-0.3,0-0.4,0.1s-0.2,0.3-0.3,0.4l-0.1,0.1h-0.1c-0.1,0-0.2,0.1-0.2,0.2
		c-0.2,0.4-0.2,0.9-0.2,1.3c0.2-0.2,0.3-0.5,0.4-0.9c0-0.1,0-0.3,0.1-0.4s0.3-0.1,0.3,0c0,0,0,0,0,0.1h0.1c0.2-0.1,0.3-0.2,0.5-0.3
		c0.1,0.2,0.1,0.4-0.1,0.5l-0.1,0.1c-0.1,0.2,0.2,0.3,0.3,0.4c0,0.1,0,0.2,0,0.3c0,0,0.1,0,0.1,0.1c0.2,0,0.4,0,0.7-0.1
		c0.1,0.1,0.2,0.3,0.3,0.4c0.2-0.1,0.1-0.4,0-0.7c-0.1-0.2-0.2-0.4-0.1-0.7c0.1-0.1,0.2,0.1,0.2,0.2s0,0.2,0,0.3s0.1,0.2,0.2,0.2
		c-0.1-0.2-0.1-0.4,0-0.7c0-0.1,0.1-0.2,0.1-0.3c0-0.1,0-0.1-0.1-0.2c-0.1-0.2-0.1-0.3-0.1-0.5C74.4,66.2,74.6,66,74.4,65.9z"/>
	<path class="st1" d="M72.1,64.7c0,0.1,0,0.2,0,0.4c-0.1,0.1-0.2,0.2-0.3,0.2c0,0.1,0,0.1-0.1,0.2c0.1,0.1,0.2,0.1,0.3,0.2l0.1,0.1
		h0.1c0-0.1,0-0.2-0.1-0.3v-0.1v-0.1c0.1-0.2,0.1-0.3,0.2-0.5C72.6,64.7,72.4,64.7,72.1,64.7z"/>
	<path class="st1" d="M71.5,64.5c0,0.1,0,0.1,0,0.2l0,0c0,0,0,0,0.1,0s0.1,0,0.2,0l0,0l0,0c0,0,0,0.1,0.1,0.1c0-0.1,0.1-0.2,0-0.2
		v-0.1l0,0c0.1,0,0.1-0.1,0.2-0.1h0.1c0,0,0,0,0-0.1l-0.1-0.1C72,64.1,72,64.1,72,64.1c-0.1,0-0.1,0-0.2-0.1v-0.1c0,0-0.1,0-0.1,0.1
		c0,0,0,0.1-0.1,0.1v0.1c0,0.1,0,0.1,0,0.2C71.5,64.4,71.5,64.5,71.5,64.5L71.5,64.5z"/>
	<path class="st1" d="M72.7,65c0,0.1-0.1,0.1-0.1,0.2l-0.1,0.1c0,0,0,0.1,0,0.2s0,0.3,0,0.4c0.1-0.1,0.1-0.1,0.1-0.2s0-0.2,0-0.2
		s0,0,0.1-0.1s0-0.1,0-0.1h0.1c0-0.2,0-0.3,0-0.5C72.8,64.7,72.7,64.8,72.7,65z"/>
	<path class="st1" d="M72.7,65.6c0.1,0,0.2,0,0.3,0h0.1c0.1,0,0.2-0.1,0.2-0.2s-0.2-0.1-0.2-0.1l0,0l0,0L73,65.4
		C72.8,65.5,72.8,65.5,72.7,65.6C72.8,65.6,72.8,65.6,72.7,65.6z"/>
</g>
</svg>
