<?xml version="1.0" encoding="utf-8"?>
<!-- Generator: Adobe Illustrator 25.0.0, SVG Export Plug-In . SVG Version: 6.00 Build 0)  -->
<svg version="1.1" id="Layer_1" xmlns="http://www.w3.org/2000/svg" xmlns:xlink="http://www.w3.org/1999/xlink" x="0px" y="0px"
	 viewBox="0 0 100 100" style="enable-background:new 0 0 100 100;" xml:space="preserve">
<style type="text/css">
	.st0{opacity:0.3;fill:rgb(0, 102, 180);enable-background:new    ;}
</style>
<path class="st0" d="M57.9,20c0.6-0.3,0.5-0.1,0.9,0c0.8-1.1,0.3-0.4,0.5-1c0.1-0.5,0.5-0.7,0.8-1.1l-0.5-0.3
	c-0.5-0.3-0.4,0.2-0.4-0.7c-0.4,0.2-0.8,0.4-1,0.8C58,17.5,58,17.9,58,17.3c-0.3,0.1-0.3,0.2-0.6,0.2c0.4-0.5,0.2,0,0.4-0.5
	c-0.8,0.2-1.2,0.2-1.6,0.6c-0.3-0.2-0.5-0.2-0.6-0.6c-0.6,0.1-0.2,0.1-0.7,0.3c-0.3-0.2-0.6-0.4-1-0.5v-0.2
	c-0.7,0.1-1.1,0.4-1.7-0.2l-0.3-0.5c-0.5,0.1-0.3,0.1-0.6,0.4c-0.1-0.3-0.1-0.4-0.6-0.7c-0.2-0.1-0.1-0.1-0.3-0.1l-0.7,0.1
	c-0.1,0,0.2,0.1-0.4,0.1v0.4c0.5,0.1,0,0,0.3,0.1c0,0,0.1,0,0.1,0.1c0,0,0,0,0.1,0c0.4,0.2,0.4,0,1,0c0.1,0.5,0.2,0.2,0.2,1.1
	l-0.9,0.3H50l-1.1,0.1c-0.5-0.1-0.3-0.1-0.5-0.5c-0.1,0-0.2,0.1-0.3,0.2l-0.3,0.2C47.4,18,48,17.8,47.4,18c-0.2,0-0.3,0-0.6,0
	c0,0.3,0,0.3-0.3,0.7c-0.3,0.4,0,0.4-0.6,0.4c0,0.9,0.1,0.4,0.3,1l-0.4,0.1c-0.6,0.1-0.3,0.1-0.6,0.8c-0.2,0.7-0.5,0.2-0.8,1.3
	c0.4,0.3,0.5,0.3,0.6,0.5s0.1,0.3,0.1,0.5c-1.2-0.1-0.7,0.1-1.1,0c-0.5-0.1-0.8-0.2-1.4-0.2c0,0.9,0,0.3-0.3,0.5c0,0,0,0-0.1,0.1
	L42.1,24c0-0.9,0.2-0.3,0.2-1c-1-0.3-1-1.4-2.1-1.6c-0.9-0.2,0-0.3-0.9-0.3c-0.2,0.5-0.1,0.6-0.5,0.9c0.1-0.6,0.1-0.2,0-0.4
	c-0.5,0.1-0.3,0.1-0.6,0.4c-0.1-0.6-0.1-0.5-0.6-0.2c0.1,0.4,0,0.3,0.4,0.4c-0.1,0.3-0.2,0.3-0.3,0.8L37,22.3
	c-0.3,0.6,0.1,0.4-0.5,0.8l-0.2,0.1c-0.2,0.1-0.2,0.1-0.4,0.3c0.2,0.7,0.3,0.1,0.1,0.6c-0.4,0.1-0.5,0.2-0.8,0.6c0,0,0,0-0.1,0
	L35,24.8c-0.1,0.1-0.1,0.1-0.2,0.2c-0.2,0.2-0.4,0.2-0.5,0.6c0,0.3,0.1,0.5,0.3,0.7c-0.3,0.3-0.2,0.2-0.3,0.8L34,26.8
	c-0.6-0.1-0.3,0.3-0.4-0.2H33c0,0.8-0.3,0.6-0.1,1c0.1,0.2,0.5,0.3,0.8,0.7c-0.3,0.1-0.1,0.1-0.5,0c0.1,0.7,0.1,0.2,0,0.9
	c-0.4-0.3-0.2-0.2-0.6-1C32,27.4,32,28,32.1,27.1c-0.5,0.1-0.5,0.4-0.7,0.8l-0.6,0.6c-0.2,0.3-0.5,0.7-0.5,1c0,0.4,0.2,0.6,0.2,1.2
	c0.2,0.1-0.2,0.1,0.4,0c-0.1,0.3,0,0.1-0.2,0.3l-0.1,0.1c-0.2,0.2-0.1,0.1-0.2,0.2l-0.2,0.2c0,0-0.1,0-0.1,0.1L30,31.7
	c-0.3,0.3-0.2,0.3-0.4,0.6l-0.1,0.2c-0.8,2-1.2,2-3.4,2.8c-0.4,0.1,0,0.1-0.5,0.1c-0.6,0.1-0.3-0.3-0.8,0.1
	c-0.5,0.3-0.1,0.3-0.5,0.6c-0.6,0.5-0.7-0.2-1.9,1c-0.2,0.2-0.5,0.3-0.8,0.3c-0.6,0-0.2-0.4-1,0.2c-0.1-0.7,0.1-0.2-0.2-0.4
	c-0.1,0.4-0.1,0.3-0.4,0.6c-0.8,0.6-0.1-0.2-1.2,1l-0.1,0.1l-0.4,0.5l-0.1,0.1c-0.6,0.7-1.9,0.4-1.9,2.4h-0.4
	c-0.1-0.5-0.1-0.7-0.1-1.4c-0.6,0.4-0.9,1.5-0.9,2.2c0.4,0.1,0.1-0.2,0.3,0.3c0.2,0.6,0.2,1.1-0.1,1.5c-0.1,0.3-0.2,0.4-0.2,0.7v0.9
	c0,0.3,0.1,0.2,0.4,0.6c0.3,0.5,0.1,0.5,0.6,1.1c0,0,0.1,0,0.1,0.1c0.1,0.2,0.2,0.2,0.3,0.4c0.5,0.6,0.7,0.3,0.7,1.8h-0.3
	c-0.2-0.8-0.6-1.4-1.4-1.6c0,1.2,0.3,0.4,0.4,1.2c-0.3-0.2-0.1-0.1-0.5-0.2c-0.1,0.6,0.1,0.2-0.3,0.4c0.8,1.2,2.1,1.7,2.4,3.2
	c0.1,0.7,0.9,1.1,1.1,1.7c0.1,0.3-0.1,0.1,0.2,0.4c0.1,0.1,0.2,0.2,0.4,0.4c0.3,0.3,0.3,0.5,0.4,1.1c0.4,2.6,2,3.2,2.2,4.8v0.9
	c-0.1,0.6,0.1,0.5,0.2,1s-0.1,0.7-0.2,1.2c-0.4,0-0.4-0.1-0.7-0.1c0,0.9,0,1.7,0.8,1.7c1,0,1.4,1.3,3.1,1c0.5-0.1,1.4,0,1.9-0.2
	c0.5-0.3,0.6-0.6,0.7-0.8c0,0,0,0,0.1-0.1l0.2-0.2l0.1-0.1l0.4-0.2c0.3,0,0.8,0,0.9-0.4V65c0.2-0.7,1.2-0.7,1.8-0.9l1.4-0.2
	c0.1,0,0.1,0,0.3,0c0.5,0-0.1-0.1,0.3-0.1l0.2,0.1c0,0,0,0,0.1,0c0.4,0.2-0.3,0.1,0.5,0.2c0.1-0.3,0.3-0.4,1-0.4
	c0.5,0,1.5,0.4,1.9-1.3c0.1-0.3,0.1-0.4,0.2-0.6c0.3-0.4,0.5-0.2,1-0.5c2-1.2,1.2-1.4,3.5-1.4c0.9,0,1.6-0.4,2.4-0.7
	c1.5-0.6,1.3-1,3.6-1c0.8,0,0.9-0.1,1.4-0.2c0.6-0.1,1.7,0.8,2.1,1.1c0.7-0.2,0.3-0.5,1.2,0c0.5,0.3,0.9,0.2,1.5,0.3
	c0.2,0.4,0.1,0,0,0.6c0.4-0.1,0.4-0.2,0.8,0c-0.1,0.3-0.2,0.2-0.3,0.5l0.3,0.7c0.3,0.3,0.6,0,0.9,0.4c0.3,0.3,0.2,0.5,0.7,1.1
	c0.3,0.3,0.4,0.7,0.4,1.2h-0.1h-0.1H56l-0.3,0.3c0.8,0.1,0.6,0.6,1.2,0.7c0.2,0,0,0,0.3,0.1c0,0,0,0.1,0.3,0.1l-0.1-0.5
	c-0.1-0.4,0.1-0.5,0.7-1.4c0.5-0.6,1.3-0.6,1.7-1.2c0.2-0.4,0.3-0.6,0.6-0.9c0.3-0.3,0.1,0.1,0.3-0.3c0.1,0.2-0.1-0.1,0.2,0.2
	c0.1,0.1,0.1,0.2,0.2,0.3c-0.4,0-0.3,0.1-0.5,0.2c0.3,0.6,0.3,0.5,0,0.8c-0.5,0.6-0.7,1.3-0.6,2c0,0.7-0.2,0.6-0.9,0.6
	c-0.1,0.5-0.2,0.3-0.3,0.9c0.5,0,0.6-0.2,0.9-0.3c0.5-0.1,0.6,0.3,0.9-0.4l0.5-1.5l0.2,0.4v0.1l0.1,0.2v0.1c0.7,1.4-0.5,1.5-0.5,2.3
	h-0.6v-0.4c-0.7,0-1,0.1-1.5,0.2c-0.9,0.2-0.5,0.4-0.2,0.9c1.7,0,1.2-0.1,2.2-0.3c0.4-0.1,0.4,0.1,0.2-0.4c0.6,0,0.7-0.1,1.2-0.2
	c0,0,0.1,0,0.1,0.1c0,0,0.1,0,0.1,0.1c0.8,0.7,1.6,1.5,1.2,2.7v0.1v0.6c0.1,0.4,0.3,0.6,0.5,0.8l0.5,0.8c0.4,0.4,1,0.2,1.4,0.7
	l0.3,0.4c0.4-0.1,0.4-0.3,0.8-0.2l0.3,0.1h0.1c0.3,0.1,0.2,0,0.5,0.1c0.2,0.1,1.3,0.7,1.4,1c0.7-0.1,2-1.8,2.4-0.5
	c0.6-0.1,0.6-0.4,1.1-0.5L72.8,73c-0.2,0.4-0.1-0.2-0.2,0.5l0.6,0.5l0.2,0.2l0.4,0.1c0.1,0.1,0.2,0.3,0.2,0.5
	c0.4-0.1,0.5-0.5,0.4-0.9c1.5,0,1.9-1.5,3.4-1.4c1,0.1,1.8,0.3,2.5-0.2l0.3-0.3c0.2-0.4,0-0.6,0.1-0.9l0.7-1.8
	c0.5-1.4,1-1.4,1.3-1.6c0.4-0.3,0.1-0.1,0.1-0.3v-0.1l0.1-0.3c0.2-0.5,0.3-0.9,0.7-1.2c0.7-0.6,0.4-1,1.5-2.2l0.7-0.4h0.1l0.8-0.6
	v-0.1c0.1-0.3,0.1-0.4,0.3-0.7c0.5-0.7,1.2-1.3,1.2-2.4c0-0.7,0.8-1.9,1-2.6c0.1-0.4,0.2-0.6,0.4-0.9c0.3-0.6,0.4-1.1,0.3-1.8
	c-0.1-0.9-0.3-1.3-0.4-2.1c-0.1-0.5-0.2,0.5,0.1-0.2c0-0.1,0.1-0.1,0.1-0.3c0.1-0.7-0.1-1,0.1-1.7c0.2-0.6,0.3-0.1,0-0.8
	c-0.2-0.5-0.2,0.1-0.2-0.7c0-0.7,0-0.3-0.3-0.6c-0.4-0.4-0.2-0.3-0.3-0.8c-0.2-0.7-0.1-0.1-0.5-0.6c-0.3-0.3-0.3-1.1-0.7-1.4
	l-0.2-0.1c-0.5-0.1-0.7-0.5-0.9-0.9c-0.2-0.2-0.1,0-0.3-0.4c-0.3-0.9,0.4-1.3-0.2-2.4c-0.5,0.2,0,0-0.5,0.4
	c-0.3-0.4-0.4-0.3-0.5-0.9c-0.6,0.1-0.3,0.3-0.7,0.5C84,40.2,84.4,39.7,84,39c-0.6-1.2,0.3-0.1-0.8-1.3c-0.2-0.2-0.2-0.3-0.3-0.6H83
	c-0.1-0.5-0.3-0.8-0.7-1c-0.4-0.2-0.2,0-0.4-0.2c0,0,0,0-0.1-0.1l-0.3-0.2c-0.4-0.3-0.4,0.1-0.5-0.6l-0.2,0.1h-0.1
	c-0.3,0.1-0.2-0.5-0.4-0.8c-0.3-0.4,0.1,0.2-0.5-0.1c-0.3-0.2,0,0-0.2-0.1S79.5,34,79.3,34l-0.2-0.1c-1-0.4-0.8-0.6-0.8-1.6
	c-0.9-0.2-0.3-0.9-0.3-1.5c0.1-0.9-0.4-1-0.2-2c-1.2,0-0.7-1.2-1.1-2.6L76.6,25c0.1-0.3,0,0.1,0.1-0.3l-0.3-0.2
	c-1.2-0.7-0.9-1.2-1.3-1.5l-0.9,0.3c-0.3,0.2,0,0.1-0.4,0.2c-0.8-0.8-0.4-2.4-0.7-3.4c-0.1-0.4-0.2-1-0.8-1.2
	c0.1-0.4,0.2-0.5,0.4-0.8C72.4,18,72.3,18,72,17.8c0-0.8,0-1.4-0.4-2c-0.2-0.4-0.1-0.4-0.6-0.5c-0.1,0.6-0.1,0.2-0.6,0.5
	c0,0.7-0.1,1.3-0.5,1.9v0.1l-0.1,0.1c-0.3,0.4-0.5,0.7-0.5,1.2h0.4c0,0.6,0,0.2-0.3,0.6c-0.3,0.5-0.1,0-0.1,0.6
	c0.1,0.7-0.4,0.7-0.4,1.4c0,0.5,0.2,0.3,0.2,0.8c0,0.3-0.1,0.4-0.1,0.7c0,0.9,0.4,0.7,0,1.6s-0.3,1.8-0.8,2.8
	c-0.4,0.7-0.5,1.1-0.6,1.4c-0.2,0.3-1,0.6-1.4,0.6c-0.3,0-1-0.5-1.3-0.6c-0.2-0.1-0.4-0.2-0.5-0.4c-0.1-0.3,0-0.2-0.1-0.4
	c-0.3-0.6-1.1-0.6-1.7-0.8c-0.6-0.3-0.8-1.1-2.2-1.6l-0.8-0.2L59,25.2l-0.5-0.5c-0.1-0.1-0.4-0.3-0.6-0.4L57.4,24
	c-0.5-0.3-0.4,0-0.4-0.7c0.3-0.1,0.6-0.6,0.8-0.9c0.1-0.2,0,0,0.1-0.2l0.1-0.3v-0.1c0.1-0.2,0.2-0.5,0.3-0.6c-0.5-0.2,0,0.1-0.5-0.1
	C57.9,20.2,57.8,20.4,57.9,20L57.9,20z M70.2,76.1c0-0.9,0.1-0.8-0.4-1.1c-0.1,0.5,0,0-0.2,0.4C69.4,76,69.4,76.5,70.2,76.1
	L70.2,76.1z M75.8,76.2l0.5,1.1c0.2-0.1,0.1-0.1,0.5-0.1c0-0.8,0-0.5-0.3-0.9C76.4,76.1,76.4,76,76,76
	C75.9,76.3,76.2,76.2,75.8,76.2L75.8,76.2z M70.5,78.2c0,0.6,0.1,1.1,0.4,1.5c0.2,0.3,0.2,0.2,0.2,0.7c0,0.9-0.1,1.2,0.3,1.9
	c0.2,0.4,0.6,0.9,0.7,1.4c0.9,0,0.8,0,0.9,0.3c0.8,0,0.3-0.2,0.8-0.3c0,0,0.8,0.2,0.6-0.9c0.6,0.2,0.3,0.5,0.7,0.5
	c0.3,0,0.2-0.3,0.2-0.7c0-0.5-0.2-0.1,0.4-0.4l-0.1-0.8c0-0.9,0.2,0,0.5,0.1l0.4-2.6c0-0.2,0.3-0.1-0.2-0.9
	c-0.6,0.1-0.2,0.1-0.4,0.1l-1.7,0.2c-0.3,0.1-0.6,0.2-0.8,0.2c-0.6,0-1-0.8-1.9-1c-0.2,0,0,0-0.3-0.1c-0.4-0.2,0.1-0.1-0.4-0.2
	C70.6,77.9,70.5,77.7,70.5,78.2L70.5,78.2z"/>
</svg>
