<?xml version="1.0" encoding="utf-8"?>
<!-- Generator: Adobe Illustrator 26.0.0, SVG Export Plug-In . SVG Version: 6.00 Build 0)  -->
<svg version="1.1" id="Layer_1" xmlns="http://www.w3.org/2000/svg" xmlns:xlink="http://www.w3.org/1999/xlink" x="0px" y="0px"
	 viewBox="0 0 90 90" style="enable-background:new 0 0 90 90;" xml:space="preserve">
<style type="text/css">
	.st0{fill:#231F20;}
	.st1{font-family:'Blisstwin-Regular';}
	.st2{font-size:11.0378px;}
	.st3{font-size:3.517px;}
	.st4{fill:#F9A44C;}
	.st5{fill:#FFFFFF;}
</style>
<g>
	<g>
		<text transform="matrix(1 0 0 1 26.7527 46.6313)" class="st0 st1 st2">GALA TRAVEL</text>
		<text transform="matrix(1 0 0 1 27.0066 52.0952)" class="st0 st1 st3">Mian’s Group of Companies</text>
	</g>
	<g>
		<path d="M14.67,54.26L14.67,54.26c-5.11,0-9.26-4.15-9.26-9.26v0c0-5.11,4.15-9.26,9.26-9.26h0c5.11,0,9.26,4.15,9.26,9.26v0
			C23.94,50.11,19.79,54.26,14.67,54.26z"/>
		<g>
			<path class="st4" d="M14.5,48.63l5.35,2.14c0.19,0.08,0.39-0.11,0.32-0.31l-1.86-5.46c-0.06-0.19-0.31-0.23-0.43-0.07l-0.94,1.28
				l-1.47-1.55c-0.18-0.19-0.48-0.2-0.67-0.02l-0.47,0.45c-0.19,0.18-0.2,0.48-0.02,0.67l1.47,1.55l-1.33,0.88
				C14.29,48.31,14.32,48.56,14.5,48.63z"/>
			<path class="st5" d="M18.15,40c-0.05,0-0.12,0-1.69,0.43l-0.81-0.85c-0.12-0.12-0.31-0.13-0.43-0.01l-0.52,0.5
				c-0.12,0.12-0.13,0.31-0.01,0.43L15,40.83c-0.36,0.1-0.75,0.21-1.19,0.33c-0.25-0.27-0.69-0.75-0.84-0.89
				c-1.06-1.07-3.15-1.28-3.58-0.87c-0.43,0.41-0.31,2.51,0.72,3.61c0.14,0.15,0.58,0.6,0.84,0.85c-0.15,0.44-0.28,0.83-0.4,1.19
				l-0.32-0.34c-0.12-0.12-0.31-0.13-0.43-0.01l-0.52,0.5c-0.12,0.12-0.13,0.31-0.01,0.43l0.81,0.85c-0.51,1.54-0.52,1.61-0.52,1.67
				c-0.02,0.42,0.42,1.1,0.81,1.28c0.26,0.12,0.54,0.06,0.71-0.16c0.42-0.53,1.41-1.75,2.29-2.84c0.14-0.18,0.11-0.44-0.06-0.58
				c-0.18-0.14-0.44-0.11-0.58,0.06c-0.79,0.98-1.66,2.06-2.14,2.65c-0.09-0.11-0.18-0.27-0.21-0.37c0.12-0.42,0.93-2.82,1.43-4.31
				c0.05-0.15,0.01-0.31-0.1-0.42c-0.01-0.01-0.82-0.82-1-1.02c-0.7-0.75-0.78-1.99-0.72-2.42c0.43-0.04,1.67,0.08,2.39,0.82
				c0.19,0.19,0.98,1.05,0.99,1.06c0.1,0.11,0.26,0.16,0.41,0.12c1.51-0.42,3.94-1.1,4.36-1.2c0.1,0.03,0.25,0.14,0.36,0.23
				c-0.62,0.45-1.74,1.26-2.76,1.99c-0.18,0.13-0.23,0.39-0.09,0.57c0.13,0.18,0.39,0.23,0.57,0.09c1.14-0.82,2.41-1.74,2.96-2.13
				c0.02-0.02,0.05-0.04,0.07-0.05c0.18-0.17,0.22-0.41,0.13-0.65C19.22,40.47,18.56,40,18.15,40z"/>
		</g>
	</g>
</g>
</svg>
