<?xml version="1.0" encoding="utf-8"?>
<!-- Generator: Adobe Illustrator 15.1.0, SVG Export Plug-In . SVG Version: 6.00 Build 0)  -->
<!DOCTYPE svg PUBLIC "-//W3C//DTD SVG 1.1//EN" "http://www.w3.org/Graphics/SVG/1.1/DTD/svg11.dtd">
<svg version="1.1" id="Layer_1" xmlns="http://www.w3.org/2000/svg" xmlns:xlink="http://www.w3.org/1999/xlink" x="0px" y="0px"
	 width="77px" height="25px" viewBox="0 0 77 25" enable-background="new 0 0 77 25" xml:space="preserve">
<g>
	<g>
		<path fill="#AE1F24" d="M30.162,2.091h-1.939V0.618h5.682v1.473h-1.939v7.731h-1.804V2.091z"/>
		<path fill="#AE1F24" d="M34.936,0.618h3.596c0.728,0,1.279,0.203,1.656,0.607c0.376,0.405,0.564,0.988,0.564,1.749
			c0,0.376-0.037,0.686-0.111,0.927c-0.072,0.241-0.167,0.438-0.281,0.589c-0.115,0.151-0.242,0.268-0.381,0.35
			s-0.278,0.151-0.417,0.209v0.024c0.271,0.082,0.482,0.184,0.638,0.307c0.156,0.123,0.271,0.282,0.35,0.479
			s0.125,0.436,0.142,0.718s0.024,0.624,0.024,1.024c0,0.147,0.002,0.324,0.006,0.528s0.019,0.407,0.043,0.607
			c0.025,0.2,0.062,0.38,0.111,0.54c0.049,0.159,0.118,0.268,0.208,0.325v0.221H39.12c-0.049-0.303-0.086-0.613-0.109-0.933
			c-0.025-0.319-0.041-0.62-0.05-0.902s-0.015-0.533-0.019-0.755c-0.004-0.221-0.014-0.388-0.03-0.503
			c-0.032-0.212-0.097-0.376-0.19-0.49c-0.094-0.115-0.203-0.198-0.325-0.252c-0.123-0.053-0.253-0.084-0.393-0.092
			c-0.139-0.009-0.27-0.013-0.393-0.013H36.74v3.939h-1.804V0.618z M36.74,4.41h0.872c0.466,0,0.806-0.096,1.019-0.288
			s0.318-0.469,0.318-0.828c0-0.205-0.014-0.383-0.043-0.534c-0.028-0.151-0.092-0.276-0.189-0.374
			c-0.099-0.099-0.235-0.172-0.411-0.221c-0.176-0.05-0.411-0.074-0.706-0.074H36.74V4.41z"/>
		<path fill="#AE1F24" d="M43.698,0.618h2.307l2.062,9.204h-1.805l-0.43-2.393h-2l-0.441,2.393h-1.805L43.698,0.618z M44.079,6.153
			h1.521l-0.736-4.21h-0.025L44.079,6.153z"/>
		<path fill="#AE1F24" d="M47.503,0.618h1.877l1.227,7.731h0.025l1.227-7.731h1.878l-1.951,9.204h-2.331L47.503,0.618z"/>
		<path fill="#AE1F24" d="M54.73,0.618h4.786v1.473h-2.982v2.197h2.799v1.473h-2.799V8.35h3.043v1.473H54.73V0.618z"/>
		<path fill="#AE1F24" d="M60.892,0.618h1.804V8.35h3.166v1.473h-4.97V0.618z"/>
		<path fill="#AE1F24" d="M74.672,9.233c-0.254,0.172-0.468,0.311-0.644,0.417c-0.177,0.106-0.336,0.187-0.479,0.239
			c-0.144,0.054-0.282,0.088-0.417,0.104s-0.285,0.024-0.448,0.024c-0.376,0-0.726-0.067-1.049-0.202
			c-0.323-0.136-0.602-0.325-0.835-0.571C70.567,9,70.385,8.705,70.254,8.362c-0.131-0.344-0.196-0.729-0.196-1.154
			c0-0.441,0.084-0.832,0.252-1.172c0.167-0.339,0.355-0.63,0.564-0.871s0.402-0.432,0.582-0.57c0.181-0.14,0.283-0.229,0.308-0.271
			c-0.033-0.081-0.091-0.19-0.172-0.325c-0.082-0.135-0.168-0.288-0.258-0.46c-0.091-0.172-0.17-0.355-0.239-0.553
			c-0.07-0.196-0.104-0.393-0.104-0.589c0-0.286,0.052-0.55,0.153-0.791c0.103-0.241,0.246-0.45,0.43-0.626s0.406-0.313,0.669-0.411
			c0.262-0.099,0.552-0.147,0.871-0.147c0.671,0,1.213,0.172,1.626,0.516s0.619,0.822,0.619,1.436c0,0.278-0.061,0.536-0.184,0.773
			s-0.266,0.45-0.43,0.638c-0.164,0.188-0.333,0.354-0.509,0.497c-0.177,0.144-0.317,0.26-0.423,0.35l1.055,1.854
			c0.147-0.286,0.241-0.818,0.282-1.596h1.424c0,0.312-0.026,0.622-0.08,0.933c-0.054,0.312-0.12,0.602-0.202,0.872
			c-0.082,0.27-0.172,0.513-0.27,0.729c-0.099,0.217-0.197,0.391-0.295,0.521l1.117,1.878H75.04L74.672,9.233z M72.562,5.613
			c-0.197,0.155-0.352,0.299-0.467,0.43s-0.203,0.253-0.264,0.368c-0.062,0.114-0.103,0.229-0.123,0.343
			c-0.021,0.115-0.03,0.233-0.03,0.356c0,0.196,0.032,0.383,0.099,0.559c0.064,0.176,0.152,0.329,0.264,0.46
			c0.109,0.131,0.238,0.233,0.387,0.307c0.146,0.073,0.302,0.11,0.466,0.11c0.099,0,0.188-0.006,0.271-0.019
			c0.081-0.012,0.163-0.036,0.244-0.073c0.082-0.037,0.168-0.088,0.258-0.153s0.193-0.151,0.307-0.258L72.562,5.613z M72.61,2.349
			c0,0.073,0.018,0.155,0.055,0.245c0.037,0.091,0.082,0.185,0.135,0.282c0.054,0.099,0.111,0.196,0.172,0.295
			c0.062,0.099,0.117,0.192,0.166,0.282c0.082-0.106,0.16-0.2,0.233-0.282s0.137-0.159,0.19-0.233
			c0.053-0.073,0.096-0.153,0.129-0.239c0.032-0.086,0.049-0.19,0.049-0.312c0-0.164-0.058-0.286-0.172-0.368
			c-0.115-0.082-0.246-0.123-0.393-0.123c-0.188,0-0.33,0.045-0.424,0.135C72.657,2.12,72.61,2.226,72.61,2.349z"/>
		<path fill="#AE1F24" d="M31.414,16.817h-1.939v-1.473h5.682v1.473h-1.939v7.731h-1.804V16.817z"/>
		<path fill="#AE1F24" d="M38.225,24.745c-0.655,0-1.178-0.101-1.571-0.301s-0.695-0.499-0.908-0.896s-0.354-0.894-0.423-1.491
			c-0.069-0.597-0.104-1.297-0.104-2.099s0.035-1.503,0.104-2.104s0.21-1.103,0.423-1.503c0.213-0.401,0.516-0.702,0.908-0.902
			s0.916-0.301,1.571-0.301s1.178,0.101,1.571,0.301s0.695,0.501,0.908,0.902c0.213,0.4,0.354,0.901,0.424,1.503
			c0.068,0.602,0.104,1.303,0.104,2.104s-0.035,1.502-0.104,2.099c-0.07,0.598-0.211,1.095-0.424,1.491s-0.516,0.695-0.908,0.896
			S38.88,24.745,38.225,24.745z M37.022,19.959c0,0.516,0.008,0.978,0.024,1.387c0.017,0.409,0.062,0.757,0.135,1.043
			c0.074,0.287,0.192,0.506,0.356,0.657c0.164,0.151,0.393,0.227,0.687,0.227s0.524-0.075,0.688-0.227
			c0.163-0.151,0.281-0.37,0.355-0.657c0.073-0.286,0.118-0.634,0.135-1.043c0.016-0.409,0.024-0.871,0.024-1.387
			c0-0.548-0.006-1.028-0.019-1.441c-0.012-0.413-0.055-0.762-0.129-1.044c-0.073-0.282-0.191-0.494-0.355-0.638
			c-0.164-0.143-0.396-0.215-0.7-0.215c-0.303,0-0.536,0.072-0.699,0.215c-0.164,0.144-0.282,0.355-0.356,0.638
			s-0.117,0.631-0.129,1.044S37.022,19.411,37.022,19.959z"/>
		<path fill="#AE1F24" d="M48.435,21.407c0,0.417-0.025,0.826-0.079,1.228c-0.054,0.4-0.181,0.757-0.38,1.067
			c-0.201,0.311-0.498,0.562-0.891,0.755c-0.393,0.191-0.924,0.288-1.595,0.288s-1.202-0.097-1.596-0.288
			c-0.393-0.192-0.689-0.444-0.89-0.755c-0.201-0.311-0.327-0.667-0.381-1.067c-0.053-0.401-0.079-0.811-0.079-1.228v-6.062h1.804
			v6.062c0,0.295,0.014,0.557,0.043,0.785c0.029,0.229,0.084,0.424,0.166,0.583c0.082,0.16,0.196,0.282,0.344,0.368
			c0.146,0.086,0.344,0.129,0.589,0.129s0.441-0.043,0.589-0.129c0.146-0.086,0.262-0.208,0.344-0.368
			c0.082-0.159,0.137-0.354,0.166-0.583c0.027-0.229,0.043-0.49,0.043-0.785v-6.062h1.803V21.407z"/>
		<path fill="#AE1F24" d="M50.043,15.345h3.596c0.728,0,1.28,0.203,1.657,0.607c0.375,0.405,0.564,0.988,0.564,1.749
			c0,0.376-0.037,0.686-0.111,0.927c-0.073,0.241-0.168,0.438-0.282,0.589s-0.241,0.268-0.38,0.35
			c-0.14,0.082-0.279,0.151-0.418,0.209V19.8c0.271,0.082,0.482,0.184,0.639,0.307c0.155,0.123,0.271,0.282,0.35,0.479
			s0.125,0.436,0.141,0.718c0.017,0.282,0.025,0.624,0.025,1.024c0,0.147,0.002,0.324,0.006,0.528s0.018,0.407,0.043,0.607
			c0.024,0.2,0.061,0.38,0.11,0.54c0.049,0.159,0.118,0.268,0.208,0.325v0.221h-1.963c-0.049-0.303-0.086-0.613-0.11-0.933
			s-0.041-0.62-0.05-0.902c-0.008-0.282-0.014-0.533-0.018-0.755c-0.004-0.221-0.015-0.388-0.031-0.503
			c-0.032-0.212-0.096-0.376-0.189-0.49c-0.095-0.115-0.203-0.198-0.326-0.252c-0.122-0.053-0.253-0.084-0.393-0.092
			c-0.139-0.009-0.27-0.013-0.393-0.013h-0.871v3.939h-1.804V15.345z M51.847,19.137h0.871c0.467,0,0.807-0.096,1.02-0.288
			c0.212-0.192,0.318-0.469,0.318-0.828c0-0.205-0.014-0.383-0.043-0.534s-0.092-0.276-0.189-0.374
			c-0.1-0.099-0.236-0.172-0.412-0.221c-0.176-0.05-0.41-0.074-0.705-0.074h-0.859V19.137z"/>
		<path fill="#AE1F24" d="M57.319,15.345h1.805v9.204h-1.805V15.345z"/>
		<path fill="#AE1F24" d="M64.376,19.383c0.303,0.196,0.562,0.386,0.779,0.57c0.217,0.184,0.395,0.378,0.533,0.583
			c0.14,0.204,0.244,0.43,0.313,0.675s0.104,0.527,0.104,0.847c0,0.851-0.25,1.512-0.748,1.981c-0.5,0.471-1.232,0.706-2.197,0.706
			c-0.557,0-1.004-0.092-1.344-0.276c-0.34-0.184-0.605-0.434-0.798-0.748c-0.192-0.315-0.321-0.682-0.386-1.099
			c-0.066-0.417-0.099-0.859-0.099-1.325h1.693c0.008,0.237,0.019,0.473,0.03,0.705c0.013,0.233,0.049,0.444,0.111,0.633
			c0.061,0.188,0.159,0.342,0.294,0.46c0.136,0.118,0.333,0.178,0.595,0.178c0.336,0,0.594-0.096,0.773-0.288s0.27-0.444,0.27-0.755
			c0-0.172-0.025-0.323-0.079-0.454s-0.125-0.249-0.215-0.355s-0.19-0.201-0.301-0.282c-0.11-0.082-0.223-0.16-0.337-0.233
			l-1.191-0.811c-0.213-0.139-0.414-0.284-0.607-0.436c-0.191-0.151-0.361-0.323-0.509-0.516c-0.147-0.191-0.266-0.415-0.356-0.668
			c-0.09-0.254-0.135-0.553-0.135-0.896c0-0.376,0.066-0.716,0.197-1.019s0.314-0.559,0.552-0.767
			c0.237-0.209,0.52-0.368,0.847-0.479s0.688-0.166,1.08-0.166c0.572,0,1.035,0.086,1.387,0.258s0.623,0.401,0.816,0.688
			c0.191,0.286,0.32,0.611,0.387,0.976c0.064,0.364,0.098,0.734,0.098,1.11h-1.693c0-0.114-0.006-0.26-0.019-0.436
			s-0.05-0.348-0.11-0.516c-0.062-0.167-0.16-0.311-0.295-0.43c-0.135-0.118-0.329-0.178-0.582-0.178
			c-0.238,0-0.44,0.076-0.607,0.228c-0.168,0.151-0.252,0.346-0.252,0.582c0,0.238,0.071,0.442,0.215,0.614
			c0.143,0.172,0.361,0.36,0.656,0.564L64.376,19.383z"/>
		<path fill="#AE1F24" d="M67.31,15.345h2.688l1.165,6.014h0.024l1.166-6.014h2.688v9.204h-1.619V16.56h-0.025l-1.682,7.989h-1.079
			l-1.682-7.989h-0.024v7.989H67.31V15.345z"/>
	</g>
	<g>
		<path fill="#AE1F24" d="M16.537,16.975l0.409,1.063c0.267,0.698,0.819,1.051,1.651,1.051h0.583v0.977h-7.455v-0.977h0.595
			c0.772,0,1.32-0.084,1.64-0.256c0.221-0.123,0.333-0.308,0.333-0.552c0-0.148-0.03-0.301-0.091-0.465l-0.322-0.842H16.537z
			 M13.398,8.802l2.662,6.927h-2.657l-0.746-1.946H11.41l0.401-1.003h0.463l-0.226-0.593L13.398,8.802z M9.37,0.604h0.88
			l2.476,6.444l-1.35,3.381L9.021,4.27l-3.331,8.51h4.748l-0.401,1.003H5.271l-0.875,2.314c-0.229,0.615-0.345,1.104-0.345,1.465
			c0,0.419,0.194,0.779,0.578,1.078c0.383,0.3,0.94,0.449,1.673,0.449h0.634v0.977H0.156v-0.977c0.725,0,1.298-0.162,1.721-0.484
			c0.422-0.319,0.811-0.929,1.165-1.831L9.37,0.604z"/>
		<path fill="#D2AA68" d="M14.845,5.178l-4.214,10.554h8.331L14.845,5.178z M15.287,0.632h1.114l8.472,21.622
			c0.338,0.868,1.037,1.305,2.091,1.305H27.7v1.211h-9.432v-1.211h0.752c0.978,0,1.671-0.103,2.074-0.316
			c0.278-0.154,0.421-0.383,0.421-0.688c0-0.182-0.039-0.371-0.115-0.574l-1.955-5.005h-9.346l-1.107,2.871
			c-0.291,0.764-0.438,1.37-0.438,1.818c0,0.519,0.246,0.966,0.731,1.337c0.486,0.372,1.19,0.557,2.118,0.557h0.802v1.211H3.627
			v-1.211c0.917,0,1.644-0.202,2.178-0.6c0.534-0.399,1.026-1.152,1.474-2.271L15.287,0.632z"/>
		<path fill="none" stroke="#FFFFFF" stroke-width="1.5001" stroke-miterlimit="2.6131" d="M14.845,5.178l-4.214,10.554h8.331
			L14.845,5.178z M15.287,0.632h1.114l8.472,21.622c0.338,0.868,1.037,1.305,2.091,1.305H27.7v1.211h-9.432v-1.211h0.752
			c0.978,0,1.671-0.103,2.074-0.316c0.278-0.154,0.421-0.383,0.421-0.688c0-0.182-0.039-0.371-0.115-0.574l-1.955-5.005h-9.346
			l-1.107,2.871c-0.291,0.764-0.438,1.37-0.438,1.818c0,0.519,0.246,0.966,0.731,1.337c0.486,0.372,1.19,0.557,2.118,0.557h0.802
			v1.211H3.627v-1.211c0.917,0,1.644-0.202,2.178-0.6c0.534-0.399,1.026-1.152,1.474-2.271L15.287,0.632z"/>
		<path fill="#AE1F24" d="M14.847,5.176l-4.215,10.553h8.331L14.847,5.176z M15.289,0.63h1.113l8.474,21.624
			c0.338,0.868,1.037,1.305,2.091,1.305h0.737v1.211H18.27v-1.211h0.753c0.978,0,1.671-0.103,2.075-0.316
			c0.278-0.154,0.42-0.383,0.42-0.688c0-0.182-0.038-0.371-0.114-0.574l-1.955-5.006h-9.346l-1.108,2.872
			c-0.289,0.764-0.438,1.37-0.438,1.818c0,0.519,0.246,0.966,0.732,1.337c0.486,0.37,1.19,0.557,2.118,0.557h0.803v1.211H3.628
			v-1.211c0.916,0,1.644-0.202,2.178-0.6c0.535-0.399,1.026-1.152,1.474-2.272L15.289,0.63z"/>
	</g>
</g>
</svg>
