<?xml version="1.0" encoding="utf-8"?>
<!-- Generator: Adobe Illustrator 16.0.0, SVG Export Plug-In . SVG Version: 6.00 Build 0)  -->
<!DOCTYPE svg PUBLIC "-//W3C//DTD SVG 1.1//EN" "http://www.w3.org/Graphics/SVG/1.1/DTD/svg11.dtd">
<svg version="1.1" id="Layer_1" xmlns="http://www.w3.org/2000/svg" xmlns:xlink="http://www.w3.org/1999/xlink" x="0px" y="0px"
	 width="366px" height="230px" viewBox="0 0 366 230" enable-background="new 0 0 366 230" xml:space="preserve">
<path fill-rule="evenodd" clip-rule="evenodd" fill="#82BC41" d="M221.977,209.835c-11.414,3.221-23.393,6.096-35.915,8.466
	c-6.266,1.18-12.658,2.242-19.174,3.138c-6.521,0.893-13.155,1.632-19.874,2.185c-6.724,0.534-13.533,0.876-20.354,0.97
	c-6.819,0.104-13.648-0.075-20.348-0.537c-0.843-0.048-1.674-0.122-2.506-0.191c-0.833-0.072-1.667-0.131-2.496-0.214
	c-1.645-0.169-3.299-0.323-4.919-0.532l-1.222-0.146c-0.409-0.049-0.813-0.1-1.214-0.156l-2.406-0.34
	c-0.807-0.107-1.583-0.249-2.374-0.372c-0.791-0.126-1.582-0.251-2.351-0.399l-2.323-0.423l-2.278-0.465
	c-0.375-0.08-0.762-0.151-1.129-0.237l-1.111-0.253c-0.736-0.175-1.491-0.331-2.208-0.518c-2.914-0.71-5.696-1.512-8.379-2.362
	c-2.65-0.871-5.186-1.799-7.57-2.792c-0.596-0.249-1.167-0.508-1.752-0.761l-0.867-0.382l-0.832-0.398
	c-0.548-0.266-1.115-0.526-1.653-0.797l-1.585-0.822c-2.065-1.11-4.029-2.256-5.775-3.462c-0.916-0.59-1.71-1.212-2.557-1.82
	c-0.404-0.31-0.784-0.625-1.181-0.937l-0.585-0.467c-0.191-0.156-0.368-0.317-0.552-0.476l-1.089-0.954
	c-0.35-0.32-0.678-0.646-1.016-0.97c-0.695-0.641-1.27-1.307-1.899-1.959c-1.167-1.326-2.263-2.661-3.175-4.021
	c-1.862-2.716-3.261-5.488-4.199-8.292c-1.897-5.609-2.167-11.31-1.302-16.974c0.864-5.668,2.866-11.307,5.648-16.872
	c0.216-0.442,0.452-0.883,0.684-1.323H23.692c-0.03,0.077-0.059,0.156-0.088,0.236c-2.227,5.876-3.507,11.829-3.54,17.798
	c-0.019,5.966,1.214,11.95,4.128,17.808c1.442,2.93,3.371,5.819,5.781,8.635c1.185,1.411,2.561,2.795,4.011,4.16
	c0.772,0.675,1.486,1.36,2.329,2.022l1.225,0.997l1.296,0.98c0.221,0.164,0.426,0.329,0.655,0.489l0.692,0.48
	c0.464,0.32,0.913,0.642,1.387,0.958c0.987,0.625,1.921,1.259,2.979,1.862c2.03,1.229,4.268,2.395,6.597,3.521l1.785,0.83
	c0.603,0.274,1.236,0.538,1.854,0.805l0.931,0.4l0.968,0.383c0.651,0.254,1.288,0.514,1.946,0.762
	c2.653,0.99,5.435,1.915,8.319,2.774l2.205,0.616c0.372,0.103,0.732,0.21,1.111,0.307l1.134,0.287
	c0.758,0.188,1.497,0.391,2.274,0.566l2.321,0.534c0.77,0.179,1.576,0.33,2.359,0.496l1.188,0.244
	c0.395,0.082,0.802,0.151,1.204,0.228l2.414,0.445l2.454,0.401c0.813,0.138,1.649,0.253,2.476,0.371
	c0.837,0.116,1.656,0.246,2.499,0.35l2.518,0.31c0.419,0.057,0.843,0.104,1.265,0.146l1.274,0.135
	c1.691,0.191,3.409,0.325,5.118,0.476c0.856,0.073,1.721,0.123,2.579,0.187c0.861,0.059,1.723,0.125,2.587,0.163l2.595,0.138
	c0.865,0.042,1.733,0.065,2.601,0.1c1.734,0.075,3.474,0.097,5.207,0.136c0.869,0.021,1.741,0.013,2.608,0.021
	c0.869,0,1.738,0.017,2.606,0.006l2.602-0.026c0.434-0.006,0.868-0.006,1.302-0.017l1.3-0.029c6.929-0.162,13.814-0.55,20.592-1.135
	c6.781-0.585,13.464-1.358,20.014-2.285c6.55-0.929,12.989-1.993,19.287-3.192c12.6-2.39,24.666-5.254,36.238-8.436
	c5.777-1.594,11.455-3.254,16.984-5c3.533-1.118,7.025-2.262,10.471-3.428c-1.086-0.02-2.172-0.043-3.26-0.065
	C239.027,204.731,230.672,207.388,221.977,209.835z"/>
<path fill-rule="evenodd" clip-rule="evenodd" fill="#82BC41" d="M82.319,62.257c5.912-3.268,22.867-12.544,29.251-15.624
	c4.219-2.038,8.545-4.031,12.975-5.973c4.439-1.938,8.988-3.823,13.636-5.653c9.302-3.658,19.036-7.088,29.25-10.18
	c10.209-3.09,20.868-5.867,31.976-8.161c11.102-2.292,22.662-4.101,34.486-5.2c5.91-0.54,11.881-0.898,17.84-1.035
	c5.961-0.146,11.912-0.031,17.748,0.335c0.732,0.037,1.455,0.099,2.182,0.155c0.723,0.059,1.455,0.105,2.17,0.174
	c1.438,0.143,2.881,0.266,4.291,0.443l1.064,0.124c0.357,0.04,0.709,0.083,1.059,0.132l2.098,0.288
	c0.703,0.092,1.381,0.213,2.076,0.319c0.689,0.108,1.381,0.214,2.053,0.341l2.033,0.366l1.996,0.403
	c0.33,0.069,0.668,0.131,0.996,0.206l0.975,0.222c0.646,0.151,1.311,0.288,1.941,0.45c2.568,0.621,5.027,1.33,7.418,2.082
	c2.361,0.773,4.633,1.602,6.793,2.492c0.537,0.223,1.053,0.457,1.584,0.685L311,19.991l0.754,0.36
	c0.504,0.241,1.021,0.476,1.512,0.721l1.451,0.748c1.9,1.013,3.723,2.061,5.365,3.172c0.859,0.543,1.615,1.12,2.416,1.683
	c0.387,0.286,0.75,0.579,1.125,0.868l0.559,0.435c0.188,0.146,0.354,0.295,0.531,0.443l1.053,0.89
	c0.334,0.3,0.656,0.605,0.986,0.907c0.678,0.6,1.25,1.226,1.875,1.84c1.16,1.246,2.26,2.507,3.201,3.799
	c1.92,2.577,3.432,5.229,4.527,7.929c1.686,4.06,2.549,8.206,2.746,12.375h9.844c-0.035-4.399-0.775-8.814-2.424-13.193
	c-1.086-2.896-2.625-5.771-4.627-8.594c-0.986-1.415-2.146-2.807-3.387-4.188c-0.666-0.683-1.279-1.375-2.008-2.046
	c-0.355-0.338-0.703-0.677-1.066-1.014l-1.143-0.999c-0.193-0.166-0.375-0.334-0.574-0.499l-0.611-0.492
	c-0.412-0.326-0.809-0.654-1.23-0.979c-0.879-0.639-1.713-1.291-2.666-1.913c-1.818-1.265-3.852-2.473-5.984-3.644l-1.639-0.866
	c-0.557-0.285-1.141-0.56-1.707-0.841l-0.861-0.418l-0.898-0.403c-0.6-0.267-1.188-0.54-1.805-0.802
	c-2.463-1.045-5.068-2.024-7.787-2.94c-2.752-0.894-5.598-1.736-8.57-2.479c-0.732-0.194-1.498-0.359-2.246-0.54l-1.131-0.265
	c-0.377-0.088-0.768-0.164-1.15-0.247l-2.309-0.483l-2.35-0.441c-0.779-0.152-1.58-0.28-2.375-0.412
	c-0.799-0.127-1.59-0.271-2.396-0.384l-2.42-0.348c-0.402-0.06-0.807-0.113-1.215-0.162l-1.229-0.15
	c-1.621-0.213-3.277-0.369-4.92-0.541c-0.824-0.083-1.654-0.143-2.482-0.216c-0.832-0.069-1.656-0.144-2.492-0.192
	c-6.654-0.461-13.371-0.626-20.027-0.506c-6.656,0.11-13.248,0.466-19.727,1.017c-12.959,1.12-25.459,2.995-37.396,5.342
	c-11.945,2.353-23.35,5.18-34.231,8.335c-5.436,1.58-10.76,3.233-15.95,4.966c-5.189,1.731-10.253,3.532-15.203,5.394
	s-9.774,3.785-14.494,5.759c-4.707,1.98-9.298,4.012-13.786,6.089c-8.012,3.744-11.246,5.222-16.549,8.121
	c-0.735,0.416-4.752,2.628-5.481,3.046L82.319,62.257z"/>
<path fill-rule="evenodd" clip-rule="evenodd" fill="#2BA9C4" d="M266.598,217.81l1.598-6.323l1.492-0.64l0.143,0.284l1.465-0.744
	c0.252-0.128,0.354-0.438,0.225-0.689l-0.521-1.026c-0.129-0.254-0.436-0.354-0.689-0.226l-1.463,0.745l0.143,0.283l-0.336,0.198
	l1.77-6.994l1.59-0.683l0.145,0.284l1.465-0.745c0.254-0.128,0.354-0.437,0.225-0.69l-0.521-1.025
	c-0.127-0.252-0.438-0.354-0.689-0.225l-1.465,0.744l0.145,0.284l-0.441,0.262l2.34-9.261l4.127-2.082
	c3.623-2.069,5.889-3.635,7.303-4.801c-0.002,0.001,1.715-0.87,1.715-0.87c0.83-0.423,1.158-1.437,0.738-2.264
	c-0.424-0.829-1.436-1.159-2.264-0.737l-1.717,0.871c-1.775,0.454-4.375,1.361-8.18,3.068l-4.115,2.106l-8.859-3.569l0.471-0.199
	l0.145,0.282l1.465-0.743c0.252-0.128,0.354-0.438,0.225-0.69l-0.521-1.026c-0.127-0.252-0.438-0.354-0.689-0.226l-1.463,0.744
	l0.143,0.286l-1.49,0.883l-6.691-2.696l0.357-0.154l0.145,0.284l1.465-0.744c0.252-0.129,0.354-0.437,0.225-0.69l-0.521-1.025
	c-0.129-0.253-0.438-0.354-0.691-0.225l-1.463,0.744l0.145,0.282l-1.396,0.829l-6.051-2.437c-1.201-0.484-2.566-0.312-3.609,0.455
	l-1.018,0.749l0.723,0.456l1.709,1.081l5.648,3.575l-0.598,0.567l1.039-0.291l2.457,1.558l-0.578,0.548l1.004-0.281l1.242,0.788
	l2.172,2.12l-0.076-0.024l-0.814,0.69l1.182-0.383l1.734,1.695l-0.057-0.02l-0.816,0.691l1.174-0.38l1.955,1.91l-9.299,4.757
	c-0.643,0.331-1.268,0.692-1.875,1.087c-1.477,0.965-3.516,2.388-5.424,3.744l-8.969-3.296c-0.273-0.103-0.576-0.084-0.834,0.048
	l-1.398,0.711l0.172,0.187l5.682,6.213c-0.256,0.182-0.449,0.434-0.559,0.724l-0.025,0.072l-1.273,0.778l1.379-0.57l0.072,0.02
	c0.301,0.083,0.617,0.075,0.914-0.022l1.719,8.5l1.398-0.711c0.26-0.131,0.453-0.365,0.531-0.646l2.625-9.189
	c2.219-0.74,4.572-1.549,6.221-2.175c0.676-0.256,1.336-0.55,1.984-0.875l9.322-4.705l0.391,2.704l-0.998,0.727l1.037-0.253
	l0.02-0.06l0.346,2.401l-1.004,0.73l1.037-0.252l0.025-0.077l0.434,3.004l-0.098,1.469l-0.818,0.646l0.785-0.145l-0.191,2.903
	l-0.846,0.668l0.809-0.149l-0.633,9.542l1.203-0.383C265.336,220.067,266.281,219.065,266.598,217.81z"/>
<path fill-rule="evenodd" clip-rule="evenodd" fill="#204D92" d="M39.191,42.719h3.703l9.62,25.046l-5.698,14.167l-9.094-23.785
	L23.707,93.945h18.276l-1.698,4.221h-18.34l-3.686,9.743c-0.96,2.594-1.45,4.647-1.45,6.166c0,1.761,0.814,3.277,2.431,4.538
	c1.618,1.26,3.958,1.888,7.044,1.888h2.668v4.112H0.418v-4.112c3.049,0,5.463-0.683,7.242-2.035c1.779-1.354,3.412-3.907,4.9-7.705
	L39.191,42.719L39.191,42.719z M64.099,42.82l-33.703,84.405c-1.884,4.709-3.951,7.88-6.203,9.558
	c-2.251,1.677-5.307,2.527-9.165,2.527v5.101h36.114v-5.101h-3.378c-3.905,0-6.869-0.781-8.913-2.343
	c-2.045-1.563-3.079-3.447-3.079-5.63c0-1.884,0.62-4.435,1.838-7.649l4.663-12.084h39.331l8.225,21.067
	c0.321,0.85,0.481,1.654,0.481,2.412c0,1.286-0.597,2.252-1.769,2.895c-1.7,0.896-4.618,1.333-8.73,1.333h-3.17v5.101h39.699v-5.101
	h-3.101c-4.435,0-7.375-1.839-8.799-5.49l-35.656-91H64.099L64.099,42.82z M62.238,61.958l-17.735,44.408h35.058L62.238,61.958
	L62.238,61.958z M56.671,78.589l0.379,1.002l-7.008,18.576h2.983l2.56,6.688l11.152-0.062L56.671,78.589L56.671,78.589z
	 M69.95,113.16l-11.2-0.033l0.774,2.022c0.254,0.687,0.38,1.333,0.38,1.946c0,1.035-0.471,1.813-1.396,2.333
	c-1.343,0.722-3.648,1.072-6.899,1.072h-2.505v4.112h31.37v-4.112h-2.452c-3.504,0-5.826-1.479-6.952-4.425L69.95,113.16z"/>
<polygon fill-rule="evenodd" clip-rule="evenodd" fill="#204D92" points="121.214,74.146 131.14,74.146 131.14,112.881 
	139.613,112.881 139.613,74.146 149.479,74.146 149.479,67.489 121.214,67.489 "/>
<path fill-rule="evenodd" clip-rule="evenodd" fill="#204D92" d="M164.427,93.332c2.421,0,4.903-0.061,7.203,0.605
	c2.905,0.847,2.845,4.66,2.905,7.444c0.06,3.027-0.121,8.594,0.908,11.5h9.321v-0.847c-2.058-1.332-1.816-12.468-1.816-14.344
	c0-4.357-1.513-7.565-6.537-8.231v-0.122c5.689-0.787,6.96-5.992,6.96-10.955c0-8.353-5.567-10.894-12.892-10.894h-16.038v45.392
	h8.473V93.332H164.427L164.427,93.332z M162.915,74.146h6.294c3.208,0.061,5.327,0.908,5.327,5.992c0,4.54-2.179,6.356-4.963,6.537
	h-6.658V74.146z"/>
<path fill-rule="evenodd" clip-rule="evenodd" fill="#204D92" d="M197.049,112.881l2.24-11.5h9.926l2.24,11.5h9.078l-10.289-45.392
	h-11.439l-10.834,45.392H197.049L197.049,112.881z M203.162,81.833c0.424-2.119,0.605-4.176,0.848-6.295
	c0.061-1.029,0.182-2.057,0.303-3.026h0.121c0.121,0.969,0.242,1.997,0.303,3.026c0.242,2.119,0.424,4.176,0.848,6.295l2.299,12.891
	h-7.262L203.162,81.833z"/>
<path fill-rule="evenodd" clip-rule="evenodd" fill="#204D92" d="M237.42,96.6c-0.484,2.542-0.789,5.145-1.029,7.747
	c-0.121,1.211-0.363,2.482-0.363,3.752h-0.121c0-1.271-0.242-2.542-0.363-3.752c-0.242-2.602-0.545-5.205-1.029-7.747l-5.326-29.111
	h-9.076l10.045,45.392h11.318l9.805-45.392h-9.078L237.42,96.6z"/>
<polygon fill-rule="evenodd" clip-rule="evenodd" fill="#204D92" points="280.209,112.881 280.209,106.223 264.836,106.223 
	264.836,92.243 278.998,92.243 278.998,85.584 264.836,85.584 264.836,74.146 280.209,74.146 280.209,67.489 256.363,67.489 
	256.363,112.881 "/>
<polygon fill-rule="evenodd" clip-rule="evenodd" fill="#204D92" points="311.076,112.881 311.076,106.223 295.34,106.223 
	295.34,67.489 286.867,67.489 286.867,112.881 "/>
<path fill-rule="evenodd" clip-rule="evenodd" fill="#204D92" d="M346.664,81.53c-0.846-1.816-2.42-3.995-2.42-6.113
	c0-2.118,1.393-3.026,2.904-2.965c1.514,0.061,3.027,1.453,3.027,3.571C350.176,78.382,348.359,80.198,346.664,81.53L346.664,81.53z
	 M350.115,87.158c4.115-2.542,6.898-6.355,6.898-11.318c0-5.931-4.779-9.441-9.563-9.441c-5.023,0-10.469,2.663-10.469,9.805
	c0,3.571,1.814,6.778,3.57,9.805c-5.205,3.692-8.594,7.566-8.594,14.284c0,7.747,5.143,13.679,12.104,13.679
	c4.236,0,7.443-0.908,10.592-3.935l1.635,3.026h9.078l-5.447-9.079c2.723-4.661,3.994-9.865,3.994-15.252h-6.719
	c-0.121,2.784-0.543,5.628-1.391,8.292L350.115,87.158L350.115,87.158z M351.445,104.649c-1.572,1.393-3.328,2.483-5.506,2.483
	c-3.512,0-5.568-3.632-6.053-6.961c-0.605-4.055,2.662-7.444,4.236-8.049L351.445,104.649z"/>
<polygon fill-rule="evenodd" clip-rule="evenodd" fill="#204D92" points="121.214,131.29 131.14,131.29 131.14,170.025 
	139.613,170.025 139.613,131.29 149.479,131.29 149.479,124.633 121.214,124.633 "/>
<path fill-rule="evenodd" clip-rule="evenodd" fill="#204D92" d="M154.139,150.174c0,12.104,0.908,20.94,14.828,20.94
	s14.828-8.836,14.828-20.94v-6.477c-0.363-11.561-1.271-20.154-14.828-20.154c-13.557,0-14.465,8.594-14.828,20.154V150.174
	L154.139,150.174z M162.854,141.82c0-3.51-0.545-11.439,6.113-11.439c6.294,0,6.113,8.051,6.113,11.683v11.62
	c0,4.357-0.061,10.592-6.113,10.592c-5.81,0-6.113-6.114-6.113-9.866V141.82z"/>
<path fill-rule="evenodd" clip-rule="evenodd" fill="#204D92" d="M211.877,155.56c0,4.357-0.301,8.716-5.809,8.716
	c-5.75,0-6.053-4.358-6.053-8.716v-30.927h-8.475v31.652c0,10.047,3.27,14.829,14.467,14.829c11.076,0,14.344-4.782,14.344-14.829
	v-31.652h-8.475V155.56z"/>
<path fill-rule="evenodd" clip-rule="evenodd" fill="#204D92" d="M238.387,150.476c2.422,0,4.904-0.061,7.203,0.604
	c2.906,0.848,2.844,4.66,2.906,7.445c0.059,3.026-0.123,8.594,0.906,11.5h9.32v-0.849c-2.057-1.331-1.814-12.468-1.814-14.344
	c0-4.357-1.514-7.565-6.537-8.23v-0.121c5.689-0.788,6.961-5.993,6.961-10.955c0-8.353-5.568-10.894-12.893-10.894h-16.037v45.393
	h8.471v-19.55H238.387L238.387,150.476z M236.873,131.29h6.295c3.209,0.06,5.328,0.907,5.328,5.992c0,4.538-2.18,6.354-4.963,6.535
	h-6.66V131.29z"/>
<rect x="265.563" y="124.633" fill-rule="evenodd" clip-rule="evenodd" fill="#204D92" width="8.475" height="45.393"/>
<path fill-rule="evenodd" clip-rule="evenodd" fill="#204D92" d="M307.809,138.432c-0.063-4.479,0.303-14.889-13.195-14.889
	c-8.957,0-13.313,4.236-13.313,11.983c0,2.421,0.785,4.901,2.178,6.959c3.449,4.54,8.957,7.021,13.375,10.472
	c2.18,1.514,3.389,3.328,3.389,5.992c0,3.45-1.693,5.326-5.266,5.326c-4.176,0-5.506-3.208-5.326-7.626v-2.663h-8.473v3.329
	c0,8.109,3.631,13.799,13.799,13.799c8.293,0,13.982-4.479,13.982-13.073c0-3.934-0.908-6.657-3.814-9.503
	c-2.359-2.3-7.504-5.689-10.287-7.444c-2.664-1.694-4.844-3.026-4.844-6.476c0-3.086,1.816-4.237,4.66-4.237
	c4.66,0,5.025,3.996,4.965,8.051H307.809z"/>
<path fill-rule="evenodd" clip-rule="evenodd" fill="#204D92" d="M324.391,155.74c0-9.018-0.18-18.034-0.727-27.054h0.305
	l8.896,41.339h5.145l9.078-41.339h0.121c-0.545,9.02-0.727,18.036-0.727,27.054v14.285h8.475v-45.393H341.52l-4.539,21.061
	c-0.605,2.966-0.908,5.992-1.33,10.472h-0.123c-0.363-3.511-0.848-7.021-1.572-10.472l-4.541-21.061h-13.496v45.393h8.473V155.74z"
	/>
</svg>
