<?xml version="1.0" encoding="utf-8"?>
<!-- Generator: Adobe Illustrator 22.0.0, SVG Export Plug-In . SVG Version: 6.00 Build 0)  -->
<svg version="1.1" id="Layer_1" xmlns="http://www.w3.org/2000/svg" xmlns:xlink="http://www.w3.org/1999/xlink" x="0px" y="0px"
	 viewBox="0 0 287.3 94.3" style="enable-background:new 0 0 287.3 94.3;" xml:space="preserve">
<style type="text/css">
	.st0{fill:#FFFFFF;}
</style>
<g>
	<g>
		<g>
			<path class="st0" d="M15.4,68.5c0,0,11.5,1.5,23-12.7C48,45.4,58,45.1,58,45.1s-15.4,3.7-18.6-3.5c-3-8.4,8-10.8,8-10.8
				l-11.9,2.5L15.4,68.5z"/>
			<path class="st0" d="M81.4,68.5c0,0-5-8.7-9.5-16.1c-4.4-7.5-13-7.3-13-7.3s-10,0.5-17.8,7.7C24.6,70.7,15.4,68.5,15.4,68.5
				S25.6,71,38,59.6c0.7-0.7,9.5-11,20-1.1C68.2,70.2,81.4,68.5,81.4,68.5z"/>
			<path class="st0" d="M64.1,38.5L48.4,11.2L30.7,41.6c0,0,8.4-9.5,17.7-10.8C57.6,29.6,64.1,38.5,64.1,38.5z"/>
		</g>
		<g>
			<g id="_x33_OEIDS_4_">
				<g>
					<path class="st0" d="M53.1,3.8c-4.5-0.5-8.7-0.2-12.3,0.4C37,4.9,33.7,6,30.5,7.4C21.2,11.7,13.8,18.7,9,28.6
						c-1.6,3.3-3,7.2-3.6,11.6c-1.3,9.1,0,15.7,2.2,22c0.2,0.5,0.3,1.1,0.7,1.1c0.7,0,0.4-0.9,0.3-1.1c-2.4-6.4-3.8-14.6-1.9-23.9
						c1.9-9.1,6.2-15.8,11-20.7c5.1-5.2,11-9.1,18.4-11.3c5.5-1.6,11.8-2.5,19.4-1.2c1.7,0.3,3.4,0.7,5.1,1.1
						c0.4,0.1,1.4,0.4,1.3-0.3c0-0.4-1.2-0.6-1.8-0.7C58,4.6,55.2,4,53.1,3.8C53.2,3.8,53.1,3.8,53.1,3.8z M63.6,91.8
						c7.7-2.5,14.2-7,19.5-12.7c6.5-6.9,12-17,12.5-30.6c0.3-6.9-1-12.6-3-17.9c-0.2-0.6-0.3-1.2-0.8-1.2c-0.5,0-1.1,0.3-1.4,0.8
						C93,37,94.8,45.8,92.7,56c-1.9,9.4-6.1,16.3-11.1,21.7c-5,5.4-11.2,9.5-18.6,12.2c-7.1,2.6-16.8,3.5-26.6,0.8
						c-0.5,0.3-0.8,1.1-0.8,1.8C46.2,95.5,55.9,94.3,63.6,91.8z M88.3,31.9c1.1,2.9,2.1,6.7,2.5,9.8c0.5,4.2,0.5,8.7-0.5,13.6
						c-1.8,9.1-5.8,15.6-10.6,20.8c-2.6,2.8-5,4.8-8.1,6.8c-6,3.9-12.8,6.5-21.6,6.8c-3.7,0.1-8.4-0.3-12.1-1.3
						c-0.1,0-0.4-0.2-0.8-0.1c-0.1,0-0.5,0.3-0.4,0.6c0.1,0.3,1.1,0.4,1.5,0.5c4,1,8.5,1.4,12.3,1.2c8.8-0.4,15.7-3.2,21.8-7
						c3.1-2,5.6-4,8.2-6.9c4.8-5.2,8.9-11.9,10.7-21.1c1.9-9.5,0.4-17.3-2-23.8c-0.1-0.4-0.3-1.1-0.7-1.2c-0.1,0-0.1,0-0.1,0
						C87.7,30.8,88.2,31.6,88.3,31.9z"/>
					<path class="st0" d="M52.6,0.1c1,0.1,2,0.2,3.1,0.4c0,0,0,0.1,0.1,0.1c1.9,0.2,3.8,0.7,5.6,1.2c0.5,0.1,1.5,0.3,1.6,0.6
						C63.2,3,62.4,3.9,62,4c-0.4,0.1-1.1-0.3-1.6-0.4C56.3,2.4,51.8,1.9,47.6,2C42.8,2.1,38.8,2.8,35,4c-7.6,2.3-13.8,6.4-19.1,11.9
						c-5.3,5.5-9.5,12.3-11.5,21.5c-2.2,9.7-0.8,18.3,1.6,25c0.1,0.4,0.5,1.1,0.4,1.4c-0.1,0.4-1.1,1-1.6,0.8
						c-0.2-0.1-0.4-0.9-0.6-1.2C3.7,62,3.3,60.7,3,59.3c-1.5-5.6-2.3-12.1-1-19.6c1.6-9.5,5.2-16.5,9.8-22.2
						c4.6-5.6,10.3-10.1,16.9-13.2C35.4,1.2,43-0.5,52.6,0.1z"/>
					<path class="st0" d="M53.2,3.8C55.2,4,58,4.6,60.1,5.2c0.6,0.2,1.8,0.3,1.8,0.7c0.1,0.7-0.9,0.4-1.3,0.3
						c-1.6-0.5-3.3-0.8-5.1-1.1c-7.6-1.3-13.9-0.4-19.4,1.2c-7.4,2.2-13.3,6.1-18.4,11.3c-4.8,5-9.1,11.6-11,20.7
						c-1.9,9.3-0.5,17.5,1.9,23.9c0.1,0.2,0.4,1.2-0.3,1.1c-0.4,0-0.5-0.6-0.7-1.1c-2.2-6.3-3.5-12.9-2.2-22c0.6-4.4,2-8.3,3.6-11.6
						c4.7-10,12.1-16.9,21.5-21.2C33.7,6,37,4.9,40.8,4.3C44.4,3.6,48.6,3.3,53.2,3.8C53.1,3.8,53.2,3.8,53.2,3.8z"/>
					<path class="st0" d="M35.7,92.5c0-0.7,0.3-1.5,0.8-1.8c9.8,2.6,19.5,1.7,26.6-0.8c7.4-2.7,13.6-6.7,18.6-12.2
						c5-5.4,9.2-12.3,11.1-21.7c2-10.2,0.3-19-2.4-25.9c0.3-0.4,0.9-0.8,1.4-0.8c0.5,0,0.6,0.6,0.8,1.2c2,5.3,3.3,11,3,17.9
						c-0.5,13.6-6,23.7-12.5,30.6c-5.3,5.6-11.8,10.2-19.5,12.7C55.9,94.3,46.2,95.5,35.7,92.5z"/>
					<path class="st0" d="M88.4,30.7C88.4,30.7,88.5,30.6,88.4,30.7c0.5,0,0.7,0.7,0.8,1.1c2.4,6.5,3.9,14.3,2,23.8
						c-1.8,9.2-5.9,15.9-10.7,21.1c-2.7,2.9-5.2,5-8.2,6.9c-6,3.9-13,6.7-21.8,7c-3.8,0.2-8.4-0.3-12.3-1.2
						c-0.4-0.1-1.4-0.2-1.5-0.5c-0.1-0.3,0.3-0.6,0.4-0.6c0.3-0.1,0.7,0.1,0.8,0.1c3.7,1,8.4,1.4,12.1,1.3
						c8.8-0.3,15.7-2.9,21.6-6.8c3.1-2,5.5-4,8.1-6.8c4.8-5.2,8.8-11.7,10.6-20.8c1-4.9,1-9.4,0.5-13.6c-0.4-3.1-1.4-6.9-2.5-9.8
						C88.2,31.6,87.7,30.8,88.4,30.7z"/>
				</g>
			</g>
			<circle class="st0" cx="86.7" cy="21" r="2"/>
			<circle class="st0" cx="10.4" cy="73.4" r="2"/>
			<path class="st0" d="M68.6,4.2c1.1,0.3,0.9,0.1,1.3,2c0.4,1.6-0.1,1.1,1.3,1.9c1.3,0.7,3.1,2.2,4.1,2.7c0.5-0.7,1.2-4.9,1.7-6.1
				c0.3,0.2,0.5,0.3,0.7,0.5c0.5,0.3,0.4,0.2,0.4,0.8c0,1.4,0.2,6.1,0.3,6.9c0.9,0.7,3.6,2.3,4.1,3.2c0.2,0.4,0.5,1.1-0.1,1.3
				c-1.4,0.4-3.4-1.3-4.8-2.4c-0.6-0.4-0.4-0.3-1.1,0c-0.8,0.3-6.1,2.2-6.5,2.2c-0.1,0-0.9-0.6-1.1-0.7c0.4-0.3,0.8-0.7,1.3-1
				l2.6-1.9c0.4-0.3,0.9-0.7,1.3-1c-0.7-0.5-1.4-0.9-2.1-1.4c-3.6-2.3-2.1-2.3-4.4-2.1c-1.2,0.2-1.8,0.5-2.3-0.5
				C67.6,7.6,68.5,6.3,68.6,4.2L68.6,4.2z"/>
			<path class="st0" d="M30.4,90.4c-1.1-0.3-0.9-0.1-1.4-2c-0.5-1.6,0.1-1.1-1.4-1.8c-1.3-0.7-3.2-2-4.2-2.5c-0.5,0.8-1,4.9-1.5,6.2
				c-0.3-0.2-0.5-0.3-0.8-0.5c-0.5-0.3-0.4-0.2-0.4-0.8c-0.1-1.4-0.4-6.1-0.6-6.9c-1-0.6-3.7-2.2-4.2-3c-0.2-0.4-0.5-1.1,0-1.3
				c1.4-0.5,3.4,1.2,4.9,2.2c0.6,0.4,0.5,0.3,1.1,0c0.8-0.3,6-2.5,6.4-2.4c0.1,0,1,0.6,1.1,0.7c-0.4,0.4-0.8,0.7-1.2,1l-2.5,2
				c-0.4,0.3-0.9,0.7-1.2,1c0.7,0.4,1.4,0.9,2.1,1.3c3.6,2.2,2.2,2.3,4.4,1.9c1.2-0.2,1.8-0.6,2.3,0.4
				C31.2,86.9,30.4,88.2,30.4,90.4L30.4,90.4z"/>
		</g>
	</g>
	<g>
		<path class="st0" d="M135.7,38.9c-0.2,0-0.3,0.1-0.4,0.3l-2.4,7.1c-0.4,1-0.6,2-0.6,2.7c0,0.8,0.8,1.2,1.5,1.2c0.1,0,0.2,0,0.4,0
			c0.4,0,0.5,0.1,0.5,0.2c0,0.2-0.4,0.3-0.7,0.3c-1,0-2.6-0.1-3-0.1s-2.7,0.1-4.6,0.1c-0.5,0-0.8-0.1-0.8-0.3c0-0.2,0.2-0.2,0.6-0.2
			c0.3,0,0.6,0,1-0.1c1.9-0.2,2.7-1.8,3.4-3.8l9.2-25.1c0.5-1.3,0.6-1.6,0.9-1.6c0.2,0,0.4,0.2,0.9,1.5c0.6,1.5,6.9,18.2,9.4,24.3
			c1.5,3.6,2.6,4.2,3.5,4.5c0.6,0.2,1.3,0.2,1.6,0.2c0.2,0,0.4,0,0.4,0.2c0,0.2-0.4,0.3-0.8,0.3c-0.6,0-3.6,0-6.3-0.1
			c-0.8,0-1.2,0-1.2-0.3c0-0.2,0.1-0.2,0.3-0.3c0.2-0.1,0.5-0.4,0.2-1.1l-3.8-9.9c-0.1-0.2-0.2-0.2-0.4-0.2L135.7,38.9L135.7,38.9z
			 M143.8,37.4c0.2,0,0.2-0.1,0.2-0.3l-3.8-10.9c-0.2-0.6-0.4-0.6-0.6,0L136,37.1c-0.1,0.2,0,0.3,0.1,0.3H143.8z"/>
		<path class="st0" d="M161.2,34.7c0-5.3,0-6.3-0.1-7.4s-0.3-1.7-1.2-1.9c-0.4-0.1-0.7-0.1-0.9-0.1c-0.3,0-0.4-0.1-0.4-0.3
			c0-0.2,0.2-0.3,0.6-0.3c1.3,0,3.6,0.1,3.7,0.1c0.2,0,2.5-0.1,3.6-0.1c0.4,0,0.6,0.1,0.6,0.3c0,0.2-0.1,0.2-0.4,0.3
			c-0.2,0-0.4,0-0.7,0.1c-1.2,0.2-1.3,0.8-1.4,1.9c-0.1,1.1,0,2,0,7.3v6.1c0,3.1,0,5.9,0.2,7.4c0.2,1.2,0.3,1.6,1.4,1.9
			c0.5,0.1,1.4,0.2,1.5,0.2c0.4,0,0.4,0.1,0.4,0.3c0,0.2-0.2,0.3-0.6,0.3c-2.1,0-4.4-0.1-4.6-0.1c-0.1,0-2.5,0.1-3.6,0.1
			c-0.4,0-0.6-0.1-0.6-0.3c0-0.2,0.2-0.3,0.5-0.3c0.2,0,0.6,0,1-0.1c0.7-0.2,0.8-1,0.9-1.9c0.2-1.5,0.2-4.3,0.2-7.3L161.2,34.7
			L161.2,34.7z"/>
		<path class="st0" d="M177,34.7c0-5.3,0-6.3-0.1-7.4s-0.4-1.7-1.6-1.9c-0.2,0-0.6-0.1-1-0.1c-0.3,0-0.4-0.1-0.4-0.2
			c0-0.2,0.1-0.3,0.5-0.3c1.7,0,4.2,0.1,4.3,0.1c0.4,0,3.1-0.1,4.2-0.1c2.3,0,4.7,0.2,6.6,1.5c0.8,0.6,2.4,2.2,2.4,4.9
			c0,2.2-1.1,5-4.3,7.6c2.9,3.6,5.4,6.6,7.4,8.8c1.9,2,3.1,2.3,4.3,2.5c0.3,0,1.1,0.1,1.3,0.1c0.3,0,0.4,0.1,0.4,0.3
			c0,0.2-0.2,0.3-0.7,0.3h-2.8c-1.9,0-2.8-0.1-3.7-0.5c-1.7-0.7-2.9-2.5-5-5.2c-1.6-1.9-3.2-4.1-3.9-5c-0.2-0.2-0.2-0.2-0.5-0.2
			l-4.2,0c-0.2,0-0.2,0-0.2,0.2v0.6c0,3.2,0,6.2,0.2,7.6c0.1,1,0.2,1.8,1.6,1.9c0.4,0,0.8,0.1,1.2,0.1c0.4,0,0.5,0.1,0.5,0.2
			c0,0.2-0.2,0.3-0.6,0.3c-2.1,0-4.4-0.1-4.5-0.1c-0.6,0-2.4,0.1-3.5,0.1c-0.4,0-0.6-0.1-0.6-0.3c0-0.1,0.2-0.2,0.5-0.2
			c0.3,0,0.6,0,0.9-0.1c0.7-0.1,0.9-0.6,1-1.5c0.2-1.5,0.2-4.8,0.2-7.8L177,34.7L177,34.7L177,34.7z M180.1,37.6
			c0,0.2,0,0.4,0.2,0.5c0.5,0.3,2.1,0.5,3.6,0.5c0.8,0,1.9,0,2.7-0.6c1.2-0.8,2-2.5,2-5.1c0-4.4-2.3-6.8-5.9-6.8
			c-1,0-1.9,0.1-2.3,0.2c-0.1,0-0.2,0.2-0.2,0.4L180.1,37.6L180.1,37.6z"/>
		<path class="st0" d="M215.4,50.2c-0.6-0.3-0.6-0.4-0.6-1.5c0-2,0.2-3.6,0.2-4.3c0-0.4,0.1-0.6,0.3-0.6c0.2,0,0.3,0.1,0.3,0.4
			c0,0.4,0,0.9,0.1,1.5c0.6,3,3.3,4.1,6,4.1c3.9,0,5.8-2.8,5.8-5.4c0-2.8-1.2-4.4-4.6-7.3l-1.8-1.5c-4.3-3.5-5.2-6-5.2-8.8
			c0-4.3,3.2-7.3,8.4-7.3c1.6,0,2.7,0.2,3.8,0.4c0.8,0.2,1.1,0.2,1.4,0.2c0.3,0,0.4,0.1,0.4,0.3s-0.2,1.5-0.2,4.3
			c0,0.6-0.1,0.9-0.3,0.9c-0.2,0-0.3-0.2-0.3-0.5c0-0.5-0.3-1.6-0.5-2c-0.2-0.4-1.3-2.1-5-2.1c-2.8,0-5,1.7-5,4.7
			c0,2.3,1.1,3.8,4.9,6.8l1.1,0.9c4.8,3.8,5.9,6.3,5.9,9.5c0,1.7-0.6,4.7-3.4,6.7c-1.7,1.2-3.9,1.7-6.1,1.7
			C218.9,51.3,217,51,215.4,50.2z"/>
		<path class="st0" d="M243.3,36.6c1.9-1.7,6.3-5.9,8.1-7.8c1.9-2.1,2.1-2.3,2.1-2.8c0-0.3-0.2-0.5-0.6-0.6
			c-0.3-0.1-0.4-0.2-0.4-0.3c0-0.1,0.1-0.2,0.4-0.2c0.2,0,1.5,0.1,2.7,0.1c1.2,0,3.4-0.1,4-0.1c0.6,0,0.6,0.1,0.6,0.2
			s-0.1,0.3-0.4,0.3c-0.6,0-1.5,0.2-2,0.4c-1,0.3-1.5,0.8-3.6,2.7c-2.9,2.7-6.5,6.1-8.2,7.7c2.2,2.3,8.7,8.7,10.4,10.3
			c2.8,2.6,4.2,3.3,5.8,3.7c0.4,0.1,0.2,0,0.9,0.1c0.4,0,0.6,0.1,0.6,0.3c0,0.2-0.2,0.2-0.6,0.2h-2.6c-3.1,0-4-0.4-5.6-1.5
			c-1.8-1.3-8.3-7.9-11.5-11.7v3.2c0,3.1,0,5.9,0.2,7.4c0.2,1.2,0.3,1.6,1.4,1.9c0.5,0.1,1.4,0.2,1.5,0.2c0.4,0,0.4,0.1,0.4,0.3
			c0,0.2-0.2,0.3-0.6,0.3c-2.1,0-4.4-0.1-4.6-0.1c-0.1,0-2.5,0.1-3.6,0.1c-0.4,0-0.6-0.1-0.6-0.3c0-0.2,0.2-0.3,0.5-0.3
			c0.2,0,0.6,0,1-0.1c0.7-0.2,0.8-1,0.9-1.9c0.2-1.5,0.2-4.3,0.2-7.3v-6.1c0-5.3,0-6.3-0.1-7.4c-0.1-1.1-0.3-1.7-1.2-1.9
			c-0.4-0.1-0.7-0.1-0.9-0.1c-0.3,0-0.4-0.1-0.4-0.3c0-0.2,0.2-0.3,0.6-0.3c1.3,0,3.6,0.1,3.7,0.1c0.2,0,2.5-0.1,3.6-0.1
			c0.4,0,0.6,0.1,0.6,0.3c0,0.2-0.1,0.2-0.4,0.3c-0.2,0-0.4,0-0.7,0.1c-1.2,0.2-1.3,0.8-1.4,1.9c-0.1,1.1,0,2,0,7.3L243.3,36.6
			L243.3,36.6z"/>
		<path class="st0" d="M271.7,42c0-1.9-0.3-2.7-0.9-3.7c-0.2-0.4-4.9-8.1-6.2-9.8c-1.1-1.5-1.5-2-2.1-2.5c-0.6-0.4-1.1-0.6-1.9-0.6
			c-0.2,0-0.4-0.1-0.4-0.3c0-0.1,0.2-0.2,0.5-0.2c0.6,0,3.7,0.1,3.8,0.1c0.2,0,1.6-0.1,3.1-0.1c0.4,0,0.5,0.1,0.5,0.2
			c0,0.2-0.1,0.2-0.4,0.3c-0.6,0.1-0.6,0.3-0.6,0.6c0,0.4,0.2,0.8,0.5,1.3c0.5,1,5.9,9.6,6.5,10.6c0.6-1.4,5.2-8.8,5.7-9.8
			c0.8-1.3,0.9-1.7,0.9-2.1c0-0.5-0.5-0.5-0.9-0.6c-0.3,0-0.4-0.2-0.4-0.3c0-0.1,0.1-0.2,0.5-0.2c1,0,1.8,0.1,2.5,0.1
			c0.5,0,2.9-0.1,3.6-0.1c0.4,0,0.5,0.1,0.5,0.2c0,0.2-0.2,0.3-0.5,0.3c-0.8,0-1.5,0.1-2,0.5c-0.6,0.4-0.8,0.8-1.5,1.7
			c-2.3,3.2-6.3,9.8-6.9,11.2c-0.5,1.3-0.4,2.1-0.4,3.2v2.9c0,0.3,0,1.8,0.1,3.2c0.1,1,0.2,1.7,1.4,1.9c0.5,0.1,1.2,0.2,1.5,0.2
			c0.3,0,0.4,0.1,0.4,0.2c0,0.2-0.1,0.3-0.5,0.3c-2,0-4.5-0.1-4.6-0.1c-0.1,0-2.5,0.1-3.6,0.1c-0.4,0-0.6-0.1-0.6-0.3
			c0-0.1,0.1-0.2,0.4-0.2c0.3,0,0.7,0,1-0.1c0.7-0.1,1-1,1-1.9c0.1-1.5,0.1-2.9,0.1-3.2L271.7,42C271.7,42,271.7,42,271.7,42z"/>
	</g>
	<g>
		<path class="st0" d="M131,70.2c0,1.4,0,2.5,0.1,3.2c0,0.4,0.1,0.7,0.6,0.8c0.2,0,0.5,0.1,0.7,0.1c0.1,0,0.1,0,0.1,0.1
			c0,0.1-0.1,0.1-0.2,0.1c-0.8,0-1.7,0-1.8,0c-0.1,0-1,0-1.4,0c-0.2,0-0.2,0-0.2-0.1c0,0,0-0.1,0.1-0.1c0.1,0,0.3,0,0.4-0.1
			c0.3-0.1,0.4-0.4,0.4-0.8c0.1-0.6,0.1-1.8,0.1-3.2V64c-0.7,0-1.4,0-2.2,0c-0.9,0-1.3,0.1-1.5,0.5c-0.2,0.2-0.2,0.3-0.2,0.5
			c0,0.1-0.1,0.1-0.1,0.1c0,0-0.1,0-0.1-0.1c0-0.1,0.3-1.4,0.3-1.5c0-0.1,0.1-0.3,0.1-0.3c0.1,0,0.2,0.1,0.6,0.2
			c0.4,0,1,0.1,1.2,0.1h5.5c0.5,0,0.8,0,1-0.1c0.2,0,0.3-0.1,0.4-0.1c0.1,0,0.1,0.1,0.1,0.2c0,0.4,0,1.4,0,1.6c0,0.1,0,0.2-0.1,0.2
			c-0.1,0-0.1,0-0.1-0.2c0-0.1,0-0.1,0-0.2c0-0.4-0.4-0.8-1.8-0.8c-0.6,0-1.2,0-1.8,0L131,70.2L131,70.2L131,70.2z"/>
		<path class="st0" d="M140.2,68.6c0-1.9,0-2.3,0-2.7c0-0.4-0.1-0.6-0.6-0.7c-0.1,0-0.2,0-0.4,0c-0.1,0-0.2,0-0.2-0.1
			c0-0.1,0-0.1,0.2-0.1c0.6,0,1.5,0,1.5,0c0.1,0,1.1,0,1.5,0c0.8,0,1.7,0.1,2.4,0.6c0.3,0.2,0.9,0.8,0.9,1.8c0,0.8-0.4,1.8-1.5,2.8
			c1.1,1.3,1.9,2.4,2.7,3.2c0.7,0.7,1.1,0.8,1.5,0.9c0.1,0,0.4,0,0.5,0c0.1,0,0.2,0,0.2,0.1c0,0.1-0.1,0.1-0.3,0.1h-1
			c-0.7,0-1,0-1.3-0.2c-0.6-0.3-1-0.9-1.8-1.9c-0.6-0.7-1.1-1.5-1.4-1.8c-0.1-0.1-0.1-0.1-0.2-0.1l-1.5,0c-0.1,0-0.1,0-0.1,0.1v0.2
			c0,1.2,0,2.2,0.1,2.8c0,0.3,0.1,0.6,0.6,0.7c0.1,0,0.3,0,0.4,0c0.1,0,0.2,0,0.2,0.1c0,0.1-0.1,0.1-0.2,0.1c-0.8,0-1.6,0-1.6,0
			c-0.2,0-0.9,0-1.3,0c-0.1,0-0.2,0-0.2-0.1c0,0,0.1-0.1,0.2-0.1c0.1,0,0.2,0,0.3,0c0.2,0,0.3-0.2,0.4-0.6c0.1-0.5,0.1-1.7,0.1-2.8
			L140.2,68.6L140.2,68.6z M141.4,69.6c0,0.1,0,0.1,0.1,0.2c0.2,0.1,0.8,0.2,1.3,0.2c0.3,0,0.7,0,1-0.2c0.4-0.3,0.7-0.9,0.7-1.8
			c0-1.6-0.8-2.5-2.1-2.5c-0.4,0-0.7,0-0.8,0.1c0,0-0.1,0.1-0.1,0.1L141.4,69.6L141.4,69.6z"/>
		<path class="st0" d="M153.2,70.8c-0.1,0-0.1,0-0.1,0.1l-0.6,1.8c-0.1,0.4-0.2,0.8-0.2,1c0,0.3,0.2,0.4,0.5,0.4c0,0,0.1,0,0.1,0
			c0.1,0,0.2,0,0.2,0.1c0,0.1-0.1,0.1-0.2,0.1c-0.3,0-1,0-1.1,0c-0.1,0-0.8,0-1.4,0c-0.2,0-0.2,0-0.2-0.1c0-0.1,0.1-0.1,0.2-0.1
			c0.1,0,0.2,0,0.3,0c0.6-0.1,0.9-0.5,1.1-1.1l2.9-7.7c0.2-0.4,0.2-0.5,0.3-0.5c0.1,0,0.1,0.1,0.3,0.5c0.2,0.5,2.2,5.6,3,7.4
			c0.5,1.2,0.9,1.3,1.1,1.4c0.2,0.1,0.4,0.1,0.5,0.1s0.2,0,0.2,0.1s-0.1,0.1-0.2,0.1c-0.1,0-1.2,0-2.2,0c-0.3,0-0.4,0-0.4-0.1
			c0,0,0-0.1,0.1-0.1c0.1,0,0.1-0.1,0.1-0.3l-1.1-2.9c0,0-0.1-0.1-0.1-0.1L153.2,70.8L153.2,70.8z M155.7,70.3
			C155.7,70.3,155.7,70.3,155.7,70.3l-1.1-3.3c-0.1-0.2-0.1-0.2-0.2,0l-1.1,3.2c0,0.1,0,0.1,0,0.1H155.7z"/>
		<path class="st0" d="M163.1,66.2c-0.3-0.7-0.4-0.9-0.9-0.9c-0.2,0-0.4,0-0.4,0c-0.1,0-0.2,0-0.2-0.1c0-0.1,0.1-0.1,0.2-0.1
			c0.7,0,1.5,0,1.7,0c0.1,0,0.8,0,1.4,0c0.2,0,0.2,0,0.2,0.1c0,0.1-0.1,0.1-0.2,0.1c-0.2,0-0.3,0-0.5,0.1c-0.1,0.1-0.1,0.2-0.1,0.2
			c0,0.1,0.1,0.4,0.2,0.7l2.6,6.4c0.7-1.6,2.4-5.8,2.7-6.7c0.1-0.2,0.1-0.4,0.1-0.5c0-0.1,0-0.2-0.1-0.2c-0.1,0-0.3-0.1-0.5-0.1
			c-0.1,0-0.2,0-0.2-0.1c0-0.1,0-0.1,0.2-0.1c0.5,0,1.2,0,1.4,0c0.1,0,0.6,0,1,0c0.1,0,0.2,0,0.2,0.1c0,0.1-0.1,0.1-0.2,0.1
			c-0.2,0-0.4,0-0.6,0.1c-0.2,0.1-0.3,0.3-0.7,1.1c-0.1,0.2-0.8,1.8-1.5,3.3c-0.8,1.8-1.4,3.2-1.6,3.7c-0.4,0.8-0.4,1-0.6,1
			c-0.2,0-0.2-0.2-0.5-0.8L163.1,66.2z"/>
		<path class="st0" d="M176.3,68.6c0-1.9,0-2.3,0-2.7c0-0.4-0.1-0.6-0.6-0.7c-0.1,0-0.2,0-0.4,0c-0.1,0-0.2,0-0.2-0.1
			c0-0.1,0.1-0.1,0.2-0.1c0.3,0,0.7,0,1.5,0c0.1,0,2.7,0,3,0c0.3,0,0.5,0,0.6-0.1c0.1,0,0.1,0,0.2,0c0,0,0.1,0,0.1,0.1
			c0,0.1-0.1,0.3-0.1,0.7c0,0.2,0,0.5,0,0.8c0,0.1,0,0.2-0.1,0.2c-0.1,0-0.1-0.1-0.1-0.2c0-0.2-0.1-0.4-0.1-0.5
			c-0.1-0.3-0.2-0.4-0.9-0.4c-0.2,0-1.6,0-1.7,0c0,0-0.1,0-0.1,0.1V69c0,0.1,0,0.1,0.1,0.1c0.2,0,1.7,0,2,0c0.3,0,0.6-0.1,0.7-0.2
			c0.1-0.1,0.1-0.1,0.2-0.1c0,0,0.1,0,0.1,0.1c0,0.1-0.1,0.3-0.1,0.8c0,0.4,0,0.7-0.1,0.9c0,0.1,0,0.2-0.1,0.2
			c-0.1,0-0.1-0.1-0.1-0.2c0-0.1,0-0.2,0-0.3c-0.1-0.2-0.1-0.4-0.7-0.4c-0.3,0-1.5-0.1-1.7-0.1c-0.1,0-0.1,0-0.1,0.1v1.1
			c0,0.4,0,1.7,0,2c0,0.5,0.1,0.8,0.4,0.9c0.2,0.1,0.6,0.1,1.1,0.1c0.3,0,0.7,0,1.1-0.1c0.4-0.1,0.5-0.4,0.7-1
			c0-0.1,0.1-0.2,0.1-0.2c0.1,0,0.1,0.1,0.1,0.2c0,0.1-0.1,1-0.2,1.3c-0.1,0.3-0.2,0.3-0.6,0.3c-1,0-1.4,0-1.9,0c-0.5,0-1.2,0-1.7,0
			c-0.3,0-0.6,0-1,0c-0.1,0-0.2,0-0.2-0.1c0-0.1,0.1-0.1,0.1-0.1c0.1,0,0.2,0,0.3,0c0.3-0.1,0.4-0.2,0.5-1.1c0-0.5,0-1.1,0-2.2
			L176.3,68.6L176.3,68.6z"/>
		<path class="st0" d="M188,70.8c0,1.7,0.1,2.5,0.3,2.8c0.2,0.2,0.5,0.3,1.5,0.3c0.6,0,1.2,0,1.5-0.4c0.1-0.2,0.2-0.5,0.3-0.7
			c0-0.1,0-0.2,0.1-0.2c0.1,0,0.1,0,0.1,0.2s-0.1,1-0.2,1.3c-0.1,0.3-0.1,0.4-0.8,0.4c-1,0-2.1-0.1-3.5-0.1c-0.5,0-0.8,0-1.3,0
			c-0.1,0-0.2,0-0.2-0.1c0,0,0-0.1,0.2-0.1c0.1,0,0.2,0,0.3,0c0.2,0,0.3-0.3,0.4-0.7c0.1-0.6,0.1-1.6,0.1-2.7v-2.2
			c0-1.9,0-2.2,0-2.6c0-0.4-0.1-0.7-0.6-0.7c-0.1,0-0.2,0-0.4,0c-0.1,0-0.2,0-0.2-0.1c0-0.1,0.1-0.1,0.2-0.1c0.6,0,1.5,0,1.5,0
			c0.2,0,1.1,0,1.5,0c0.1,0,0.2,0,0.2,0.1c0,0.1-0.1,0.1-0.2,0.1c-0.1,0-0.2,0-0.4,0c-0.4,0.1-0.5,0.3-0.5,0.7c0,0.4,0,0.7,0,2.6
			L188,70.8L188,70.8z"/>
		<path class="st0" d="M202.9,71.4c0-1.7,1.1-2.8,2.2-3.5c-0.5-0.8-0.7-1.4-0.7-2c0-1.2,1.2-2.7,3.1-2.7c0.6,0,1.3,0.1,1.6,0.3
			c0.3,0.1,0.3,0.2,0.3,0.4c0,0.5,0,1.2-0.1,1.6c0,0.3-0.1,0.3-0.2,0.3s-0.1-0.1-0.1-0.3c0-0.4-0.1-0.9-0.5-1.2
			c-0.4-0.4-0.8-0.6-1.5-0.6c-0.9,0-1.8,0.5-1.8,1.9c0,1.1,0.8,2.1,2.3,3.7c0.5,0.5,2.3,2.2,2.8,2.6c0.4-0.6,0.7-1.5,0.7-2.4
			c0-0.2-0.1-0.5-0.3-0.7c-0.2-0.2-0.4-0.2-0.6-0.2c-0.2,0-0.3,0-0.3-0.1c0-0.1,0.1-0.1,0.2-0.1c0.4,0,0.9,0,1.7,0.1
			c0.2,0,0.3,0.1,0.3,0.3c0,1.2-0.8,2.7-1.4,3.4c1,0.8,1.6,1.2,2,1.4c0.5,0.3,1.2,0.6,1.7,0.6c0.1,0,0.2,0,0.2,0.1
			c0,0.1-0.1,0.1-0.2,0.1c-0.8,0-1.4,0-1.9,0c-0.7-0.1-1.3-0.3-2.6-1.3c-0.3,0.3-1.5,1.5-3.6,1.5C203.9,74.6,202.9,72.6,202.9,71.4z
			 M209.7,72.8c-0.8-0.7-2.2-2.1-2.6-2.5c-0.4-0.4-1.3-1.5-1.7-2.1c-0.8,0.5-1.2,1.3-1.2,2.4c0,1.8,1.2,3.1,2.9,3.1
			C208.3,73.8,209.2,73.3,209.7,72.8z"/>
		<path class="st0" d="M229.8,70.2c0,1.4,0,2.5,0.1,3.2c0,0.4,0.1,0.7,0.6,0.8c0.2,0,0.5,0.1,0.7,0.1c0.1,0,0.1,0,0.1,0.1
			c0,0.1-0.1,0.1-0.2,0.1c-0.8,0-1.7,0-1.8,0c-0.1,0-1,0-1.4,0c-0.2,0-0.2,0-0.2-0.1c0,0,0-0.1,0.1-0.1c0.1,0,0.3,0,0.4-0.1
			c0.3-0.1,0.4-0.4,0.4-0.8c0.1-0.6,0.1-1.8,0.1-3.2V64c-0.7,0-1.4,0-2.2,0c-0.9,0-1.3,0.1-1.5,0.5c-0.2,0.2-0.2,0.3-0.2,0.5
			c0,0.1-0.1,0.1-0.1,0.1c0,0-0.1,0-0.1-0.1c0-0.1,0.3-1.4,0.3-1.5c0-0.1,0.1-0.3,0.1-0.3c0.1,0,0.2,0.1,0.6,0.2
			c0.4,0,1,0.1,1.1,0.1h5.5c0.5,0,0.8,0,1-0.1c0.2,0,0.3-0.1,0.4-0.1c0.1,0,0.1,0.1,0.1,0.2c0,0.4,0,1.4,0,1.6c0,0.1,0,0.2-0.1,0.2
			c-0.1,0-0.1,0-0.1-0.2c0-0.1,0-0.1,0-0.2c0-0.4-0.4-0.8-1.8-0.8c-0.6,0-1.2,0-1.8,0L229.8,70.2L229.8,70.2L229.8,70.2z"/>
		<path class="st0" d="M237.6,69.7c0-1.9,1.5-4.8,5.1-4.8c2.9,0,5.1,1.7,5.1,4.6c0,2.8-2.1,5.1-5.2,5.1
			C239,74.5,237.6,71.9,237.6,69.7z M246.4,69.8c0-2.9-1.8-4.6-3.8-4.6c-2,0-3.7,1.3-3.7,4c0,2.9,1.6,4.7,4,4.7
			C243.9,74,246.4,73.5,246.4,69.8z"/>
		<path class="st0" d="M253.9,70.3c0,1.8,0.3,2.5,0.9,3c0.6,0.6,1.3,0.7,1.9,0.7c0.8,0,1.4-0.2,2-0.8c0.6-0.7,0.7-1.8,0.7-3v-1.5
			c0-1.9,0-2.2,0-2.6c0-0.4-0.1-0.6-0.5-0.7c-0.1,0-0.3,0-0.4,0c-0.1,0-0.1,0-0.1-0.1c0-0.1,0.1-0.1,0.2-0.1c0.6,0,1.4,0,1.4,0
			c0.1,0,0.7,0,1.1,0c0.1,0,0.2,0,0.2,0.1c0,0.1-0.1,0.1-0.1,0.1c-0.1,0-0.1,0-0.3,0c-0.4,0-0.5,0.3-0.5,0.7c0,0.4,0,0.7,0,2.6v1.3
			c0,1.3-0.1,2.9-1.2,3.8c-0.9,0.8-1.9,0.9-2.7,0.9c-0.4,0-1.8,0-2.7-0.9c-0.6-0.6-1.1-1.5-1.1-3.3v-1.8c0-1.9,0-2.3,0-2.6
			c0-0.4-0.1-0.6-0.5-0.7c-0.1,0-0.3,0-0.4,0c-0.1,0-0.2,0-0.2-0.1c0-0.1,0.1-0.1,0.2-0.1c0.6,0,1.4,0,1.5,0c0.1,0,1,0,1.4,0
			c0.2,0,0.2,0,0.2,0.1c0,0.1-0.1,0.1-0.2,0.1c-0.1,0-0.2,0-0.3,0c-0.4,0-0.4,0.3-0.4,0.7c0,0.4,0,0.7,0,2.7L253.9,70.3L253.9,70.3z
			"/>
		<path class="st0" d="M266.7,68.6c0-1.9,0-2.3,0-2.7c0-0.4-0.1-0.6-0.6-0.7c-0.1,0-0.2,0-0.3,0c-0.1,0-0.2,0-0.2-0.1
			c0-0.1,0-0.1,0.2-0.1c0.6,0,1.5,0,1.5,0c0.1,0,1.1,0,1.5,0c0.8,0,1.7,0.1,2.4,0.6c0.3,0.2,0.9,0.8,0.9,1.8c0,0.8-0.4,1.8-1.5,2.8
			c1.1,1.3,1.9,2.4,2.7,3.2c0.7,0.7,1.1,0.8,1.5,0.9c0.1,0,0.4,0,0.5,0c0.1,0,0.2,0,0.2,0.1c0,0.1-0.1,0.1-0.3,0.1h-1
			c-0.7,0-1,0-1.3-0.2c-0.6-0.3-1-0.9-1.8-1.9c-0.6-0.7-1.1-1.5-1.4-1.8c-0.1-0.1-0.1-0.1-0.2-0.1l-1.5,0c-0.1,0-0.1,0-0.1,0.1v0.2
			c0,1.2,0,2.2,0.1,2.8c0,0.3,0.1,0.6,0.6,0.7c0.1,0,0.3,0,0.4,0c0.1,0,0.2,0,0.2,0.1c0,0.1-0.1,0.1-0.2,0.1c-0.8,0-1.6,0-1.6,0
			c-0.2,0-0.9,0-1.3,0c-0.1,0-0.2,0-0.2-0.1c0,0,0.1-0.1,0.2-0.1c0.1,0,0.2,0,0.3,0c0.2,0,0.3-0.2,0.4-0.6c0.1-0.5,0.1-1.7,0.1-2.8
			L266.7,68.6L266.7,68.6L266.7,68.6z M267.8,69.6c0,0.1,0,0.1,0.1,0.2c0.2,0.1,0.8,0.2,1.3,0.2c0.3,0,0.7,0,1-0.2
			c0.4-0.3,0.7-0.9,0.7-1.8c0-1.6-0.8-2.5-2.1-2.5c-0.4,0-0.7,0-0.8,0.1c0,0-0.1,0.1-0.1,0.1L267.8,69.6L267.8,69.6z"/>
		<path class="st0" d="M278.2,74.2c-0.2-0.1-0.2-0.1-0.2-0.5c0-0.7,0-1.2,0.1-1.4c0-0.1,0-0.2,0.1-0.2s0.1,0,0.1,0.1
			c0,0.1,0,0.3,0,0.4c0.2,0.9,1,1.3,1.9,1.3c1.2,0,1.8-0.8,1.8-1.6c0-0.8-0.4-1.3-1.4-2.2l-0.6-0.5c-1.4-1.1-1.7-1.9-1.7-2.8
			c0-1.3,1.1-2.2,2.7-2.2c0.5,0,0.9,0,1.2,0.1c0.3,0.1,0.4,0.1,0.5,0.1s0.1,0,0.1,0.1c0,0.1-0.1,0.6-0.1,1.4c0,0.2,0,0.3-0.1,0.3
			c-0.1,0-0.1-0.1-0.1-0.2c0-0.1,0-0.4-0.2-0.7c-0.1-0.1-0.4-0.7-1.6-0.7c-0.9,0-1.5,0.5-1.5,1.4c0,0.7,0.3,1.1,1.6,2l0.3,0.3
			c1.5,1.2,1.9,1.9,1.9,3c0,0.5-0.2,1.5-1.1,2.1c-0.6,0.4-1.3,0.5-2,0.5C279.4,74.5,278.8,74.5,278.2,74.2z"/>
	</g>
</g>
</svg>
