<?xml version="1.0" encoding="utf-8"?>
<!-- Generator: Adobe Illustrator 25.0.0, SVG Export Plug-In . SVG Version: 6.00 Build 0)  -->
<svg version="1.1" id="Layer_1" xmlns="http://www.w3.org/2000/svg" xmlns:xlink="http://www.w3.org/1999/xlink" x="0px" y="0px"
	 viewBox="0 0 65.7 92" style="enable-background:new 0 0 65.7 92;" xml:space="preserve">
<style type="text/css">
	.st0{opacity:0.3;}
	.st1{fill:rgb(0, 102, 180);}
</style>
<g class="st0">
	<path class="st1" d="M41.8,19.4c0.2-0.1,0.4,0,0.5,0.2c0,0.1,0.1,0.1,0.2,0.2C42.7,20,43,20,43.3,20c0.1,0,0.2,0.1,0.2,0.3
		c0,0.2,0,0.4-0.1,0.5s-0.1,0.2-0.2,0.4c0.1,0,0.2,0,0.3-0.1s0.1-0.2,0.2-0.3c0.2-0.4,0.6-0.5,0.9-0.3c0.4,0.2,0.8,0.3,1.2,0.5
		c0.2,0.1,0.3,0.1,0.4,0.3c0,0.1,0.1,0.1,0.2,0.1c0.1,0,0.2,0,0.3,0c0.2,0.3,0.4,0.6,0.4,1c0.1,0,0.2,0,0.3-0.1
		c0.2-0.2,0.4-0.2,0.6-0.1c0.3,0.1,0.7,0.2,1,0.4c0.5,0.1,1,0.1,1.5,0.1c0.4,0,0.7,0.1,1,0.3c0.4,0.3,0.8,0.6,1.1,0.9
		c0.2,0.3,0.6,0.4,0.8,0.7c0.1,0.1,0.3,0.1,0.5,0.1c0.1,0,0.3,0,0.4,0c0.4,0,0.6,0.3,0.8,0.7c0.3,0.9,0.3,1.9,0,2.8
		c-0.1,0.3-0.3,0.5-0.4,0.8c-0.2,0.3-0.4,0.5-0.6,0.8C54,29.9,54,30,53.9,30c-0.5,0.3-0.8,0.8-1,1.4c-0.1,0.2-0.2,0.4-0.3,0.6
		c-0.1,0.1-0.2,0.3-0.4,0.3s-0.3,0.2-0.3,0.3c-0.1,0.6-0.1,1.2-0.1,1.9c0,0.4,0,0.8-0.1,1.2c0,0.2-0.1,0.4-0.1,0.6
		c0,0.4-0.1,0.7-0.3,1c-0.1,0.2-0.2,0.4-0.2,0.6c0,0.4,0,0.8-0.3,1.1c-0.3,0-0.3,0.1-0.4,0.2c-0.1,0.3-0.2,0.5-0.4,0.7
		s-0.3,0.4-0.3,0.8c0,0.3-0.2,0.6-0.4,0.7c-0.2,0.1-0.3,0.2-0.4,0.4c0,0.2-0.2,0.2-0.3,0.3c-0.1,0-0.3,0.1-0.4,0.1
		c-0.4-0.1-0.9,0-1.3,0.1h-0.1c-0.1,0.3-0.5,0.3-0.6,0.5c-0.1,0.1-0.3,0.2-0.4,0.2c-0.3,0.1-0.5,0.2-0.8,0.4
		c-0.5,0.4-0.9,0.8-1.3,1.3c-0.3,0.3-0.4,0.7-0.3,1.1c0,0.2,0,0.4,0.1,0.6v0.1c-0.1,0.2-0.1,0.5-0.1,0.8c0,0.4-0.2,0.7-0.5,0.9
		c-0.2,0.1-0.2,0.2-0.3,0.4c-0.3,0.4-0.5,0.8-0.6,1.3c-0.1,0.3-0.3,0.5-0.4,0.8c-0.1,0.1-0.2,0.3-0.2,0.4c-0.1,0.2-0.2,0.3-0.3,0.4
		c-0.2,0.1-0.3,0.2-0.5,0.4s-0.4,0.4-0.4,0.7c-0.1,0.4-0.3,0.7-0.5,0.9s-0.3,0.4-0.5,0.6c-0.2,0.4-0.4,0.7-0.8,0.9
		c-0.2,0.1-0.3,0.1-0.5,0.1C37.5,55,37.4,55,37.2,55c-0.4,0.1-0.7-0.1-1.1-0.3c-0.1-0.1-0.3-0.1-0.5-0.2c-0.2,0-0.4-0.1-0.6-0.3
		l-0.1-0.1c-0.1,0-0.1,0.1-0.1,0.2c0,0.2,0.1,0.3,0.3,0.4c0.2,0.1,0.4,0.3,0.6,0.5c0.2,0.2,0.2,0.4,0.1,0.6
		c-0.1,0.4-0.1,0.6,0.3,0.7c0.1,0.1,0.2,0.2,0.2,0.3c0,0.3,0,0.5-0.2,0.7c-0.1,0.2-0.2,0.3-0.3,0.5s-0.2,0.3-0.3,0.5
		c0,0.3-0.2,0.4-0.4,0.5c-0.5,0.2-1.1,0.5-1.6,0.5c-0.3,0-0.5,0.1-0.8,0.2c-0.4,0.1-0.8,0-1.2-0.1c0,0.2,0,0.3,0.1,0.4
		c0.1,0.2,0.1,0.5,0,0.7c-0.2,0.2-0.1,0.5-0.1,0.7c0.1,0.5,0,0.6-0.4,0.8s-0.8,0.2-1.3,0c-0.2-0.1-0.3-0.2-0.5-0.2
		c-0.1-0.1-0.2,0-0.2,0.1s0,0.3,0,0.4c0,0.2,0.1,0.4,0.1,0.6c0,0.3,0.1,0.5,0.3,0.6c0.1,0,0.1,0.1,0.2,0.2c0.1,0,0-0.2,0.1-0.2
		s0.2-0.1,0.4-0.1c0.1,0,0.1,0.1,0.2,0.2c0.1,0.2,0.1,0.4,0.1,0.6s-0.2,0.3-0.3,0.3s-0.2,0-0.3-0.2c-0.2-0.3-0.2-0.3-0.5,0
		c0.1,0.2,0.3,0.1,0.4,0.2s0.1,0.2,0,0.3c-0.1,0.1-0.1,0.1-0.2,0.1c-0.3,0.2-0.5,0.5-0.4,1c0,0.3,0,0.7-0.2,0.9
		c-0.1,0.1-0.1,0.2-0.1,0.3c0,0.3,0,0.3-0.2,0.3c-0.7,0-1.1,0.5-1.4,1.2c-0.1,0.2-0.1,0.4,0,0.6c0.2,0.3,0.4,0.6,0.7,0.8
		c0.1,0.1,0.3,0.2,0.5,0.2c0.3,0,0.4,0.1,0.4,0.5c0,0.3-0.1,0.5-0.1,0.8c0,0.1-0.1,0.2-0.2,0.3c-0.4,0.3-0.8,0.7-1.1,1.1
		c-0.2,0.2-0.2,0.4-0.2,0.6c0,0.3-0.1,0.5-0.2,0.8c-0.1,0.2-0.2,0.3-0.4,0.3c-0.4,0.2-0.7,0.4-0.8,0.9c0,0.2,0,0.3,0,0.5
		c0.1,0.2,0.1,0.4,0.1,0.7c0,0.3,0.2,0.6,0.4,0.9c0.1,0.1,0.2,0.2,0.1,0.4c-0.1,0.1-0.2,0.1-0.4,0c-0.1,0-0.2-0.1-0.3-0.1
		s-0.1,0-0.2,0.1s0,0.1,0,0.2c0.1,0.1,0.2,0.2,0.3,0.1c0.2-0.1,0.2,0,0.3,0.1c0.1,0.2,0.3,0.4,0.4,0.6c0,0.1,0.1,0.2-0.1,0.2
		c-0.1,0-0.1,0.1,0,0.1c0.2,0.1,0.2,0.3,0.3,0.5c0.1,0.3,0.4,0.5,0.6,0.6c0.3,0.3,0.6,0.5,0.9,0.8c0.2,0.2,0.4,0.3,0.6,0.3
		c0.1,0,0.3,0,0.3,0.2s-0.1,0.4-0.3,0.4c-0.3,0-0.6,0.1-0.9,0.1c-0.1,0-0.2,0.1-0.3,0.1c-0.2,0.1-0.1,0.1,0,0.2s0,0.3-0.1,0.2
		c-0.4-0.1-0.8-0.1-1.1-0.4c0,0.3,0.1,0.5,0.2,0.7c0.1,0,0.1-0.2,0.2-0.2s0.2,0.1,0.2,0.1c0.2,0.1,0.2,0.3,0.3,0.5
		c0,0.1,0,0.2-0.1,0.2s-0.1,0.1-0.2,0s-0.2-0.1-0.3-0.1s-0.2,0-0.2-0.1s0.1,0,0.2-0.2c-0.2,0.1-0.4,0-0.5-0.2l-0.1-0.1
		c-0.1-0.1-0.3,0-0.4-0.1s-0.1-0.3-0.3-0.3c-0.1,0.1,0,0.1,0,0.1c0,0.1,0.1,0.2,0,0.2c-0.1,0.1-0.2,0.1-0.3,0
		c-0.2-0.2-0.3-0.3-0.5-0.4c-0.1,0-0.1-0.2,0-0.2c0.1-0.1,0.1-0.2,0-0.3c-0.2-0.1-0.5-0.3-0.8-0.1l-0.1,0.1l0,0c-0.1,0-0.1,0-0.2,0
		c-0.2,0-0.2-0.1-0.2-0.3l0,0c0.1,0,0.2,0,0.3,0c-0.2-0.1-0.3-0.3-0.2-0.5c0.1-0.1-0.1-0.3-0.2-0.2C23.1,81.2,23,81,22.7,81
		c0.1,0.2,0.2,0.3,0,0.4s-0.3,0-0.3-0.3s-0.3-0.2-0.4-0.3c0,0-0.1,0-0.2,0s-0.2-0.1-0.1-0.2s0.1-0.2,0-0.2c-0.1-0.1-0.1-0.4-0.3-0.4
		c-0.1,0-0.2,0-0.2-0.1s0.1-0.1,0.2-0.2c0.1,0,0.1-0.1,0.1-0.1c0-0.1-0.1-0.1-0.1-0.1c-0.1,0-0.2,0.1-0.3,0.1s0-0.2-0.1-0.3
		c-0.2-0.1-0.3-0.3-0.2-0.6c0.3,0.3,0.7,0.4,1,0.6c0.2,0.1,0.3,0.1,0.5,0c-0.2,0-0.3-0.1-0.3-0.2c-0.1-0.2-0.2-0.3-0.4-0.4
		c-0.1,0-0.2-0.2-0.1-0.4c0-0.1,0-0.1,0-0.1c-0.2,0-0.2-0.2-0.3-0.3c-0.1,0.1-0.1,0.3-0.2,0.4c-0.4-0.2-0.5-0.6-0.4-1
		c0-0.1,0.1-0.2,0.2-0.2c0.2,0,0.3,0.1,0.5-0.2c0-0.1,0.1,0,0.1,0.1c0.1,0.1,0.1,0.2,0.2,0.4c0,0.2,0.1,0.3,0.2,0.4
		c0,0.1,0.1,0,0.1,0s0.1,0,0.1-0.1c-0.1-0.2,0-0.5-0.3-0.6c-0.1,0-0.1-0.2-0.1-0.3c0-0.1-0.1-0.1-0.1-0.1c-0.2,0-0.3-0.1-0.1-0.3
		c0.1-0.2,0.1-0.4,0-0.6c-0.1,0.2-0.1,0.5-0.2,0.7c0,0.1-0.1,0.2-0.2,0.2c-0.2,0-0.3,0-0.3,0.2c0,0-0.1,0.1-0.1,0
		c-0.1,0-0.1-0.1-0.1-0.2c0-0.2,0.1-0.5,0.3-0.6c0.1-0.1,0.2-0.2,0.1-0.3c0-0.1,0-0.3,0.1-0.3c0.2-0.1,0-0.3,0.1-0.5s0-0.3-0.1-0.4
		s-0.1-0.2-0.1-0.4c0-0.2,0-0.4-0.2-0.5c-0.1-0.1-0.2-0.2,0-0.4c-0.2,0-0.3,0.3-0.4,0.1c-0.1-0.1-0.1-0.3-0.1-0.5
		c0.1-0.2,0.1-0.4,0.2-0.6c0-0.1,0.1-0.2,0-0.4c-0.1-0.1,0-0.2,0-0.3c0-0.1,0.1-0.1,0.1-0.2c0-0.2,0.1-0.3,0.3-0.3
		c0.1,0,0.3,0.2,0.2,0.4c0,0.2,0,0.3,0,0.5c0,0.1,0,0.2,0.1,0.2c0.1,0.1,0.2,0.2,0.1,0.4c0,0.1,0,0.2,0.1,0.2c0.1-0.2,0.1-0.4,0-0.6
		c-0.1-0.1-0.1-0.3-0.1-0.4c0-0.2,0-0.3,0.2-0.2c0.1,0,0.2,0,0.4,0c-0.1-0.2-0.2-0.2-0.3-0.2s-0.2,0-0.3,0s-0.2-0.1-0.1-0.2
		c0.1-0.2,0.1-0.4,0.3-0.6c0.1-0.1,0.1-0.2,0.2-0.3c0-0.2-0.1-0.4-0.2-0.3c-0.3,0.1-0.4,0-0.6-0.2c-0.1,0-0.1,0.1-0.1,0.2
		s-0.1,0.2-0.2,0.2s-0.2-0.1-0.2-0.2c0-0.2,0-0.3,0.1-0.4s0.3-0.3,0.4-0.4c0-0.1-0.1-0.1-0.1-0.2c0-0.2,0-0.3,0.1-0.3
		c0.2,0,0.3,0,0.5,0c-0.2-0.1-0.4-0.1-0.5-0.2s-0.1-0.2,0-0.2c0.2,0,0.2-0.2,0.2-0.3c0.2-0.4,0.2-0.7-0.2-0.8c-0.1,0-0.1-0.2,0-0.2
		c0.2-0.1,0.2-0.2,0.3-0.4c0.1-0.3,0.1-0.3,0.3-0.2h0.1c0-0.1,0-0.1-0.1-0.1s-0.2-0.1-0.1-0.2s0.2-0.1,0.3,0s0.2,0.2,0.2,0.4
		c0,0.2,0,0.5,0,0.7s0,0.3-0.1,0.4s-0.1,0.1,0,0.2s0.1,0.2,0,0.3c0,0.1,0,0.1,0.1,0.1s0.1,0,0.1-0.1c0-0.2,0.2-0.4,0-0.7
		c-0.1-0.2-0.1-0.4,0.1-0.5c0.1,0,0.2-0.1,0.1-0.2s-0.1-0.3,0-0.4c0.1-0.2,0.2-0.4,0.1-0.6c0,0,0-0.1,0-0.2c0.2-0.4,0.2-0.9,0.3-1.3
		c0-0.1,0.1-0.2,0.2-0.3c-0.2-0.1-0.3-0.2-0.2-0.5c0-0.1,0-0.1-0.1-0.2c-0.1,0-0.1,0-0.2,0l0,0c-0.1,0.2-0.3,0.1-0.4,0.3
		c0,0.1,0.1,0.3,0.1,0.5v0.1c-0.3,0.2-0.1,0.6-0.1,0.8c0,0.1,0,0.2-0.1,0.3c-0.1,0.3-0.2,0.3-0.5,0.2c-0.2-0.1-0.3-0.2-0.2-0.5
		s0.1-0.5,0.1-0.8s0-0.7,0.3-0.9c0.1,0,0.1-0.1,0-0.2c-0.2-0.4-0.1-0.7,0-1.1c0-0.2,0.1-0.3,0.1-0.5c0-0.3,0-0.5,0.2-0.7
		c0.1-0.1,0.1-0.3,0.1-0.4c0-0.3,0-0.5-0.1-0.7c0-0.1-0.1-0.2-0.1-0.2c0.1-0.4-0.1-0.8-0.1-1.3c0-0.2,0-0.4,0.3-0.5
		c0.1,0,0.1-0.2,0.1-0.3c0-0.2,0-0.3,0.1-0.4c0.1-0.1,0.1-0.2,0.2-0.3c0.1-0.4,0.2-0.9,0.4-1.3c0.1-0.3,0.2-0.6,0.3-0.8
		c0.1-0.3,0.2-0.5,0.2-0.8c0.1-0.5,0.2-0.9,0.2-1.4s-0.1-1.1-0.2-1.6c0-0.4-0.1-0.7,0.2-1c0.2-0.2,0.1-0.5,0-0.7
		c-0.1-0.3-0.1-0.6,0.1-0.8c0.1-0.1,0.1-0.3,0.1-0.5c0.1-0.5,0.2-1,0.3-1.5c0.1-0.3,0.1-0.6,0.1-0.8s0-0.4,0.1-0.6
		c0.1-0.2,0.1-0.3,0.1-0.5c0-0.4,0-0.9,0-1.3c0-0.1,0-0.2,0-0.2c-0.1-0.2,0-0.4,0.1-0.6c0.1-0.1,0.1-0.2,0.1-0.4s0-0.5,0.1-0.7
		c0.1-0.3,0.1-0.5,0-0.8c0-0.1-0.1-0.2,0-0.3c0.1-0.7-0.1-1.4-0.2-2c0-0.3-0.1-0.6-0.4-0.7c-0.1,0-0.2-0.1-0.2-0.2
		c-0.3-0.4-0.7-0.8-1.2-1c-0.7-0.3-1.3-0.7-1.9-1.2c-0.5-0.3-0.8-0.8-1.2-1.2c0.2-0.3,0.2-0.5,0.2-0.7c0.1-0.2,0-0.4,0-0.5
		c-0.3-0.5-0.6-1-0.8-1.5c0-0.1-0.1-0.1-0.1-0.1c-0.2-0.1-0.2-0.3-0.3-0.6c0-0.1,0-0.3-0.1-0.4c-0.3-0.4-0.4-0.9-0.6-1.4
		c0-0.1-0.1-0.2-0.1-0.3c0-0.4-0.2-0.6-0.5-0.9c-0.1-0.1-0.2-0.3-0.2-0.4c-0.1-0.4-0.4-0.7-0.7-0.9c-0.1-0.1-0.3-0.2-0.4-0.4
		c-0.2-0.1-0.3-0.2-0.1-0.4c0.1-0.1,0-0.2,0-0.3c0,0,0-0.1-0.1-0.1c-0.3-0.6-0.3-0.9,0.2-1.4c0.2-0.2,0.4-0.4,0.6-0.5
		c0.3-0.2,0.3-0.3,0.2-0.7h-0.1c-0.1,0.1-0.2,0.2-0.3,0.1c-0.2-0.1-0.4-0.2-0.4-0.5s0-0.6,0-1v-0.1c0.3-0.2,0.3-0.7,0.5-0.9
		c0.1-0.1,0-0.3,0.1-0.5c0-0.3,0-0.4,0.3-0.4c0.2,0,0.4-0.3,0.6-0.3l0.1-0.1c0-0.2,0-0.4,0.2-0.5c0.1,0,0.1-0.2,0.1-0.3
		c0.1-0.4,0.2-0.5,0.5-0.5c0.2,0,0.4-0.1,0.4-0.4c0.1-0.3,0.2-0.4,0.4-0.6c-0.3-0.2-0.3-0.2-0.2-0.6c0-0.2,0-0.3,0-0.5
		c0-0.3,0-0.6,0-0.8c0-0.3,0-0.7-0.2-1c-0.3-0.3-0.2-0.6,0.1-0.8c0.3-0.2,0.3-0.3,0.2-0.6v-0.1c0-0.1,0-0.2,0-0.2
		c0.1,0,0.1,0,0.2,0.1s0.1,0.2,0.3,0.3c-0.1-0.3,0.1-0.5,0.3-0.7s0.3-0.5,0.6-0.6c0.1,0,0.1-0.1,0.1-0.2c0-0.1,0-0.3,0.1-0.4
		c0.1-0.5,0.4-0.9,0.9-0.9c0.2,0,0.3,0,0.3-0.2c-0.2,0-0.1,0,0.1,0c0.3,0,0.6-0.1,0.9-0.3c0.1-0.1,0.2-0.1,0.3-0.1
		c0.2-0.1,0.3-0.2,0.4-0.3C23.5,8,23.8,7.9,24,8c0.2,0.1,0.3,0.3,0.1,0.6C24,8.7,24,8.7,23.9,8.8c-0.2,0.1-0.2,0.2-0.1,0.4
		c0,0.1,0.1,0.2,0.2,0.3c0.4-0.3,0.8-0.5,1.2-0.6c-0.1-0.1-0.3-0.1-0.3-0.3c0-0.1,0-0.2,0.1-0.3c0.1-0.2,0.3-0.1,0.4,0
		c0,0,0,0,0,0.1C25.5,8.8,25.7,8.9,26,9c0.1,0,0.2,0.1,0.3,0.1c0.2,0.1,0.2,0.2,0.3,0.3c0.1,0.4,0.1,0.4,0.5,0.4
		c0.3,0,0.6-0.1,1-0.1c0.2,0,0.3,0,0.5,0.2c0.2,0.3,0.6,0.2,0.9,0.2c0.2,0,0.3-0.2,0.5-0.2c0,0,0.1,0,0,0c-0.1-0.1-0.1-0.2,0-0.2
		s0.2,0,0.3,0c0.4,0,0.8,0,1.2,0c0.1,0,0.3,0,0.4,0.2c-0.2,0.1-0.4,0-0.7,0.1c0.2,0.1,0.3,0.2,0.4,0.4c0.1,0.1,0.1,0.1,0.2,0.1
		c0.2,0,0.4,0.1,0.6,0.2c0.4,0.2,0.6,0.6,0.5,1.1H33c0.3-0.2,0.5-0.1,0.8,0.1c0.3,0.2,0.6,0.4,0.8,0.7c0.2,0.2,0.3,0.3,0.3,0.6
		c0,0.1,0,0.2,0.2,0.2c0.4,0,0.7,0.4,0.9,0.7c0.1,0.1,0.2,0.2,0.3,0.2c0.4,0.1,0.7,0.1,1.1,0c0.5-0.1,0.9,0,1.4,0.2
		c0.4,0.2,0.9,0.4,1.3,0.7c0.2,0.2,0.4,0.4,0.6,0.5c0.4,0.2,0.6,0.6,0.7,1.1c0,0.3,0.2,0.7,0.3,1c0.1,0.2,0.2,0.4,0.4,0.4
		s0.2,0.2,0.2,0.3c-0.1,0.2-0.1,0.5-0.3,0.7C41.9,19.2,41.9,19.3,41.8,19.4c-0.2,0.1-0.3,0.3-0.5,0.5c0.3,0,0.4-0.1,0.5-0.4
		C41.8,19.4,41.8,19.4,41.8,19.4z M23.5,80.4c-0.2-0.2-0.6-0.3-0.5-0.8c-0.2,0.4,0.2,0.6,0.2,0.9C23.3,80.4,23.4,80.4,23.5,80.4
		c0.1,0.2,0.4,0.2,0.5,0.4c0.1,0.1,0.1,0,0.1-0.1c0-0.2,0.2-0.3,0.2-0.5c0-0.1,0.1-0.1,0.1-0.2c0.1,0,0.1,0.1,0.1,0.2
		c0,0.2,0.1,0.4,0,0.7c-0.1,0.1,0,0.1,0.1,0.2c0.1,0,0.1,0,0.1-0.1s0-0.2-0.1-0.3c0-0.3,0-0.3,0.2-0.5c0.1-0.1,0.2-0.1,0.3-0.1
		s0.1-0.1,0.1-0.2s-0.1-0.1-0.1-0.1c-0.1,0-0.2,0-0.2,0.1c-0.2,0.1-0.3,0-0.4-0.2s-0.1-0.5,0.1-0.6c0,0,0.1,0,0.1-0.1
		s-0.1-0.1-0.1-0.2c-0.2-0.1-0.2,0-0.3,0.2c0,0.4-0.1,0.7-0.2,1.1c0,0.3-0.1,0.4-0.4,0.4C23.7,80.4,23.6,80.4,23.5,80.4z M23.7,10
		c-0.4,0.3-0.4,0.5-0.1,0.9c0,0.1,0.1,0.2,0.1,0.2c0.1,0.2,0.2,0.2,0.3,0s0.1-0.4,0-0.6C23.9,10.3,23.8,10.1,23.7,10z M23.1,79.5
		c0.3,0.1,0.7-0.1,0.8-0.4V79c0,0,0-0.1-0.1-0.1h-0.1C23.7,79.2,23.4,79.3,23.1,79.5z M22.7,78.5c0.1,0.1,0.1,0.3,0.2,0.2
		c0.2-0.2,0.4-0.1,0.7-0.2C23.3,78.3,23,78.7,22.7,78.5z M21.6,69.3c0.1-0.1,0.4,0,0.3-0.4c0-0.2-0.2-0.1-0.3-0.1
		C21.6,69,21.6,69.1,21.6,69.3z"/>
	<path class="st1" d="M32.5,77c0.2,0.1,0.4,0.1,0.5,0.4c0.1-0.1,0.1-0.1,0.2-0.1c0.2-0.2,0.2-0.2,0-0.4l-0.1-0.1
		c0-0.1,0-0.2,0.1-0.2c0.3,0.1,0.7,0,1,0c0.1,0,0.2,0,0.3-0.1c0,0,0.1-0.1,0.2-0.1c0.3,0,0.5,0.2,0.8,0.3c0.1,0.1,0.1,0.4,0,0.5
		s-0.2,0.2-0.4,0.2c-0.1,0-0.2,0-0.2,0.2l0,0c-0.4,0-0.4,0.3-0.6,0.4c-0.3,0.1-0.3,0.1-0.4-0.2c-0.2-0.3-0.2-0.3-0.4-0.1
		c-0.3,0.3-0.4,0.3-0.7-0.1c-0.1-0.1-0.1-0.2-0.2-0.3C32.5,77.3,32.5,77.3,32.5,77z"/>
</g>
</svg>
