<svg id="Layer_1" data-name="Layer 1" xmlns="http://www.w3.org/2000/svg" viewBox="0 0 234 146.77"><defs><style>.cls-1{fill:#efefef;}.cls-2{fill:#fff;}.cls-3{fill:#30b2d2;}.cls-4,.cls-5,.cls-6{fill:none;}.cls-4,.cls-6{stroke:#30b2d2;stroke-miterlimit:10;}.cls-4{stroke-width:0.25px;}.cls-5{stroke:#47a4ea;stroke-linecap:round;stroke-linejoin:round;stroke-width:6px;}</style></defs><path class="cls-1" d="M219.06,88.4h11.31A3.63,3.63,0,0,1,234,92v54.55a0,0,0,0,1,0,0H215.43a0,0,0,0,1,0,0V92A3.63,3.63,0,0,1,219.06,88.4Z"/><path class="cls-2" d="M209.06,71.73h11.33a3.36,3.36,0,0,1,3.36,3.36v71.49a0,0,0,0,1,0,0H205.7a0,0,0,0,1,0,0V75.09A3.36,3.36,0,0,1,209.06,71.73Z"/><path class="cls-3" d="M222.19,76.52H210.66a.26.26,0,0,1-.27-.26.27.27,0,0,1,.27-.26h11.53a.27.27,0,0,1,.27.26A.26.26,0,0,1,222.19,76.52Z" transform="translate(-2 -0.54)"/><path class="cls-3" d="M222.19,79.13H210.66a.26.26,0,0,1-.27-.26.27.27,0,0,1,.27-.26h11.53a.27.27,0,0,1,.27.26A.26.26,0,0,1,222.19,79.13Z" transform="translate(-2 -0.54)"/><path class="cls-3" d="M222.19,81.75H210.66a.27.27,0,1,1,0-.53h11.53a.27.27,0,1,1,0,.53Z" transform="translate(-2 -0.54)"/><path class="cls-3" d="M222.19,84.36H210.66a.27.27,0,1,1,0-.53h11.53a.27.27,0,1,1,0,.53Z" transform="translate(-2 -0.54)"/><path class="cls-3" d="M222.19,87H210.66a.27.27,0,0,1-.27-.26.26.26,0,0,1,.27-.26h11.53a.26.26,0,0,1,.27.26A.27.27,0,0,1,222.19,87Z" transform="translate(-2 -0.54)"/><path class="cls-3" d="M222.19,89.58H210.66a.27.27,0,0,1-.27-.26.26.26,0,0,1,.27-.26h11.53a.26.26,0,0,1,.27.26A.27.27,0,0,1,222.19,89.58Z" transform="translate(-2 -0.54)"/><path class="cls-3" d="M222.19,92.19H210.66a.27.27,0,0,1-.27-.26.26.26,0,0,1,.27-.26h11.53a.26.26,0,0,1,.27.26A.27.27,0,0,1,222.19,92.19Z" transform="translate(-2 -0.54)"/><path class="cls-3" d="M222.19,94.8H210.66a.26.26,0,1,1,0-.52h11.53a.26.26,0,1,1,0,.52Z" transform="translate(-2 -0.54)"/><path class="cls-3" d="M222.19,97.41H210.66a.26.26,0,1,1,0-.52h11.53a.26.26,0,1,1,0,.52Z" transform="translate(-2 -0.54)"/><path class="cls-3" d="M222.19,100H210.66a.26.26,0,0,1-.27-.26.27.27,0,0,1,.27-.26h11.53a.27.27,0,0,1,.27.26A.26.26,0,0,1,222.19,100Z" transform="translate(-2 -0.54)"/><path class="cls-3" d="M222.19,102.63H210.66a.26.26,0,0,1-.27-.26.27.27,0,0,1,.27-.26h11.53a.27.27,0,0,1,.27.26A.26.26,0,0,1,222.19,102.63Z" transform="translate(-2 -0.54)"/><path class="cls-3" d="M222.19,105.24H210.66a.26.26,0,0,1-.27-.26.27.27,0,0,1,.27-.26h11.53a.27.27,0,0,1,.27.26A.26.26,0,0,1,222.19,105.24Z" transform="translate(-2 -0.54)"/><path class="cls-3" d="M222.19,107.86H210.66a.27.27,0,1,1,0-.53h11.53a.27.27,0,1,1,0,.53Z" transform="translate(-2 -0.54)"/><path class="cls-3" d="M222.19,110.47H210.66a.27.27,0,1,1,0-.53h11.53a.27.27,0,1,1,0,.53Z" transform="translate(-2 -0.54)"/><path class="cls-3" d="M222.19,113.08H210.66a.27.27,0,0,1-.27-.26.26.26,0,0,1,.27-.26h11.53a.26.26,0,0,1,.27.26A.27.27,0,0,1,222.19,113.08Z" transform="translate(-2 -0.54)"/><path class="cls-3" d="M223.25,115.6H210.69a.27.27,0,1,1,0-.53h12.56a.27.27,0,1,1,0,.53Z" transform="translate(-2 -0.54)"/><path class="cls-3" d="M223.25,118.2H210.69a.26.26,0,1,1,0-.52h12.56a.26.26,0,1,1,0,.52Z" transform="translate(-2 -0.54)"/><path class="cls-3" d="M223.25,120.81H210.69a.27.27,0,1,1,0-.53h12.56a.27.27,0,1,1,0,.53Z" transform="translate(-2 -0.54)"/><path class="cls-3" d="M223.25,123.41H210.69a.26.26,0,1,1,0-.52h12.56a.26.26,0,1,1,0,.52Z" transform="translate(-2 -0.54)"/><path class="cls-3" d="M223.25,126H210.69a.27.27,0,1,1,0-.53h12.56a.27.27,0,1,1,0,.53Z" transform="translate(-2 -0.54)"/><path class="cls-3" d="M223.25,128.62H210.69a.26.26,0,1,1,0-.52h12.56a.26.26,0,1,1,0,.52Z" transform="translate(-2 -0.54)"/><path class="cls-3" d="M223.25,131.23H210.69a.27.27,0,1,1,0-.53h12.56a.27.27,0,1,1,0,.53Z" transform="translate(-2 -0.54)"/><path class="cls-3" d="M223.25,133.83H210.69a.26.26,0,1,1,0-.52h12.56a.26.26,0,1,1,0,.52Z" transform="translate(-2 -0.54)"/><path class="cls-3" d="M223.25,136.44H210.69a.27.27,0,1,1,0-.53h12.56a.27.27,0,1,1,0,.53Z" transform="translate(-2 -0.54)"/><path class="cls-3" d="M223.25,139H210.69a.26.26,0,1,1,0-.52h12.56a.26.26,0,1,1,0,.52Z" transform="translate(-2 -0.54)"/><path class="cls-3" d="M223.25,141.64H210.69a.28.28,0,0,1-.3-.26.28.28,0,0,1,.3-.26h12.56a.29.29,0,0,1,.3.26A.28.28,0,0,1,223.25,141.64Z" transform="translate(-2 -0.54)"/><path class="cls-3" d="M223.25,144.25H210.69a.26.26,0,1,1,0-.52h12.56a.26.26,0,1,1,0,.52Z" transform="translate(-2 -0.54)"/><polygon class="cls-2" points="215.56 71.75 214.69 53.09 213.82 71.75 215.56 71.75"/><path class="cls-1" d="M133.14,99.78h13.23a4.21,4.21,0,0,1,4.21,4.21v42.67a0,0,0,0,1,0,0H128.92a0,0,0,0,1,0,0V104A4.21,4.21,0,0,1,133.14,99.78Z"/><path class="cls-1" d="M88.84,137.3H217.93a4.31,4.31,0,0,1,4.31,4.31v5a0,0,0,0,1,0,0H84.53a0,0,0,0,1,0,0v-5A4.31,4.31,0,0,1,88.84,137.3Z"/><path class="cls-1" d="M88.73,117.66H97a2,2,0,0,1,2,2v26.91a0,0,0,0,1,0,0H86.72a0,0,0,0,1,0,0V119.67A2,2,0,0,1,88.73,117.66Z"/><rect class="cls-3" x="88.27" y="120.37" width="1.77" height="2.48" rx="0.28"/><rect class="cls-3" x="91.93" y="120.37" width="1.77" height="2.48" rx="0.28"/><rect class="cls-3" x="95.58" y="120.37" width="1.77" height="2.48" rx="0.28"/><rect class="cls-3" x="88.27" y="124.54" width="1.77" height="2.48" rx="0.28"/><rect class="cls-3" x="91.93" y="124.54" width="1.77" height="2.48" rx="0.28"/><rect class="cls-3" x="95.58" y="124.54" width="1.77" height="2.48" rx="0.28"/><rect class="cls-3" x="88.27" y="128.71" width="1.77" height="2.48" rx="0.28"/><rect class="cls-3" x="91.93" y="128.71" width="1.77" height="2.48" rx="0.28"/><rect class="cls-3" x="95.58" y="128.71" width="1.77" height="2.48" rx="0.28"/><rect class="cls-3" x="88.27" y="132.87" width="1.77" height="2.48" rx="0.28"/><rect class="cls-3" x="91.93" y="132.87" width="1.77" height="2.48" rx="0.28"/><rect class="cls-3" x="95.58" y="132.87" width="1.77" height="2.48" rx="0.28"/><rect class="cls-3" x="88.27" y="137.04" width="1.77" height="2.48" rx="0.28"/><rect class="cls-3" x="91.93" y="137.04" width="1.77" height="2.48" rx="0.28"/><rect class="cls-3" x="95.58" y="137.04" width="1.77" height="2.48" rx="0.28"/><rect class="cls-3" x="88.27" y="141.21" width="1.77" height="2.48" rx="0.28"/><rect class="cls-3" x="91.93" y="141.21" width="1.77" height="2.48" rx="0.28"/><rect class="cls-3" x="95.58" y="141.21" width="1.77" height="2.48" rx="0.28"/><rect class="cls-3" x="95.6" y="120.37" width="1.77" height="2.48" rx="0.28"/><path class="cls-1" d="M81.75,103.09V104a1.12,1.12,0,0,1-1.12,1.12H74.54a1.13,1.13,0,0,0-1.13,1.12v40.91H87.89v-44A1.13,1.13,0,0,0,86.77,102h-3.9A1.13,1.13,0,0,0,81.75,103.09Z" transform="translate(-2 -0.54)"/><path class="cls-3" d="M75.37,145.75a.19.19,0,0,1-.19-.2V106.48a.19.19,0,0,1,.19-.2.2.2,0,0,1,.2.2v39.07A.2.2,0,0,1,75.37,145.75Z" transform="translate(-2 -0.54)"/><path class="cls-3" d="M77.46,145.75a.2.2,0,0,1-.2-.2V106.48a.2.2,0,1,1,.39,0v39.07A.2.2,0,0,1,77.46,145.75Z" transform="translate(-2 -0.54)"/><path class="cls-3" d="M79.54,145.75a.2.2,0,0,1-.2-.2V106.48a.2.2,0,0,1,.2-.2.19.19,0,0,1,.19.2v39.07A.19.19,0,0,1,79.54,145.75Z" transform="translate(-2 -0.54)"/><path class="cls-3" d="M81.62,145.75a.2.2,0,0,1-.19-.2V106.48a.2.2,0,1,1,.39,0v39.07A.2.2,0,0,1,81.62,145.75Z" transform="translate(-2 -0.54)"/><path class="cls-3" d="M83.71,145.75a.2.2,0,0,1-.2-.2v-42.2a.19.19,0,0,1,.2-.19.19.19,0,0,1,.19.19v42.2A.2.2,0,0,1,83.71,145.75Z" transform="translate(-2 -0.54)"/><path class="cls-3" d="M85.79,145.75a.19.19,0,0,1-.19-.2v-42.2a.18.18,0,0,1,.19-.19.19.19,0,0,1,.2.19v42.2A.2.2,0,0,1,85.79,145.75Z" transform="translate(-2 -0.54)"/><path class="cls-3" d="M87.25,107.41H74.61a.19.19,0,0,1-.19-.19.19.19,0,0,1,.19-.2H87.25a.2.2,0,0,1,.19.2A.2.2,0,0,1,87.25,107.41Z" transform="translate(-2 -0.54)"/><path class="cls-3" d="M87,111.32H74.37a.19.19,0,0,1-.19-.2.19.19,0,0,1,.19-.19H87a.2.2,0,0,1,.19.19A.2.2,0,0,1,87,111.32Z" transform="translate(-2 -0.54)"/><path class="cls-3" d="M87,115.49H74.37a.19.19,0,0,1-.19-.2.18.18,0,0,1,.19-.19H87a.19.19,0,0,1,.19.19A.2.2,0,0,1,87,115.49Z" transform="translate(-2 -0.54)"/><path class="cls-3" d="M87,119.66H74.37a.2.2,0,0,1,0-.4H87a.2.2,0,0,1,0,.4Z" transform="translate(-2 -0.54)"/><path class="cls-3" d="M87,123.82H74.37a.18.18,0,0,1-.19-.19.19.19,0,0,1,.19-.2H87a.2.2,0,0,1,.19.2A.19.19,0,0,1,87,123.82Z" transform="translate(-2 -0.54)"/><path class="cls-3" d="M87,128H74.37a.19.19,0,0,1-.19-.19.19.19,0,0,1,.19-.2H87a.2.2,0,0,1,.19.2A.2.2,0,0,1,87,128Z" transform="translate(-2 -0.54)"/><path class="cls-3" d="M87,132.16H74.37a.19.19,0,0,1-.19-.2.19.19,0,0,1,.19-.19H87a.2.2,0,0,1,.19.19A.2.2,0,0,1,87,132.16Z" transform="translate(-2 -0.54)"/><path class="cls-3" d="M87,136.33H74.37a.19.19,0,0,1-.19-.2.18.18,0,0,1,.19-.19H87a.19.19,0,0,1,.19.19A.2.2,0,0,1,87,136.33Z" transform="translate(-2 -0.54)"/><path class="cls-3" d="M87,140.49H74.37a.18.18,0,0,1-.19-.19.19.19,0,0,1,.19-.2H87a.2.2,0,0,1,.19.2A.19.19,0,0,1,87,140.49Z" transform="translate(-2 -0.54)"/><path class="cls-3" d="M87,144.66H74.37a.19.19,0,0,1-.19-.19.19.19,0,0,1,.19-.2H87a.2.2,0,0,1,.19.2A.2.2,0,0,1,87,144.66Z" transform="translate(-2 -0.54)"/><path class="cls-2" d="M32.51,104.66H25.22a0,0,0,0,0,0,0v42.42h8.34V105.67A1,1,0,0,0,32.51,104.66Z" transform="translate(-2 -0.54)"/><path class="cls-1" d="M23.81,94.85H11.73a1.47,1.47,0,0,0-1.48,1.47v50.8h15V96.32A1.47,1.47,0,0,0,23.81,94.85Zm-10.4,47.76a.27.27,0,0,1-.27.27H12a.28.28,0,0,1-.28-.27v-1.86a.29.29,0,0,1,.28-.28h1.16a.28.28,0,0,1,.27.28Zm0-4.69a.28.28,0,0,1-.27.28H12a.29.29,0,0,1-.28-.28v-1.86a.29.29,0,0,1,.28-.28h1.16a.28.28,0,0,1,.27.28Zm0-4.69a.28.28,0,0,1-.27.28H12a.29.29,0,0,1-.28-.28v-1.86a.29.29,0,0,1,.28-.28h1.16a.28.28,0,0,1,.27.28Zm0-4.69a.28.28,0,0,1-.27.28H12a.29.29,0,0,1-.28-.28v-1.86a.28.28,0,0,1,.28-.27h1.16a.27.27,0,0,1,.27.27Zm0-4.69a.28.28,0,0,1-.27.28H12a.29.29,0,0,1-.28-.28V122a.28.28,0,0,1,.28-.27h1.16a.27.27,0,0,1,.27.27Zm0-4.69a.27.27,0,0,1-.27.28H12a.28.28,0,0,1-.28-.28V117.3A.28.28,0,0,1,12,117h1.16a.27.27,0,0,1,.27.27Zm0-4.68a.27.27,0,0,1-.27.27H12a.28.28,0,0,1-.28-.27v-1.86a.28.28,0,0,1,.28-.28h1.16a.27.27,0,0,1,.27.28Zm0-4.69a.27.27,0,0,1-.27.27H12a.28.28,0,0,1-.28-.27v-1.86a.29.29,0,0,1,.28-.28h1.16a.28.28,0,0,1,.27.28Zm0-4.69a.27.27,0,0,1-.27.27H12a.28.28,0,0,1-.28-.27v-1.86A.29.29,0,0,1,12,103h1.16a.28.28,0,0,1,.27.28Zm0-4.69a.28.28,0,0,1-.27.28H12a.29.29,0,0,1-.28-.28V98.55a.29.29,0,0,1,.28-.28h1.16a.28.28,0,0,1,.27.28ZM17,114.48a.27.27,0,0,1-.28.27H15.54a.27.27,0,0,1-.28-.27v-1.86a.27.27,0,0,1,.28-.28h1.15a.27.27,0,0,1,.28.28Zm0-4.69a.27.27,0,0,1-.28.27H15.54a.27.27,0,0,1-.28-.27v-1.86a.28.28,0,0,1,.28-.28h1.15a.28.28,0,0,1,.28.28Zm0-4.69a.27.27,0,0,1-.28.27H15.54a.27.27,0,0,1-.28-.27v-1.86a.28.28,0,0,1,.28-.28h1.15a.28.28,0,0,1,.28.28Zm0-4.69a.28.28,0,0,1-.28.28H15.54a.28.28,0,0,1-.28-.28V98.55a.28.28,0,0,1,.28-.28h1.15a.28.28,0,0,1,.28.28Zm3.55,14.07a.27.27,0,0,1-.28.27H19.09a.27.27,0,0,1-.28-.27v-1.86a.27.27,0,0,1,.28-.28h1.15a.27.27,0,0,1,.28.28Zm0-4.69a.27.27,0,0,1-.28.27H19.09a.27.27,0,0,1-.28-.27v-1.86a.28.28,0,0,1,.28-.28h1.15a.28.28,0,0,1,.28.28Zm0-4.69a.27.27,0,0,1-.28.27H19.09a.27.27,0,0,1-.28-.27v-1.86a.28.28,0,0,1,.28-.28h1.15a.28.28,0,0,1,.28.28Zm0-4.69a.28.28,0,0,1-.28.28H19.09a.28.28,0,0,1-.28-.28V98.55a.28.28,0,0,1,.28-.28h1.15a.28.28,0,0,1,.28.28Zm3.56,14.07a.28.28,0,0,1-.28.27H22.64a.26.26,0,0,1-.27-.27v-1.86a.27.27,0,0,1,.27-.28H23.8a.28.28,0,0,1,.28.28Zm0-4.69a.28.28,0,0,1-.28.27H22.64a.26.26,0,0,1-.27-.27v-1.86a.27.27,0,0,1,.27-.28H23.8a.29.29,0,0,1,.28.28Zm0-4.69a.28.28,0,0,1-.28.27H22.64a.26.26,0,0,1-.27-.27v-1.86a.27.27,0,0,1,.27-.28H23.8a.29.29,0,0,1,.28.28Zm0-4.69a.29.29,0,0,1-.28.28H22.64a.27.27,0,0,1-.27-.28V98.55a.27.27,0,0,1,.27-.28H23.8a.29.29,0,0,1,.28.28Z" transform="translate(-2 -0.54)"/><rect class="cls-3" x="16.81" y="111.8" width="1.71" height="2.41" rx="0.28"/><rect class="cls-3" x="20.37" y="111.8" width="1.71" height="2.41" rx="0.28"/><rect class="cls-3" x="20.37" y="107.12" width="1.71" height="2.41" rx="0.28"/><rect class="cls-3" x="20.37" y="97.74" width="1.71" height="2.41" rx="0.28"/><rect class="cls-3" x="20.37" y="102.43" width="1.71" height="2.41" rx="0.28"/><rect class="cls-3" x="16.81" y="107.12" width="1.71" height="2.41" rx="0.28"/><rect class="cls-3" x="13.26" y="107.12" width="1.71" height="2.41" rx="0.28"/><rect class="cls-3" x="13.26" y="111.8" width="1.71" height="2.41" rx="0.28"/><path class="cls-3" d="M13.41,140.75v1.86a.27.27,0,0,1-.27.27H12a.28.28,0,0,1-.28-.27v-1.86a.29.29,0,0,1,.28-.28h1.16A.28.28,0,0,1,13.41,140.75Z" transform="translate(-2 -0.54)"/><path class="cls-3" d="M13.41,136.06v1.86a.28.28,0,0,1-.27.28H12a.29.29,0,0,1-.28-.28v-1.86a.29.29,0,0,1,.28-.28h1.16A.28.28,0,0,1,13.41,136.06Z" transform="translate(-2 -0.54)"/><path class="cls-3" d="M13.41,131.37v1.86a.28.28,0,0,1-.27.28H12a.29.29,0,0,1-.28-.28v-1.86a.29.29,0,0,1,.28-.28h1.16A.28.28,0,0,1,13.41,131.37Z" transform="translate(-2 -0.54)"/><path class="cls-3" d="M13.41,126.68v1.86a.28.28,0,0,1-.27.28H12a.29.29,0,0,1-.28-.28v-1.86a.28.28,0,0,1,.28-.27h1.16A.27.27,0,0,1,13.41,126.68Z" transform="translate(-2 -0.54)"/><path class="cls-3" d="M13.41,122v1.86a.28.28,0,0,1-.27.28H12a.29.29,0,0,1-.28-.28V122a.28.28,0,0,1,.28-.27h1.16A.27.27,0,0,1,13.41,122Z" transform="translate(-2 -0.54)"/><path class="cls-3" d="M13.41,117.3v1.86a.27.27,0,0,1-.27.28H12a.28.28,0,0,1-.28-.28V117.3A.28.28,0,0,1,12,117h1.16A.27.27,0,0,1,13.41,117.3Z" transform="translate(-2 -0.54)"/><path class="cls-3" d="M13.41,112.62v1.86a.27.27,0,0,1-.27.27H12a.28.28,0,0,1-.28-.27v-1.86a.28.28,0,0,1,.28-.28h1.16A.27.27,0,0,1,13.41,112.62Z" transform="translate(-2 -0.54)"/><path class="cls-3" d="M13.41,107.93v1.86a.27.27,0,0,1-.27.27H12a.28.28,0,0,1-.28-.27v-1.86a.29.29,0,0,1,.28-.28h1.16A.28.28,0,0,1,13.41,107.93Z" transform="translate(-2 -0.54)"/><path class="cls-3" d="M13.41,103.24v1.86a.27.27,0,0,1-.27.27H12a.28.28,0,0,1-.28-.27v-1.86A.29.29,0,0,1,12,103h1.16A.28.28,0,0,1,13.41,103.24Z" transform="translate(-2 -0.54)"/><rect class="cls-3" x="13.26" y="102.43" width="1.71" height="2.41" rx="0.28"/><rect class="cls-3" x="16.81" y="102.43" width="1.71" height="2.41" rx="0.28"/><rect class="cls-3" x="16.81" y="97.74" width="1.71" height="2.41" rx="0.28"/><rect class="cls-3" x="13.26" y="97.74" width="1.71" height="2.41" rx="0.28"/><path class="cls-3" d="M13.41,98.55v1.86a.28.28,0,0,1-.27.28H12a.29.29,0,0,1-.28-.28V98.55a.29.29,0,0,1,.28-.28h1.16A.28.28,0,0,1,13.41,98.55Z" transform="translate(-2 -0.54)"/><path class="cls-2" d="M25.3,115.58H15.59a1.29,1.29,0,0,0-1.29,1.29v30.22H26.59V116.87A1.29,1.29,0,0,0,25.3,115.58Zm-7.59,28.83a.29.29,0,0,1-.29.29H16.23a.29.29,0,0,1-.29-.29V142.5a.29.29,0,0,1,.29-.29h1.19a.29.29,0,0,1,.29.29Zm0-4.83a.28.28,0,0,1-.29.28H16.23a.28.28,0,0,1-.29-.28v-1.92a.29.29,0,0,1,.29-.28h1.19a.29.29,0,0,1,.29.28Zm0-4.84a.29.29,0,0,1-.29.29H16.23a.29.29,0,0,1-.29-.29v-1.91a.29.29,0,0,1,.29-.29h1.19a.29.29,0,0,1,.29.29Zm0-4.83a.28.28,0,0,1-.29.28H16.23a.28.28,0,0,1-.29-.28V128a.29.29,0,0,1,.29-.28h1.19a.29.29,0,0,1,.29.28Zm0-4.84a.29.29,0,0,1-.29.29H16.23a.29.29,0,0,1-.29-.29v-1.91a.28.28,0,0,1,.29-.28h1.19a.28.28,0,0,1,.29.28Zm0-4.83a.28.28,0,0,1-.29.28H16.23a.28.28,0,0,1-.29-.28v-1.92a.29.29,0,0,1,.29-.28h1.19a.29.29,0,0,1,.29.28Zm3.66,24.17a.28.28,0,0,1-.28.29h-1.2a.28.28,0,0,1-.28-.29V142.5a.28.28,0,0,1,.28-.29h1.2a.28.28,0,0,1,.28.29Zm0-4.83a.27.27,0,0,1-.28.28h-1.2a.27.27,0,0,1-.28-.28v-1.92a.28.28,0,0,1,.28-.28h1.2a.28.28,0,0,1,.28.28Zm0-4.84a.28.28,0,0,1-.28.29h-1.2a.28.28,0,0,1-.28-.29v-1.91a.28.28,0,0,1,.28-.29h1.2a.28.28,0,0,1,.28.29Zm0-4.83a.27.27,0,0,1-.28.28h-1.2a.27.27,0,0,1-.28-.28V128a.28.28,0,0,1,.28-.28h1.2a.28.28,0,0,1,.28.28Zm0-4.84a.28.28,0,0,1-.28.29h-1.2a.28.28,0,0,1-.28-.29v-1.91a.27.27,0,0,1,.28-.28h1.2a.27.27,0,0,1,.28.28Zm0-4.83a.27.27,0,0,1-.28.28h-1.2a.27.27,0,0,1-.28-.28v-1.92a.28.28,0,0,1,.28-.28h1.2a.28.28,0,0,1,.28.28ZM25,144.41a.29.29,0,0,1-.29.29h-1.2a.29.29,0,0,1-.28-.29V142.5a.29.29,0,0,1,.28-.29h1.2a.29.29,0,0,1,.29.29Zm0-4.83a.28.28,0,0,1-.29.28h-1.2a.28.28,0,0,1-.28-.28v-1.92a.29.29,0,0,1,.28-.28h1.2a.29.29,0,0,1,.29.28Zm0-4.84a.29.29,0,0,1-.29.29h-1.2a.29.29,0,0,1-.28-.29v-1.91a.29.29,0,0,1,.28-.29h1.2a.29.29,0,0,1,.29.29Zm0-4.83a.28.28,0,0,1-.29.28h-1.2a.28.28,0,0,1-.28-.28V128a.29.29,0,0,1,.28-.28h1.2A.29.29,0,0,1,25,128Zm0-4.84a.29.29,0,0,1-.29.29h-1.2a.29.29,0,0,1-.28-.29v-1.91a.28.28,0,0,1,.28-.28h1.2a.28.28,0,0,1,.29.28Zm0-4.83a.28.28,0,0,1-.29.28h-1.2a.28.28,0,0,1-.28-.28v-1.92a.29.29,0,0,1,.28-.28h1.2a.29.29,0,0,1,.29.28Z" transform="translate(-2 -0.54)"/><path class="cls-1" d="M46.06,104H36.29A1.27,1.27,0,0,0,35,105.25v41.87H47.32V105.25A1.27,1.27,0,0,0,46.06,104Zm-7.73,14.39a.29.29,0,0,1-.28.29h-1.2a.28.28,0,0,1-.28-.29v-2a.28.28,0,0,1,.28-.29h1.2a.29.29,0,0,1,.28.29Zm0-5a.29.29,0,0,1-.28.29h-1.2a.28.28,0,0,1-.28-.29v-2a.28.28,0,0,1,.28-.29h1.2a.29.29,0,0,1,.28.29Zm0-5a.29.29,0,0,1-.28.29h-1.2a.28.28,0,0,1-.28-.29v-2a.28.28,0,0,1,.28-.29h1.2a.29.29,0,0,1,.28.29ZM42,118.35a.29.29,0,0,1-.29.29h-1.2a.28.28,0,0,1-.28-.29v-2a.28.28,0,0,1,.28-.29h1.2a.29.29,0,0,1,.29.29Zm0-5a.29.29,0,0,1-.29.29h-1.2a.28.28,0,0,1-.28-.29v-2a.28.28,0,0,1,.28-.29h1.2a.29.29,0,0,1,.29.29Zm0-5a.29.29,0,0,1-.29.29h-1.2a.28.28,0,0,1-.28-.29v-2a.28.28,0,0,1,.28-.29h1.2a.29.29,0,0,1,.29.29Zm3.66,9.93a.29.29,0,0,1-.28.29h-1.2a.29.29,0,0,1-.29-.29v-2a.29.29,0,0,1,.29-.29h1.2a.29.29,0,0,1,.28.29Zm0-5a.29.29,0,0,1-.28.29h-1.2a.29.29,0,0,1-.29-.29v-2a.29.29,0,0,1,.29-.29h1.2a.29.29,0,0,1,.28.29Zm0-5a.29.29,0,0,1-.28.29h-1.2a.29.29,0,0,1-.29-.29v-2a.29.29,0,0,1,.29-.29h1.2a.29.29,0,0,1,.28.29Z" transform="translate(-2 -0.54)"/><path class="cls-3" d="M45.66,106.45v2a.29.29,0,0,1-.28.29h-1.2a.29.29,0,0,1-.29-.29v-2a.29.29,0,0,1,.29-.29h1.2A.29.29,0,0,1,45.66,106.45Z" transform="translate(-2 -0.54)"/><path class="cls-3" d="M45.66,116.38v2a.29.29,0,0,1-.28.29h-1.2a.29.29,0,0,1-.29-.29v-2a.29.29,0,0,1,.29-.29h1.2A.29.29,0,0,1,45.66,116.38Z" transform="translate(-2 -0.54)"/><path class="cls-3" d="M42,116.38v2a.29.29,0,0,1-.29.29h-1.2a.28.28,0,0,1-.28-.29v-2a.28.28,0,0,1,.28-.29h1.2A.29.29,0,0,1,42,116.38Z" transform="translate(-2 -0.54)"/><path class="cls-3" d="M38.33,116.38v2a.29.29,0,0,1-.28.29h-1.2a.28.28,0,0,1-.28-.29v-2a.28.28,0,0,1,.28-.29h1.2A.29.29,0,0,1,38.33,116.38Z" transform="translate(-2 -0.54)"/><path class="cls-3" d="M45.66,111.42v2a.29.29,0,0,1-.28.29h-1.2a.29.29,0,0,1-.29-.29v-2a.29.29,0,0,1,.29-.29h1.2A.29.29,0,0,1,45.66,111.42Z" transform="translate(-2 -0.54)"/><path class="cls-3" d="M42,111.42v2a.29.29,0,0,1-.29.29h-1.2a.28.28,0,0,1-.28-.29v-2a.28.28,0,0,1,.28-.29h1.2A.29.29,0,0,1,42,111.42Z" transform="translate(-2 -0.54)"/><path class="cls-3" d="M38.33,111.42v2a.29.29,0,0,1-.28.29h-1.2a.28.28,0,0,1-.28-.29v-2a.28.28,0,0,1,.28-.29h1.2A.29.29,0,0,1,38.33,111.42Z" transform="translate(-2 -0.54)"/><path class="cls-3" d="M42,106.45v2a.29.29,0,0,1-.29.29h-1.2a.28.28,0,0,1-.28-.29v-2a.28.28,0,0,1,.28-.29h1.2A.29.29,0,0,1,42,106.45Z" transform="translate(-2 -0.54)"/><path class="cls-3" d="M38.33,106.45v2a.29.29,0,0,1-.28.29h-1.2a.28.28,0,0,1-.28-.29v-2a.28.28,0,0,1,.28-.29h1.2A.29.29,0,0,1,38.33,106.45Z" transform="translate(-2 -0.54)"/><path class="cls-1" d="M154.69,89.27h8.42a3.18,3.18,0,0,1,3.18,3.18v54.13a0,0,0,0,1,0,0H151.52a0,0,0,0,1,0,0V92.45A3.18,3.18,0,0,1,154.69,89.27Z"/><path class="cls-3" d="M163.59,145.23a.19.19,0,0,1-.19-.2V91a.18.18,0,0,1,.19-.19.19.19,0,0,1,.2.19v54A.2.2,0,0,1,163.59,145.23Z" transform="translate(-2 -0.54)"/><path class="cls-3" d="M161,145.23a.2.2,0,0,1-.2-.2V91a.19.19,0,0,1,.2-.19.19.19,0,0,1,.19.19v54A.2.2,0,0,1,161,145.23Z" transform="translate(-2 -0.54)"/><path class="cls-3" d="M161,93.13h-5.21a.2.2,0,1,1,0-.39H161a.2.2,0,0,1,.19.19A.2.2,0,0,1,161,93.13Z" transform="translate(-2 -0.54)"/><path class="cls-3" d="M161,95.73h-5.21a.19.19,0,0,1-.2-.19.2.2,0,0,1,.2-.2H161a.2.2,0,0,1,.19.2A.19.19,0,0,1,161,95.73Z" transform="translate(-2 -0.54)"/><path class="cls-3" d="M161,98.34h-5.21a.2.2,0,1,1,0-.39H161a.2.2,0,0,1,.19.19A.2.2,0,0,1,161,98.34Z" transform="translate(-2 -0.54)"/><path class="cls-3" d="M161,100.94h-5.21a.19.19,0,0,1-.2-.19.2.2,0,0,1,.2-.2H161a.2.2,0,0,1,.19.2A.19.19,0,0,1,161,100.94Z" transform="translate(-2 -0.54)"/><path class="cls-3" d="M161,103.55h-5.21a.2.2,0,0,1-.2-.2.19.19,0,0,1,.2-.19H161a.19.19,0,0,1,.19.19A.2.2,0,0,1,161,103.55Z" transform="translate(-2 -0.54)"/><path class="cls-3" d="M161,106.15h-5.21a.19.19,0,0,1-.2-.19.2.2,0,0,1,.2-.2H161a.2.2,0,0,1,.19.2A.19.19,0,0,1,161,106.15Z" transform="translate(-2 -0.54)"/><path class="cls-3" d="M161,108.76h-5.21a.2.2,0,0,1-.2-.2.19.19,0,0,1,.2-.19H161a.19.19,0,0,1,.19.19A.2.2,0,0,1,161,108.76Z" transform="translate(-2 -0.54)"/><path class="cls-3" d="M161,111.36h-5.21a.19.19,0,0,1-.2-.19.2.2,0,0,1,.2-.2H161a.2.2,0,0,1,.19.2A.19.19,0,0,1,161,111.36Z" transform="translate(-2 -0.54)"/><path class="cls-3" d="M161,114h-5.21a.2.2,0,0,1-.2-.2.19.19,0,0,1,.2-.19H161a.19.19,0,0,1,.19.19A.2.2,0,0,1,161,114Z" transform="translate(-2 -0.54)"/><path class="cls-3" d="M161,116.57h-5.21a.19.19,0,0,1-.2-.19.2.2,0,0,1,.2-.2H161a.2.2,0,0,1,.19.2A.19.19,0,0,1,161,116.57Z" transform="translate(-2 -0.54)"/><path class="cls-3" d="M161,119.18h-5.21a.2.2,0,0,1-.2-.2.19.19,0,0,1,.2-.19H161a.19.19,0,0,1,.19.19A.2.2,0,0,1,161,119.18Z" transform="translate(-2 -0.54)"/><path class="cls-3" d="M161,121.78h-5.21a.2.2,0,1,1,0-.39H161a.2.2,0,0,1,.19.2A.2.2,0,0,1,161,121.78Z" transform="translate(-2 -0.54)"/><path class="cls-3" d="M161,124.39h-5.21a.2.2,0,0,1-.2-.2.19.19,0,0,1,.2-.19H161a.19.19,0,0,1,.19.19A.2.2,0,0,1,161,124.39Z" transform="translate(-2 -0.54)"/><path class="cls-3" d="M161,127h-5.21a.2.2,0,1,1,0-.39H161a.2.2,0,0,1,.19.2A.2.2,0,0,1,161,127Z" transform="translate(-2 -0.54)"/><path class="cls-3" d="M161,129.6h-5.21a.2.2,0,0,1-.2-.2.19.19,0,0,1,.2-.19H161a.19.19,0,0,1,.19.19A.2.2,0,0,1,161,129.6Z" transform="translate(-2 -0.54)"/><path class="cls-3" d="M161,132.2h-5.21a.2.2,0,1,1,0-.39H161a.2.2,0,0,1,.19.2A.2.2,0,0,1,161,132.2Z" transform="translate(-2 -0.54)"/><path class="cls-3" d="M161,134.81h-5.21a.2.2,0,0,1-.2-.2.19.19,0,0,1,.2-.19H161a.19.19,0,0,1,.19.19A.2.2,0,0,1,161,134.81Z" transform="translate(-2 -0.54)"/><path class="cls-3" d="M161,137.41h-5.21a.2.2,0,1,1,0-.39H161a.2.2,0,0,1,.19.2A.2.2,0,0,1,161,137.41Z" transform="translate(-2 -0.54)"/><path class="cls-3" d="M161,140h-5.21a.2.2,0,0,1-.2-.2.19.19,0,0,1,.2-.19H161a.19.19,0,0,1,.19.19A.2.2,0,0,1,161,140Z" transform="translate(-2 -0.54)"/><path class="cls-3" d="M161,142.62h-5.21a.2.2,0,1,1,0-.39H161a.2.2,0,0,1,.19.2A.2.2,0,0,1,161,142.62Z" transform="translate(-2 -0.54)"/><path class="cls-3" d="M166.2,93.13h-2.61a.19.19,0,0,1-.19-.2.19.19,0,0,1,.19-.19h2.61a.2.2,0,0,1,.19.19A.2.2,0,0,1,166.2,93.13Z" transform="translate(-2 -0.54)"/><path class="cls-3" d="M166.2,95.73h-2.61a.18.18,0,0,1-.19-.19.19.19,0,0,1,.19-.2h2.61a.2.2,0,0,1,.19.2A.19.19,0,0,1,166.2,95.73Z" transform="translate(-2 -0.54)"/><path class="cls-3" d="M166.2,98.34h-2.61a.19.19,0,0,1-.19-.2.19.19,0,0,1,.19-.19h2.61a.2.2,0,0,1,.19.19A.2.2,0,0,1,166.2,98.34Z" transform="translate(-2 -0.54)"/><path class="cls-3" d="M166.2,100.94h-2.61a.18.18,0,0,1-.19-.19.19.19,0,0,1,.19-.2h2.61a.2.2,0,0,1,.19.2A.19.19,0,0,1,166.2,100.94Z" transform="translate(-2 -0.54)"/><path class="cls-3" d="M166.2,103.55h-2.61a.19.19,0,0,1-.19-.2.18.18,0,0,1,.19-.19h2.61a.19.19,0,0,1,.19.19A.2.2,0,0,1,166.2,103.55Z" transform="translate(-2 -0.54)"/><path class="cls-3" d="M166.2,106.15h-2.61a.18.18,0,0,1-.19-.19.19.19,0,0,1,.19-.2h2.61a.2.2,0,0,1,.19.2A.19.19,0,0,1,166.2,106.15Z" transform="translate(-2 -0.54)"/><path class="cls-3" d="M166.2,108.76h-2.61a.19.19,0,0,1-.19-.2.18.18,0,0,1,.19-.19h2.61a.19.19,0,0,1,.19.19A.2.2,0,0,1,166.2,108.76Z" transform="translate(-2 -0.54)"/><path class="cls-3" d="M166.2,111.36h-2.61a.18.18,0,0,1-.19-.19.19.19,0,0,1,.19-.2h2.61a.2.2,0,0,1,.19.2A.19.19,0,0,1,166.2,111.36Z" transform="translate(-2 -0.54)"/><path class="cls-3" d="M166.2,114h-2.61a.19.19,0,0,1-.19-.2.18.18,0,0,1,.19-.19h2.61a.19.19,0,0,1,.19.19A.2.2,0,0,1,166.2,114Z" transform="translate(-2 -0.54)"/><path class="cls-3" d="M166.2,116.57h-2.61a.18.18,0,0,1-.19-.19.19.19,0,0,1,.19-.2h2.61a.2.2,0,0,1,.19.2A.19.19,0,0,1,166.2,116.57Z" transform="translate(-2 -0.54)"/><path class="cls-3" d="M166.2,119.18h-2.61a.19.19,0,0,1-.19-.2.18.18,0,0,1,.19-.19h2.61a.19.19,0,0,1,.19.19A.2.2,0,0,1,166.2,119.18Z" transform="translate(-2 -0.54)"/><path class="cls-3" d="M166.2,121.78h-2.61a.19.19,0,0,1-.19-.19.19.19,0,0,1,.19-.2h2.61a.2.2,0,0,1,.19.2A.2.2,0,0,1,166.2,121.78Z" transform="translate(-2 -0.54)"/><path class="cls-3" d="M166.2,124.39h-2.61a.19.19,0,0,1-.19-.2.18.18,0,0,1,.19-.19h2.61a.19.19,0,0,1,.19.19A.2.2,0,0,1,166.2,124.39Z" transform="translate(-2 -0.54)"/><path class="cls-3" d="M166.2,127h-2.61a.19.19,0,0,1-.19-.19.19.19,0,0,1,.19-.2h2.61a.2.2,0,0,1,.19.2A.2.2,0,0,1,166.2,127Z" transform="translate(-2 -0.54)"/><path class="cls-3" d="M166.2,129.6h-2.61a.19.19,0,0,1-.19-.2.18.18,0,0,1,.19-.19h2.61a.19.19,0,0,1,.19.19A.2.2,0,0,1,166.2,129.6Z" transform="translate(-2 -0.54)"/><path class="cls-3" d="M166.2,132.2h-2.61a.19.19,0,0,1-.19-.19.19.19,0,0,1,.19-.2h2.61a.2.2,0,0,1,.19.2A.2.2,0,0,1,166.2,132.2Z" transform="translate(-2 -0.54)"/><path class="cls-3" d="M166.2,134.81h-2.61a.19.19,0,0,1-.19-.2.18.18,0,0,1,.19-.19h2.61a.19.19,0,0,1,.19.19A.2.2,0,0,1,166.2,134.81Z" transform="translate(-2 -0.54)"/><path class="cls-3" d="M166.2,137.41h-2.61a.19.19,0,0,1-.19-.19.19.19,0,0,1,.19-.2h2.61a.2.2,0,0,1,.19.2A.2.2,0,0,1,166.2,137.41Z" transform="translate(-2 -0.54)"/><path class="cls-3" d="M166.2,140h-2.61a.19.19,0,0,1-.19-.2.18.18,0,0,1,.19-.19h2.61a.19.19,0,0,1,.19.19A.2.2,0,0,1,166.2,140Z" transform="translate(-2 -0.54)"/><path class="cls-3" d="M166.2,142.62h-2.61a.19.19,0,0,1-.19-.19.19.19,0,0,1,.19-.2h2.61a.2.2,0,0,1,.19.2A.2.2,0,0,1,166.2,142.62Z" transform="translate(-2 -0.54)"/><rect class="cls-1" x="168.71" y="90.66" width="15.8" height="55.92" rx="2.86"/><path class="cls-3" d="M179.74,146.4a.19.19,0,0,1-.19-.2v-54a.19.19,0,0,1,.19-.19.2.2,0,0,1,.2.19v54A.2.2,0,0,1,179.74,146.4Z" transform="translate(-2 -0.54)"/><path class="cls-3" d="M177.14,146.4a.2.2,0,0,1-.2-.2v-54a.2.2,0,0,1,.2-.19.2.2,0,0,1,.19.19v54A.2.2,0,0,1,177.14,146.4Z" transform="translate(-2 -0.54)"/><path class="cls-2" d="M173,87.88h7.42a1.67,1.67,0,0,1,1.67,1.67v1.1a0,0,0,0,1,0,0H171.32a0,0,0,0,1,0,0v-1.1A1.67,1.67,0,0,1,173,87.88Z"/><path class="cls-1" d="M193.43,103.86h6.91a3.79,3.79,0,0,1,3.79,3.79v38.93a0,0,0,0,1,0,0h-14.5a0,0,0,0,1,0,0V107.65A3.79,3.79,0,0,1,193.43,103.86Z"/><rect class="cls-3" x="192.2" y="106.91" width="1.77" height="2.48" rx="0.28"/><rect class="cls-3" x="195.87" y="106.91" width="1.77" height="2.48" rx="0.28"/><rect class="cls-3" x="199.52" y="106.91" width="1.77" height="2.48" rx="0.28"/><rect class="cls-3" x="192.2" y="111.08" width="1.77" height="2.48" rx="0.28"/><rect class="cls-3" x="195.87" y="111.08" width="1.77" height="2.48" rx="0.28"/><rect class="cls-3" x="199.52" y="111.08" width="1.77" height="2.48" rx="0.28"/><rect class="cls-3" x="192.2" y="115.25" width="1.77" height="2.48" rx="0.28"/><rect class="cls-3" x="195.87" y="115.25" width="1.77" height="2.48" rx="0.28"/><rect class="cls-3" x="199.52" y="115.25" width="1.77" height="2.48" rx="0.28"/><rect class="cls-3" x="192.2" y="119.41" width="1.77" height="2.48" rx="0.28"/><rect class="cls-3" x="195.87" y="119.41" width="1.77" height="2.48" rx="0.28"/><rect class="cls-3" x="199.52" y="119.41" width="1.77" height="2.48" rx="0.28"/><rect class="cls-3" x="192.2" y="123.58" width="1.77" height="2.48" rx="0.28"/><rect class="cls-3" x="195.87" y="123.58" width="1.77" height="2.48" rx="0.28"/><rect class="cls-3" x="199.52" y="123.58" width="1.77" height="2.48" rx="0.28"/><rect class="cls-3" x="192.2" y="127.75" width="1.77" height="2.48" rx="0.28"/><rect class="cls-3" x="195.87" y="127.75" width="1.77" height="2.48" rx="0.28"/><rect class="cls-3" x="199.52" y="127.75" width="1.77" height="2.48" rx="0.28"/><rect class="cls-3" x="192.2" y="131.92" width="1.77" height="2.48" rx="0.28"/><rect class="cls-3" x="195.87" y="131.92" width="1.77" height="2.48" rx="0.28"/><rect class="cls-3" x="199.52" y="131.92" width="1.77" height="2.48" rx="0.28"/><rect class="cls-3" x="192.2" y="136.09" width="1.77" height="2.48" rx="0.28"/><rect class="cls-3" x="195.87" y="136.09" width="1.77" height="2.48" rx="0.28"/><rect class="cls-3" x="199.52" y="136.09" width="1.77" height="2.48" rx="0.28"/><rect class="cls-3" x="192.2" y="140.25" width="1.77" height="2.48" rx="0.28"/><rect class="cls-3" x="195.87" y="140.25" width="1.77" height="2.48" rx="0.28"/><rect class="cls-3" x="199.52" y="140.25" width="1.77" height="2.48" rx="0.28"/><rect class="cls-3" x="199.53" y="106.91" width="1.77" height="2.48" rx="0.28"/><path class="cls-2" d="M10.13,102.48H2.94a1,1,0,0,0-.94,1v43.69h9.08V103.43A1,1,0,0,0,10.13,102.48Z" transform="translate(-2 -0.54)"/><path class="cls-3" d="M9.58,104.94v40.45a.28.28,0,0,1-.55,0V104.94a.26.26,0,0,1,.27-.26A.26.26,0,0,1,9.58,104.94Z" transform="translate(-2 -0.54)"/><path class="cls-3" d="M6.84,104.94v40.45a.28.28,0,0,1-.28.27.27.27,0,0,1-.27-.27V104.94a.26.26,0,0,1,.27-.26A.27.27,0,0,1,6.84,104.94Z" transform="translate(-2 -0.54)"/><path class="cls-3" d="M4.1,104.94v40.45a.28.28,0,0,1-.28.27.27.27,0,0,1-.27-.27V104.94a.26.26,0,0,1,.27-.26A.27.27,0,0,1,4.1,104.94Z" transform="translate(-2 -0.54)"/><path class="cls-3" d="M86.7,135.31A8.41,8.41,0,0,0,86,132a31.34,31.34,0,0,0-57.62,0,8.27,8.27,0,0,0-.67,3.29v11.81h59Z" transform="translate(-2 -0.54)"/><path class="cls-2" d="M31.57,133.74a.69.69,0,0,1-.63-1,28.75,28.75,0,0,1,52.56,0,.68.68,0,0,1-.62,1Z" transform="translate(-2 -0.54)"/><rect class="cls-2" x="46.19" y="138.42" width="4.25" height="5.12" rx="1.89"/><rect class="cls-2" x="61.56" y="138.33" width="4.25" height="5.12" rx="1.89"/><rect class="cls-2" x="52.97" y="138.42" width="6.13" height="5.12" rx="1.89"/><rect class="cls-2" x="32.56" y="136.16" width="2.74" height="9.38" rx="0.94"/><rect class="cls-2" x="36.73" y="136.16" width="2.74" height="9.38" rx="0.94"/><rect class="cls-2" x="72.68" y="135.51" width="2.74" height="9.38" rx="0.94"/><rect class="cls-2" x="76.84" y="135.51" width="2.74" height="9.38" rx="0.94"/><path class="cls-2" d="M107.94,147.06H96.48l3.09-84.14a1.08,1.08,0,0,1,1.09-1h3.11a1.1,1.1,0,0,1,1.09,1Z" transform="translate(-2 -0.54)"/><path class="cls-1" d="M94.8,51a6.81,6.81,0,0,0-.11,1.21,7.6,7.6,0,0,0,2.16,5.3h10.91a7.55,7.55,0,0,0,2.16-5.3,7.9,7.9,0,0,0-.1-1.21Z" transform="translate(-2 -0.54)"/><path class="cls-2" d="M109.56,50.34a7.62,7.62,0,0,0-14.5,0Z" transform="translate(-2 -0.54)"/><path class="cls-2" d="M108.11,61.2H96.47a1.57,1.57,0,0,1-1.56-1.57h0a1.56,1.56,0,0,1,1.56-1.56h11.64a1.56,1.56,0,0,1,1.56,1.56h0A1.57,1.57,0,0,1,108.11,61.2Z" transform="translate(-2 -0.54)"/><circle class="cls-1" cx="100.09" cy="30.98" r="1.89"/><path class="cls-2" d="M102.81,29.19,102.13.54l-.69,28.64a2.82,2.82,0,0,1,.65-.08A3.38,3.38,0,0,1,102.81,29.19Z" transform="translate(-2 -0.54)"/><path class="cls-2" d="M101.31,33.81l-.26,10.81a9.08,9.08,0,0,1,1.17-.08,7.93,7.93,0,0,1,1,.06l-.26-10.81a2.65,2.65,0,0,1-.85.13A2.88,2.88,0,0,1,101.31,33.81Z" transform="translate(-2 -0.54)"/><rect class="cls-3" x="101.16" y="63.7" width="0.52" height="81.16"/><rect class="cls-3" x="98.55" y="63.7" width="0.52" height="81.16"/><path class="cls-1" d="M112.13,86.38h11.2a3.57,3.57,0,0,1,3.57,3.57v56.61a0,0,0,0,1,0,0H108.56a0,0,0,0,1,0,0V89.95A3.57,3.57,0,0,1,112.13,86.38Z"/><path class="cls-3" d="M113,147.14a.19.19,0,0,1-.19-.2l0-52.14a.2.2,0,0,1,.2-.2h0a.2.2,0,0,1,.19.2l0,52.14a.2.2,0,0,1-.2.2Z" transform="translate(-2 -0.54)"/><path class="cls-3" d="M115.72,147.09a.2.2,0,0,1-.2-.2l0-52.14a.19.19,0,0,1,.2-.19h0a.19.19,0,0,1,.19.19l0,52.14a.2.2,0,0,1-.2.2Z" transform="translate(-2 -0.54)"/><path class="cls-3" d="M118.2,147.14a.19.19,0,0,1-.19-.2V92a.18.18,0,0,1,.19-.19.19.19,0,0,1,.2.19v54.92A.2.2,0,0,1,118.2,147.14Z" transform="translate(-2 -0.54)"/><path class="cls-3" d="M120.81,147.14a.2.2,0,0,1-.2-.2V92a.2.2,0,1,1,.39,0v55A.2.2,0,0,1,120.81,147.14Z" transform="translate(-2 -0.54)"/><path class="cls-3" d="M123.48,147.14a.2.2,0,0,1-.19-.2l-.05-52.14a.2.2,0,0,1,.2-.2h0a.2.2,0,0,1,.2.2l0,52.14a.2.2,0,0,1-.2.2Z" transform="translate(-2 -0.54)"/><path class="cls-3" d="M126,147.14a.2.2,0,0,1-.2-.2l0-52.14a.19.19,0,0,1,.19-.2h0a.2.2,0,0,1,.2.2l0,52.14a.2.2,0,0,1-.19.2Z" transform="translate(-2 -0.54)"/><path class="cls-3" d="M128.89,94.51h-5.28l-.55-2.58a.2.2,0,0,0-.19-.16h-6.58a.2.2,0,0,0-.19.16l-.55,2.58h-5v.39h5.15a.19.19,0,0,0,.19-.16l.56-2.58h6.26l.55,2.58a.2.2,0,0,0,.19.16h5.44Z" transform="translate(-2 -0.54)"/><path class="cls-3" d="M128.15,98.27h-17a.19.19,0,0,1-.19-.19.2.2,0,0,1,.19-.2h17a.2.2,0,0,1,.19.2A.19.19,0,0,1,128.15,98.27Z" transform="translate(-2 -0.54)"/><path class="cls-3" d="M128.15,101.92h-17a.2.2,0,0,1-.19-.2.2.2,0,0,1,.19-.19h17a.2.2,0,0,1,.19.19A.2.2,0,0,1,128.15,101.92Z" transform="translate(-2 -0.54)"/><path class="cls-3" d="M128.15,105.57h-17a.2.2,0,0,1-.19-.2.19.19,0,0,1,.19-.19h17a.19.19,0,0,1,.19.19A.2.2,0,0,1,128.15,105.57Z" transform="translate(-2 -0.54)"/><path class="cls-3" d="M128.15,109.21h-17A.19.19,0,0,1,111,109a.2.2,0,0,1,.19-.2h17a.2.2,0,0,1,.19.2A.19.19,0,0,1,128.15,109.21Z" transform="translate(-2 -0.54)"/><path class="cls-3" d="M128.15,112.86h-17a.2.2,0,0,1-.19-.19.2.2,0,0,1,.19-.2h17a.2.2,0,0,1,.19.2A.2.2,0,0,1,128.15,112.86Z" transform="translate(-2 -0.54)"/><path class="cls-3" d="M128.15,116.51h-17a.2.2,0,0,1-.19-.2.19.19,0,0,1,.19-.19h17a.19.19,0,0,1,.19.19A.2.2,0,0,1,128.15,116.51Z" transform="translate(-2 -0.54)"/><path class="cls-3" d="M128.15,120.15h-17A.19.19,0,0,1,111,120a.2.2,0,0,1,.19-.2h17a.2.2,0,0,1,.19.2A.19.19,0,0,1,128.15,120.15Z" transform="translate(-2 -0.54)"/><path class="cls-3" d="M128.15,123.8h-17a.2.2,0,0,1-.19-.19.2.2,0,0,1,.19-.2h17a.2.2,0,0,1,.19.2A.2.2,0,0,1,128.15,123.8Z" transform="translate(-2 -0.54)"/><path class="cls-3" d="M128.15,127.45h-17a.2.2,0,0,1-.19-.2.19.19,0,0,1,.19-.19h17a.19.19,0,0,1,.19.19A.2.2,0,0,1,128.15,127.45Z" transform="translate(-2 -0.54)"/><path class="cls-3" d="M128.15,131.1h-17a.2.2,0,0,1,0-.4h17a.2.2,0,0,1,0,.4Z" transform="translate(-2 -0.54)"/><path class="cls-3" d="M128.15,134.74h-17a.2.2,0,0,1-.19-.19.2.2,0,0,1,.19-.2h17a.2.2,0,0,1,.19.2A.2.2,0,0,1,128.15,134.74Z" transform="translate(-2 -0.54)"/><path class="cls-3" d="M128.15,138.39h-17a.2.2,0,0,1-.19-.2.2.2,0,0,1,.19-.19h17a.2.2,0,0,1,.19.19A.2.2,0,0,1,128.15,138.39Z" transform="translate(-2 -0.54)"/><path class="cls-3" d="M128.15,142h-17a.2.2,0,0,1,0-.4h17a.2.2,0,0,1,0,.4Z" transform="translate(-2 -0.54)"/><path class="cls-2" d="M113.75,116.75h7.75a2.75,2.75,0,0,1,2.75,2.75v27.08a0,0,0,0,1,0,0H111a0,0,0,0,1,0,0V119.5A2.75,2.75,0,0,1,113.75,116.75Z"/><rect class="cls-4" x="112.99" y="118.92" width="1.81" height="2.56" rx="0.29"/><rect class="cls-4" x="116.86" y="118.92" width="1.81" height="2.56" rx="0.29"/><rect class="cls-4" x="120.72" y="118.92" width="1.81" height="2.56" rx="0.29"/><rect class="cls-4" x="112.99" y="123.34" width="1.81" height="2.56" rx="0.29"/><rect class="cls-4" x="116.86" y="123.34" width="1.81" height="2.56" rx="0.29"/><rect class="cls-4" x="120.72" y="123.34" width="1.81" height="2.56" rx="0.29"/><rect class="cls-4" x="112.99" y="127.76" width="1.81" height="2.56" rx="0.29"/><rect class="cls-4" x="116.86" y="127.76" width="1.81" height="2.56" rx="0.29"/><rect class="cls-4" x="120.72" y="127.76" width="1.81" height="2.56" rx="0.29"/><rect class="cls-4" x="112.99" y="132.18" width="1.81" height="2.56" rx="0.29"/><rect class="cls-4" x="116.86" y="132.18" width="1.81" height="2.56" rx="0.29"/><rect class="cls-4" x="120.72" y="132.18" width="1.81" height="2.56" rx="0.29"/><rect class="cls-4" x="112.99" y="136.59" width="1.81" height="2.56" rx="0.29"/><rect class="cls-4" x="116.86" y="136.59" width="1.81" height="2.56" rx="0.29"/><rect class="cls-4" x="120.72" y="136.59" width="1.81" height="2.56" rx="0.29"/><rect class="cls-4" x="112.99" y="141.01" width="1.81" height="2.56" rx="0.29"/><rect class="cls-4" x="116.86" y="141.01" width="1.81" height="2.56" rx="0.29"/><rect class="cls-4" x="120.72" y="141.01" width="1.81" height="2.56" rx="0.29"/><path class="cls-5" d="M139.63,147.12" transform="translate(-2 -0.54)"/><path class="cls-2" d="M135.92,111.41h11.76a2.61,2.61,0,0,1,2.61,2.61v32.55a0,0,0,0,1,0,0h-17a0,0,0,0,1,0,0V114A2.61,2.61,0,0,1,135.92,111.41Z"/><path class="cls-2" d="M138.37,108.82h1.78V111h8.59v-3.11a.79.79,0,0,0-.8-.79H138.5a.91.91,0,0,0-.91.91A.74.74,0,0,0,138.37,108.82Z" transform="translate(-2 -0.54)"/><path class="cls-3" d="M143.79,147.31a.2.2,0,0,1-.19-.19V112.56a.2.2,0,1,1,.39,0v34.56A.2.2,0,0,1,143.79,147.31Z" transform="translate(-2 -0.54)"/><path class="cls-3" d="M148.07,147.31a.2.2,0,0,1-.2-.19V112.56a.2.2,0,0,1,.4,0v34.56A.2.2,0,0,1,148.07,147.31Z" transform="translate(-2 -0.54)"/><path class="cls-3" d="M151.61,115.53h-3.52a.19.19,0,0,1-.19-.19.19.19,0,0,1,.19-.2h3.52a.19.19,0,0,1,.19.2A.19.19,0,0,1,151.61,115.53Z" transform="translate(-2 -0.54)"/><path class="cls-3" d="M151.61,118.66h-3.52a.19.19,0,0,1-.19-.2.18.18,0,0,1,.19-.19h3.52a.18.18,0,0,1,.19.19A.19.19,0,0,1,151.61,118.66Z" transform="translate(-2 -0.54)"/><path class="cls-3" d="M151.61,121.78h-3.52a.19.19,0,0,1-.19-.19.19.19,0,0,1,.19-.2h3.52a.19.19,0,0,1,.19.2A.19.19,0,0,1,151.61,121.78Z" transform="translate(-2 -0.54)"/><path class="cls-3" d="M151.61,124.91h-3.52a.19.19,0,0,1-.19-.2.19.19,0,0,1,.19-.19h3.52a.19.19,0,0,1,.19.19A.19.19,0,0,1,151.61,124.91Z" transform="translate(-2 -0.54)"/><path class="cls-3" d="M151.61,128h-3.52a.18.18,0,0,1-.19-.19.19.19,0,0,1,.19-.2h3.52a.19.19,0,0,1,.19.2A.18.18,0,0,1,151.61,128Z" transform="translate(-2 -0.54)"/><path class="cls-3" d="M151.61,131.16h-3.52a.19.19,0,0,1-.19-.2.19.19,0,0,1,.19-.19h3.52a.19.19,0,0,1,.19.19A.19.19,0,0,1,151.61,131.16Z" transform="translate(-2 -0.54)"/><path class="cls-3" d="M151.61,134.29h-3.52a.19.19,0,0,1-.19-.2.18.18,0,0,1,.19-.19h3.52a.18.18,0,0,1,.19.19A.19.19,0,0,1,151.61,134.29Z" transform="translate(-2 -0.54)"/><path class="cls-3" d="M151.61,137.41h-3.52a.19.19,0,0,1-.19-.19.19.19,0,0,1,.19-.2h3.52a.19.19,0,0,1,.19.2A.19.19,0,0,1,151.61,137.41Z" transform="translate(-2 -0.54)"/><path class="cls-3" d="M151.61,140.54h-3.52a.19.19,0,0,1-.19-.2.18.18,0,0,1,.19-.19h3.52a.18.18,0,0,1,.19.19A.19.19,0,0,1,151.61,140.54Z" transform="translate(-2 -0.54)"/><path class="cls-3" d="M151.61,143.66h-3.52a.18.18,0,0,1-.19-.19.19.19,0,0,1,.19-.2h3.52a.19.19,0,0,1,.19.2A.18.18,0,0,1,151.61,143.66Z" transform="translate(-2 -0.54)"/><path class="cls-3" d="M139.63,147.31a.2.2,0,0,1-.2-.19V112.56a.2.2,0,1,1,.39,0v34.56A.2.2,0,0,1,139.63,147.31Z" transform="translate(-2 -0.54)"/><path class="cls-3" d="M139.6,115.53h-3.51a.2.2,0,1,1,0-.39h3.51a.2.2,0,1,1,0,.39Z" transform="translate(-2 -0.54)"/><path class="cls-3" d="M139.6,118.66h-3.51a.2.2,0,0,1-.2-.2.19.19,0,0,1,.2-.19h3.51a.19.19,0,0,1,.2.19A.2.2,0,0,1,139.6,118.66Z" transform="translate(-2 -0.54)"/><path class="cls-3" d="M139.6,121.78h-3.51a.2.2,0,1,1,0-.39h3.51a.2.2,0,1,1,0,.39Z" transform="translate(-2 -0.54)"/><path class="cls-3" d="M139.6,124.91h-3.51a.2.2,0,1,1,0-.39h3.51a.2.2,0,1,1,0,.39Z" transform="translate(-2 -0.54)"/><path class="cls-3" d="M139.6,128h-3.51a.19.19,0,0,1-.2-.19.2.2,0,0,1,.2-.2h3.51a.2.2,0,0,1,.2.2A.19.19,0,0,1,139.6,128Z" transform="translate(-2 -0.54)"/><path class="cls-3" d="M139.6,131.16h-3.51a.2.2,0,1,1,0-.39h3.51a.2.2,0,1,1,0,.39Z" transform="translate(-2 -0.54)"/><path class="cls-3" d="M139.6,134.29h-3.51a.2.2,0,0,1-.2-.2.19.19,0,0,1,.2-.19h3.51a.19.19,0,0,1,.2.19A.2.2,0,0,1,139.6,134.29Z" transform="translate(-2 -0.54)"/><path class="cls-3" d="M139.6,137.41h-3.51a.2.2,0,1,1,0-.39h3.51a.2.2,0,1,1,0,.39Z" transform="translate(-2 -0.54)"/><path class="cls-3" d="M139.6,140.54h-3.51a.2.2,0,0,1-.2-.2.19.19,0,0,1,.2-.19h3.51a.19.19,0,0,1,.2.19A.2.2,0,0,1,139.6,140.54Z" transform="translate(-2 -0.54)"/><path class="cls-3" d="M139.6,143.66h-3.51a.19.19,0,0,1-.2-.19.2.2,0,0,1,.2-.2h3.51a.2.2,0,0,1,.2.2A.19.19,0,0,1,139.6,143.66Z" transform="translate(-2 -0.54)"/><path class="cls-2" d="M154.58,111.95h17a0,0,0,0,1,0,0V144.5a2.61,2.61,0,0,1-2.61,2.61H157.2a2.61,2.61,0,0,1-2.61-2.61V111.95A0,0,0,0,1,154.58,111.95Z" transform="translate(324.15 258.53) rotate(180)"/><path class="cls-2" d="M168.51,108.82h-1.78V111h-8.6v-3.11a.79.79,0,0,1,.8-.79h9.45a.91.91,0,0,1,.91.91A.74.74,0,0,1,168.51,108.82Z" transform="translate(-2 -0.54)"/><path class="cls-3" d="M163.08,147.31a.2.2,0,0,0,.2-.19V112.56a.2.2,0,1,0-.4,0v34.56A.2.2,0,0,0,163.08,147.31Z" transform="translate(-2 -0.54)"/><path class="cls-3" d="M158.8,147.31a.2.2,0,0,0,.2-.19V112.56a.2.2,0,1,0-.39,0v34.56A.2.2,0,0,0,158.8,147.31Z" transform="translate(-2 -0.54)"/><path class="cls-3" d="M155.27,115.53h3.51a.2.2,0,1,0,0-.39h-3.51a.2.2,0,1,0,0,.39Z" transform="translate(-2 -0.54)"/><path class="cls-3" d="M155.27,118.66h3.51a.2.2,0,0,0,.2-.2.19.19,0,0,0-.2-.19h-3.51a.19.19,0,0,0-.2.19A.2.2,0,0,0,155.27,118.66Z" transform="translate(-2 -0.54)"/><path class="cls-3" d="M155.27,121.78h3.51a.2.2,0,1,0,0-.39h-3.51a.2.2,0,1,0,0,.39Z" transform="translate(-2 -0.54)"/><path class="cls-3" d="M155.27,124.91h3.51a.2.2,0,1,0,0-.39h-3.51a.2.2,0,1,0,0,.39Z" transform="translate(-2 -0.54)"/><path class="cls-3" d="M155.27,128h3.51a.19.19,0,0,0,.2-.19.2.2,0,0,0-.2-.2h-3.51a.2.2,0,0,0-.2.2A.19.19,0,0,0,155.27,128Z" transform="translate(-2 -0.54)"/><path class="cls-3" d="M155.27,131.16h3.51a.2.2,0,1,0,0-.39h-3.51a.2.2,0,1,0,0,.39Z" transform="translate(-2 -0.54)"/><path class="cls-3" d="M155.27,134.29h3.51a.2.2,0,0,0,.2-.2.19.19,0,0,0-.2-.19h-3.51a.19.19,0,0,0-.2.19A.2.2,0,0,0,155.27,134.29Z" transform="translate(-2 -0.54)"/><path class="cls-3" d="M155.27,137.41h3.51a.2.2,0,1,0,0-.39h-3.51a.2.2,0,1,0,0,.39Z" transform="translate(-2 -0.54)"/><path class="cls-3" d="M155.27,140.54h3.51a.2.2,0,0,0,.2-.2.19.19,0,0,0-.2-.19h-3.51a.19.19,0,0,0-.2.19A.2.2,0,0,0,155.27,140.54Z" transform="translate(-2 -0.54)"/><path class="cls-3" d="M155.27,143.66h3.51a.19.19,0,0,0,.2-.19.2.2,0,0,0-.2-.2h-3.51a.2.2,0,0,0-.2.2A.19.19,0,0,0,155.27,143.66Z" transform="translate(-2 -0.54)"/><path class="cls-3" d="M167.25,147.31a.19.19,0,0,0,.19-.19V112.56a.19.19,0,0,0-.19-.2.2.2,0,0,0-.2.2v34.56A.2.2,0,0,0,167.25,147.31Z" transform="translate(-2 -0.54)"/><path class="cls-3" d="M167.27,115.53h3.52a.2.2,0,0,0,.19-.19.2.2,0,0,0-.19-.2h-3.52a.2.2,0,1,0,0,.39Z" transform="translate(-2 -0.54)"/><path class="cls-3" d="M167.27,118.66h3.52a.2.2,0,0,0,.19-.2.19.19,0,0,0-.19-.19h-3.52a.19.19,0,0,0-.2.19A.2.2,0,0,0,167.27,118.66Z" transform="translate(-2 -0.54)"/><path class="cls-3" d="M167.27,121.78h3.52a.2.2,0,0,0,.19-.19.2.2,0,0,0-.19-.2h-3.52a.2.2,0,1,0,0,.39Z" transform="translate(-2 -0.54)"/><path class="cls-3" d="M167.27,124.91h3.52a.2.2,0,0,0,.19-.2.2.2,0,0,0-.19-.19h-3.52a.2.2,0,1,0,0,.39Z" transform="translate(-2 -0.54)"/><path class="cls-3" d="M167.27,128h3.52a.19.19,0,0,0,.19-.19.2.2,0,0,0-.19-.2h-3.52a.2.2,0,0,0-.2.2A.19.19,0,0,0,167.27,128Z" transform="translate(-2 -0.54)"/><path class="cls-3" d="M167.27,131.16h3.52a.2.2,0,0,0,.19-.2.2.2,0,0,0-.19-.19h-3.52a.2.2,0,1,0,0,.39Z" transform="translate(-2 -0.54)"/><path class="cls-3" d="M167.27,134.29h3.52a.2.2,0,0,0,.19-.2.19.19,0,0,0-.19-.19h-3.52a.19.19,0,0,0-.2.19A.2.2,0,0,0,167.27,134.29Z" transform="translate(-2 -0.54)"/><path class="cls-3" d="M167.27,137.41h3.52a.2.2,0,0,0,.19-.19.2.2,0,0,0-.19-.2h-3.52a.2.2,0,1,0,0,.39Z" transform="translate(-2 -0.54)"/><path class="cls-3" d="M167.27,140.54h3.52a.2.2,0,0,0,.19-.2.19.19,0,0,0-.19-.19h-3.52a.19.19,0,0,0-.2.19A.2.2,0,0,0,167.27,140.54Z" transform="translate(-2 -0.54)"/><path class="cls-3" d="M167.27,143.66h3.52a.19.19,0,0,0,.19-.19.2.2,0,0,0-.19-.2h-3.52a.2.2,0,0,0-.2.2A.19.19,0,0,0,167.27,143.66Z" transform="translate(-2 -0.54)"/><path class="cls-2" d="M180.34,115.49h9.9a2.6,2.6,0,0,1,2.6,2.6v28.49a0,0,0,0,1,0,0h-15.1a0,0,0,0,1,0,0V118.09A2.6,2.6,0,0,1,180.34,115.49Z"/><line class="cls-6" x1="179.61" y1="119.75" x2="190.68" y2="119.75"/><line class="cls-6" x1="179.61" y1="122.35" x2="190.68" y2="122.35"/><line class="cls-6" x1="179.61" y1="124.96" x2="190.68" y2="124.96"/><line class="cls-6" x1="179.61" y1="127.56" x2="190.68" y2="127.56"/><line class="cls-6" x1="179.61" y1="130.17" x2="190.68" y2="130.17"/><line class="cls-6" x1="179.61" y1="132.77" x2="190.68" y2="132.77"/><line class="cls-6" x1="179.61" y1="135.38" x2="190.68" y2="135.38"/><line class="cls-6" x1="179.61" y1="137.98" x2="190.68" y2="137.98"/><line class="cls-6" x1="179.61" y1="140.59" x2="190.68" y2="140.59"/><line class="cls-6" x1="179.61" y1="143.19" x2="190.68" y2="143.19"/></svg>